<mxfile host="app.diagrams.net" agent="Mozilla/5.0 (Macintosh; Intel Mac OS X 10_15_7) AppleWebKit/605.1.15 (KHTML, like Gecko) Version/18.2 Safari/605.1.15" version="24.8.4">
  <diagram id="C5RBs43oDa-KdzZeNtuy" name="Page-1">
    <mxGraphModel dx="1837" dy="1226" grid="1" gridSize="10" guides="1" tooltips="1" connect="1" arrows="1" fold="1" page="1" pageScale="1" pageWidth="827" pageHeight="1169" math="0" shadow="0">
      <root>
        <mxCell id="WIyWlLk6GJQsqaUBKTNV-0" />
        <mxCell id="WIyWlLk6GJQsqaUBKTNV-1" parent="WIyWlLk6GJQsqaUBKTNV-0" />
        <mxCell id="YLLOaxHBiWGZTTnEDzXJ-4" value="&amp;lt;&amp;lt;enumeration&amp;gt;&amp;gt;&lt;br&gt;&lt;b&gt;HttpStatus&lt;/b&gt;" style="swimlane;fontStyle=0;align=center;verticalAlign=top;childLayout=stackLayout;horizontal=1;startSize=40;horizontalStack=0;resizeParent=1;resizeParentMax=0;resizeLast=0;collapsible=0;marginBottom=0;html=1;whiteSpace=wrap;movable=1;resizable=1;rotatable=1;deletable=1;editable=1;locked=0;connectable=1;" parent="WIyWlLk6GJQsqaUBKTNV-1" vertex="1">
          <mxGeometry x="580" y="10" width="120" height="122" as="geometry" />
        </mxCell>
        <mxCell id="YLLOaxHBiWGZTTnEDzXJ-6" value="Unknown" style="text;strokeColor=none;fillColor=none;align=left;verticalAlign=top;spacingLeft=4;spacingRight=4;overflow=hidden;rotatable=1;points=[[0,0.5],[1,0.5]];portConstraint=eastwest;whiteSpace=wrap;html=1;movable=1;resizable=1;deletable=1;editable=1;locked=0;connectable=1;" parent="YLLOaxHBiWGZTTnEDzXJ-4" vertex="1">
          <mxGeometry y="40" width="120" height="26" as="geometry" />
        </mxCell>
        <mxCell id="pjH03qB0m816pcfInYxz-0" value="Success" style="text;strokeColor=none;fillColor=none;align=left;verticalAlign=top;spacingLeft=4;spacingRight=4;overflow=hidden;rotatable=1;points=[[0,0.5],[1,0.5]];portConstraint=eastwest;whiteSpace=wrap;html=1;movable=1;resizable=1;deletable=1;editable=1;locked=0;connectable=1;" parent="YLLOaxHBiWGZTTnEDzXJ-4" vertex="1">
          <mxGeometry y="66" width="120" height="26" as="geometry" />
        </mxCell>
        <mxCell id="YLLOaxHBiWGZTTnEDzXJ-5" value="Error" style="text;html=1;strokeColor=none;fillColor=none;align=left;verticalAlign=middle;spacingLeft=4;spacingRight=4;overflow=hidden;rotatable=1;points=[[0,0.5],[1,0.5]];portConstraint=eastwest;whiteSpace=wrap;movable=1;resizable=1;deletable=1;editable=1;locked=0;connectable=1;" parent="YLLOaxHBiWGZTTnEDzXJ-4" vertex="1">
          <mxGeometry y="92" width="120" height="30" as="geometry" />
        </mxCell>
        <mxCell id="YLLOaxHBiWGZTTnEDzXJ-40" value="" style="endArrow=diamondThin;endFill=1;endSize=24;html=1;rounded=0;entryX=1;entryY=0.5;entryDx=0;entryDy=0;edgeStyle=orthogonalEdgeStyle;exitX=0;exitY=0.5;exitDx=0;exitDy=0;movable=1;resizable=1;rotatable=1;deletable=1;editable=1;locked=0;connectable=1;" parent="WIyWlLk6GJQsqaUBKTNV-1" source="YLLOaxHBiWGZTTnEDzXJ-6" target="YLLOaxHBiWGZTTnEDzXJ-19" edge="1">
          <mxGeometry width="160" relative="1" as="geometry">
            <mxPoint x="660" y="100" as="sourcePoint" />
            <mxPoint x="650" y="90" as="targetPoint" />
            <Array as="points">
              <mxPoint x="530" y="63" />
              <mxPoint x="530" y="130" />
            </Array>
          </mxGeometry>
        </mxCell>
        <mxCell id="YLLOaxHBiWGZTTnEDzXJ-42" value="" style="endArrow=diamondThin;endFill=1;endSize=24;html=1;rounded=0;exitX=1;exitY=0.25;exitDx=0;exitDy=0;entryX=0.997;entryY=0.656;entryDx=0;entryDy=0;entryPerimeter=0;edgeStyle=orthogonalEdgeStyle;movable=1;resizable=1;rotatable=1;deletable=1;editable=1;locked=0;connectable=1;" parent="WIyWlLk6GJQsqaUBKTNV-1" source="YLLOaxHBiWGZTTnEDzXJ-125" target="YLLOaxHBiWGZTTnEDzXJ-29" edge="1">
          <mxGeometry width="160" relative="1" as="geometry">
            <mxPoint x="490" y="210" as="sourcePoint" />
            <mxPoint x="650" y="210" as="targetPoint" />
            <Array as="points">
              <mxPoint x="270" y="176" />
              <mxPoint x="270" y="123" />
            </Array>
          </mxGeometry>
        </mxCell>
        <mxCell id="YLLOaxHBiWGZTTnEDzXJ-43" value="" style="endArrow=block;endSize=16;endFill=0;html=1;rounded=0;entryX=0;entryY=0.128;entryDx=0;entryDy=0;exitX=0.5;exitY=0;exitDx=0;exitDy=0;edgeStyle=orthogonalEdgeStyle;entryPerimeter=0;movable=1;resizable=1;rotatable=1;deletable=1;editable=1;locked=0;connectable=1;" parent="WIyWlLk6GJQsqaUBKTNV-1" source="YLLOaxHBiWGZTTnEDzXJ-134" target="YLLOaxHBiWGZTTnEDzXJ-117" edge="1">
          <mxGeometry x="0.7647" y="38" width="160" relative="1" as="geometry">
            <mxPoint x="520" y="200" as="sourcePoint" />
            <mxPoint x="640" y="180" as="targetPoint" />
            <mxPoint as="offset" />
          </mxGeometry>
        </mxCell>
        <mxCell id="YLLOaxHBiWGZTTnEDzXJ-44" value="" style="endArrow=block;endSize=16;endFill=0;html=1;rounded=0;exitX=0;exitY=0.25;exitDx=0;exitDy=0;edgeStyle=orthogonalEdgeStyle;entryX=0.5;entryY=1;entryDx=0;entryDy=0;movable=1;resizable=1;rotatable=1;deletable=1;editable=1;locked=0;connectable=1;" parent="WIyWlLk6GJQsqaUBKTNV-1" source="YLLOaxHBiWGZTTnEDzXJ-142" target="YLLOaxHBiWGZTTnEDzXJ-117" edge="1">
          <mxGeometry width="160" relative="1" as="geometry">
            <mxPoint x="340" y="180" as="sourcePoint" />
            <mxPoint x="500" y="180" as="targetPoint" />
            <Array as="points">
              <mxPoint x="380" y="184" />
            </Array>
          </mxGeometry>
        </mxCell>
        <mxCell id="YLLOaxHBiWGZTTnEDzXJ-48" value="" style="endArrow=block;endSize=16;endFill=0;html=1;rounded=0;exitX=0.5;exitY=0;exitDx=0;exitDy=0;entryX=0.5;entryY=1;entryDx=0;entryDy=0;edgeStyle=orthogonalEdgeStyle;movable=1;resizable=1;rotatable=1;deletable=1;editable=1;locked=0;connectable=1;" parent="WIyWlLk6GJQsqaUBKTNV-1" source="YLLOaxHBiWGZTTnEDzXJ-147" target="YLLOaxHBiWGZTTnEDzXJ-142" edge="1">
          <mxGeometry width="160" relative="1" as="geometry">
            <mxPoint x="280" y="270" as="sourcePoint" />
            <mxPoint x="440" y="270" as="targetPoint" />
            <Array as="points">
              <mxPoint x="160" y="280" />
              <mxPoint x="540" y="280" />
            </Array>
          </mxGeometry>
        </mxCell>
        <mxCell id="YLLOaxHBiWGZTTnEDzXJ-79" value="&amp;lt;&amp;lt;enumeration&amp;gt;&amp;gt;&lt;br&gt;&lt;b&gt;Classification&lt;/b&gt;" style="swimlane;fontStyle=0;align=center;verticalAlign=top;childLayout=stackLayout;horizontal=1;startSize=40;horizontalStack=0;resizeParent=1;resizeParentMax=0;resizeLast=0;collapsible=0;marginBottom=0;html=1;whiteSpace=wrap;movable=1;resizable=1;rotatable=1;deletable=1;editable=1;locked=0;connectable=1;" parent="WIyWlLk6GJQsqaUBKTNV-1" vertex="1">
          <mxGeometry x="680" y="330" width="140" height="332" as="geometry" />
        </mxCell>
        <mxCell id="ryrtGhmW_Z26ruCLo2IK-98" value="Unknown" style="text;html=1;strokeColor=none;fillColor=none;align=left;verticalAlign=middle;spacingLeft=4;spacingRight=4;overflow=hidden;rotatable=1;points=[[0,0.5],[1,0.5]];portConstraint=eastwest;whiteSpace=wrap;movable=1;resizable=1;deletable=1;editable=1;locked=0;connectable=1;" parent="YLLOaxHBiWGZTTnEDzXJ-79" vertex="1">
          <mxGeometry y="40" width="140" height="30" as="geometry" />
        </mxCell>
        <mxCell id="ryrtGhmW_Z26ruCLo2IK-88" value="TelegramEarthquake" style="text;strokeColor=none;fillColor=none;align=left;verticalAlign=top;spacingLeft=4;spacingRight=4;overflow=hidden;rotatable=1;points=[[0,0.5],[1,0.5]];portConstraint=eastwest;whiteSpace=wrap;html=1;movable=1;resizable=1;deletable=1;editable=1;locked=0;connectable=1;" parent="YLLOaxHBiWGZTTnEDzXJ-79" vertex="1">
          <mxGeometry y="70" width="140" height="26" as="geometry" />
        </mxCell>
        <mxCell id="ryrtGhmW_Z26ruCLo2IK-89" value="TelegramVolcano" style="text;html=1;strokeColor=none;fillColor=none;align=left;verticalAlign=middle;spacingLeft=4;spacingRight=4;overflow=hidden;rotatable=1;points=[[0,0.5],[1,0.5]];portConstraint=eastwest;whiteSpace=wrap;movable=1;resizable=1;deletable=1;editable=1;locked=0;connectable=1;" parent="YLLOaxHBiWGZTTnEDzXJ-79" vertex="1">
          <mxGeometry y="96" width="140" height="30" as="geometry" />
        </mxCell>
        <mxCell id="ryrtGhmW_Z26ruCLo2IK-90" value="TelegramWeather" style="text;html=1;strokeColor=none;fillColor=none;align=left;verticalAlign=middle;spacingLeft=4;spacingRight=4;overflow=hidden;rotatable=1;points=[[0,0.5],[1,0.5]];portConstraint=eastwest;whiteSpace=wrap;movable=1;resizable=1;deletable=1;editable=1;locked=0;connectable=1;" parent="YLLOaxHBiWGZTTnEDzXJ-79" vertex="1">
          <mxGeometry y="126" width="140" height="30" as="geometry" />
        </mxCell>
        <mxCell id="ryrtGhmW_Z26ruCLo2IK-91" value="TelegramForecast" style="text;html=1;strokeColor=none;fillColor=none;align=left;verticalAlign=middle;spacingLeft=4;spacingRight=4;overflow=hidden;rotatable=1;points=[[0,0.5],[1,0.5]];portConstraint=eastwest;whiteSpace=wrap;movable=1;resizable=1;deletable=1;editable=1;locked=0;connectable=1;" parent="YLLOaxHBiWGZTTnEDzXJ-79" vertex="1">
          <mxGeometry y="156" width="140" height="30" as="geometry" />
        </mxCell>
        <mxCell id="ryrtGhmW_Z26ruCLo2IK-92" value="TelegramScheduled" style="text;html=1;strokeColor=none;fillColor=none;align=left;verticalAlign=middle;spacingLeft=4;spacingRight=4;overflow=hidden;rotatable=1;points=[[0,0.5],[1,0.5]];portConstraint=eastwest;whiteSpace=wrap;movable=1;resizable=1;deletable=1;editable=1;locked=0;connectable=1;" parent="YLLOaxHBiWGZTTnEDzXJ-79" vertex="1">
          <mxGeometry y="186" width="140" height="30" as="geometry" />
        </mxCell>
        <mxCell id="ryrtGhmW_Z26ruCLo2IK-95" value="EewWarning" style="text;html=1;strokeColor=none;fillColor=none;align=left;verticalAlign=middle;spacingLeft=4;spacingRight=4;overflow=hidden;rotatable=1;points=[[0,0.5],[1,0.5]];portConstraint=eastwest;whiteSpace=wrap;movable=1;resizable=1;deletable=1;editable=1;locked=0;connectable=1;" parent="YLLOaxHBiWGZTTnEDzXJ-79" vertex="1">
          <mxGeometry y="216" width="140" height="30" as="geometry" />
        </mxCell>
        <mxCell id="ryrtGhmW_Z26ruCLo2IK-94" value="EewForecast" style="text;html=1;strokeColor=none;fillColor=none;align=left;verticalAlign=middle;spacingLeft=4;spacingRight=4;overflow=hidden;rotatable=1;points=[[0,0.5],[1,0.5]];portConstraint=eastwest;whiteSpace=wrap;movable=1;resizable=1;deletable=1;editable=1;locked=0;connectable=1;" parent="YLLOaxHBiWGZTTnEDzXJ-79" vertex="1">
          <mxGeometry y="246" width="140" height="30" as="geometry" />
        </mxCell>
        <mxCell id="ryrtGhmW_Z26ruCLo2IK-97" value="WebSocketPlus5" style="text;html=1;strokeColor=none;fillColor=none;align=left;verticalAlign=middle;spacingLeft=4;spacingRight=4;overflow=hidden;rotatable=1;points=[[0,0.5],[1,0.5]];portConstraint=eastwest;whiteSpace=wrap;movable=1;resizable=1;deletable=1;editable=1;locked=0;connectable=1;" parent="YLLOaxHBiWGZTTnEDzXJ-79" vertex="1">
          <mxGeometry y="276" width="140" height="30" as="geometry" />
        </mxCell>
        <mxCell id="ryrtGhmW_Z26ruCLo2IK-96" value="WebSocketPlus2" style="text;strokeColor=none;fillColor=none;align=left;verticalAlign=top;spacingLeft=4;spacingRight=4;overflow=hidden;rotatable=1;points=[[0,0.5],[1,0.5]];portConstraint=eastwest;whiteSpace=wrap;html=1;movable=1;resizable=1;deletable=1;editable=1;locked=0;connectable=1;" parent="YLLOaxHBiWGZTTnEDzXJ-79" vertex="1">
          <mxGeometry y="306" width="140" height="26" as="geometry" />
        </mxCell>
        <mxCell id="YLLOaxHBiWGZTTnEDzXJ-103" value="" style="endArrow=diamondThin;endFill=1;endSize=24;html=1;rounded=0;entryX=1;entryY=0.5;entryDx=0;entryDy=0;exitX=0;exitY=0.5;exitDx=0;exitDy=0;edgeStyle=orthogonalEdgeStyle;movable=1;resizable=1;rotatable=1;deletable=1;editable=1;locked=0;connectable=1;" parent="WIyWlLk6GJQsqaUBKTNV-1" source="YLLOaxHBiWGZTTnEDzXJ-55" target="YLLOaxHBiWGZTTnEDzXJ-150" edge="1">
          <mxGeometry width="160" relative="1" as="geometry">
            <mxPoint x="413" y="431" as="sourcePoint" />
            <mxPoint x="460" y="560" as="targetPoint" />
          </mxGeometry>
        </mxCell>
        <mxCell id="YLLOaxHBiWGZTTnEDzXJ-104" value="T = Contract" style="endArrow=block;endSize=16;endFill=0;html=1;rounded=0;entryX=0;entryY=0.5;entryDx=0;entryDy=0;exitX=0;exitY=0.5;exitDx=0;exitDy=0;edgeStyle=orthogonalEdgeStyle;movable=1;resizable=1;rotatable=1;deletable=1;editable=1;locked=0;connectable=1;" parent="WIyWlLk6GJQsqaUBKTNV-1" source="YLLOaxHBiWGZTTnEDzXJ-150" target="YLLOaxHBiWGZTTnEDzXJ-147" edge="1">
          <mxGeometry x="-0.4495" width="160" relative="1" as="geometry">
            <mxPoint x="250" y="450" as="sourcePoint" />
            <mxPoint x="410" y="450" as="targetPoint" />
            <Array as="points">
              <mxPoint x="30" y="430" />
              <mxPoint x="30" y="336" />
              <mxPoint x="80" y="336" />
            </Array>
            <mxPoint as="offset" />
          </mxGeometry>
        </mxCell>
        <mxCell id="YLLOaxHBiWGZTTnEDzXJ-117" value="&amp;lt;&amp;lt;record&amp;gt;&amp;gt;&lt;br&gt;&lt;b&gt;&lt;i&gt;ApiResponse&lt;/i&gt;&lt;/b&gt;&lt;br&gt;{abstract}" style="swimlane;fontStyle=0;align=center;verticalAlign=top;childLayout=stackLayout;horizontal=1;startSize=55;horizontalStack=0;resizeParent=1;resizeParentMax=0;resizeLast=0;collapsible=0;marginBottom=0;html=1;whiteSpace=wrap;movable=1;resizable=1;rotatable=1;deletable=1;editable=1;locked=0;connectable=1;" parent="WIyWlLk6GJQsqaUBKTNV-1" vertex="1">
          <mxGeometry x="290" y="10" width="180" height="141" as="geometry" />
        </mxCell>
        <mxCell id="YLLOaxHBiWGZTTnEDzXJ-18" value="+ ResponseId: string" style="text;strokeColor=none;fillColor=none;align=left;verticalAlign=top;spacingLeft=4;spacingRight=4;overflow=hidden;rotatable=1;points=[[0,0.5],[1,0.5]];portConstraint=eastwest;whiteSpace=wrap;html=1;movable=1;resizable=1;deletable=1;editable=1;locked=0;connectable=1;" parent="YLLOaxHBiWGZTTnEDzXJ-117" vertex="1">
          <mxGeometry y="55" width="180" height="26" as="geometry" />
        </mxCell>
        <mxCell id="YLLOaxHBiWGZTTnEDzXJ-15" value="+ ResponseTime: DateTime" style="text;strokeColor=none;fillColor=none;align=left;verticalAlign=top;spacingLeft=4;spacingRight=4;overflow=hidden;rotatable=1;points=[[0,0.5],[1,0.5]];portConstraint=eastwest;whiteSpace=wrap;html=1;movable=1;resizable=1;deletable=1;editable=1;locked=0;connectable=1;" parent="YLLOaxHBiWGZTTnEDzXJ-117" vertex="1">
          <mxGeometry y="81" width="180" height="26" as="geometry" />
        </mxCell>
        <mxCell id="YLLOaxHBiWGZTTnEDzXJ-19" value="+ ResponseStatus: HttpStatus" style="text;strokeColor=none;fillColor=none;align=left;verticalAlign=top;spacingLeft=4;spacingRight=4;overflow=hidden;rotatable=1;points=[[0,0.5],[1,0.5]];portConstraint=eastwest;whiteSpace=wrap;html=1;movable=1;resizable=1;deletable=1;editable=1;locked=0;connectable=1;" parent="YLLOaxHBiWGZTTnEDzXJ-117" vertex="1">
          <mxGeometry y="107" width="180" height="26" as="geometry" />
        </mxCell>
        <mxCell id="YLLOaxHBiWGZTTnEDzXJ-122" value="" style="line;strokeWidth=1;fillColor=none;align=left;verticalAlign=middle;spacingTop=-1;spacingLeft=3;spacingRight=3;rotatable=1;labelPosition=right;points=[];portConstraint=eastwest;movable=1;resizable=1;deletable=1;editable=1;locked=0;connectable=1;" parent="YLLOaxHBiWGZTTnEDzXJ-117" vertex="1">
          <mxGeometry y="133" width="180" height="8" as="geometry" />
        </mxCell>
        <mxCell id="YLLOaxHBiWGZTTnEDzXJ-125" value="&amp;lt;&amp;lt;record&amp;gt;&amp;gt;&lt;br&gt;&lt;b&gt;HttpError&lt;/b&gt;" style="swimlane;fontStyle=0;align=center;verticalAlign=top;childLayout=stackLayout;horizontal=1;startSize=40;horizontalStack=0;resizeParent=1;resizeParentMax=0;resizeLast=0;collapsible=0;marginBottom=0;html=1;whiteSpace=wrap;movable=1;resizable=1;rotatable=1;deletable=1;editable=1;locked=0;connectable=1;" parent="WIyWlLk6GJQsqaUBKTNV-1" vertex="1">
          <mxGeometry x="100" y="151" width="120" height="100" as="geometry" />
        </mxCell>
        <mxCell id="YLLOaxHBiWGZTTnEDzXJ-34" value="+ Message: string" style="text;strokeColor=none;fillColor=none;align=left;verticalAlign=top;spacingLeft=4;spacingRight=4;overflow=hidden;rotatable=1;points=[[0,0.5],[1,0.5]];portConstraint=eastwest;whiteSpace=wrap;html=1;movable=1;resizable=1;deletable=1;editable=1;locked=0;connectable=1;" parent="YLLOaxHBiWGZTTnEDzXJ-125" vertex="1">
          <mxGeometry y="40" width="120" height="26" as="geometry" />
        </mxCell>
        <mxCell id="YLLOaxHBiWGZTTnEDzXJ-35" value="+ Code: int" style="text;strokeColor=none;fillColor=none;align=left;verticalAlign=top;spacingLeft=4;spacingRight=4;overflow=hidden;rotatable=1;points=[[0,0.5],[1,0.5]];portConstraint=eastwest;whiteSpace=wrap;html=1;movable=1;resizable=1;deletable=1;editable=1;locked=0;connectable=1;" parent="YLLOaxHBiWGZTTnEDzXJ-125" vertex="1">
          <mxGeometry y="66" width="120" height="26" as="geometry" />
        </mxCell>
        <mxCell id="YLLOaxHBiWGZTTnEDzXJ-129" value="" style="line;strokeWidth=1;fillColor=none;align=left;verticalAlign=middle;spacingTop=-1;spacingLeft=3;spacingRight=3;rotatable=1;labelPosition=right;points=[];portConstraint=eastwest;movable=1;resizable=1;deletable=1;editable=1;locked=0;connectable=1;" parent="YLLOaxHBiWGZTTnEDzXJ-125" vertex="1">
          <mxGeometry y="92" width="120" height="8" as="geometry" />
        </mxCell>
        <mxCell id="YLLOaxHBiWGZTTnEDzXJ-134" value="&amp;lt;&amp;lt;record&amp;gt;&amp;gt;&lt;br&gt;&lt;b&gt;ErrorResponse&lt;/b&gt;" style="swimlane;fontStyle=0;align=center;verticalAlign=top;childLayout=stackLayout;horizontal=1;startSize=40;horizontalStack=0;resizeParent=1;resizeParentMax=0;resizeLast=0;collapsible=0;marginBottom=0;html=1;whiteSpace=wrap;movable=1;resizable=1;rotatable=1;deletable=1;editable=1;locked=0;connectable=1;" parent="WIyWlLk6GJQsqaUBKTNV-1" vertex="1">
          <mxGeometry x="20" y="40" width="220" height="100" as="geometry" />
        </mxCell>
        <mxCell id="YLLOaxHBiWGZTTnEDzXJ-28" value="+ ResponseStatus: HttpStatus = Error" style="text;strokeColor=none;fillColor=none;align=left;verticalAlign=top;spacingLeft=4;spacingRight=4;overflow=hidden;rotatable=1;points=[[0,0.5],[1,0.5]];portConstraint=eastwest;whiteSpace=wrap;html=1;movable=1;resizable=1;deletable=1;editable=1;locked=0;connectable=1;" parent="YLLOaxHBiWGZTTnEDzXJ-134" vertex="1">
          <mxGeometry y="40" width="220" height="26" as="geometry" />
        </mxCell>
        <mxCell id="YLLOaxHBiWGZTTnEDzXJ-29" value="+ Error: HttpError" style="text;strokeColor=none;fillColor=none;align=left;verticalAlign=top;spacingLeft=4;spacingRight=4;overflow=hidden;rotatable=1;points=[[0,0.5],[1,0.5]];portConstraint=eastwest;whiteSpace=wrap;html=1;movable=1;resizable=1;deletable=1;editable=1;locked=0;connectable=1;" parent="YLLOaxHBiWGZTTnEDzXJ-134" vertex="1">
          <mxGeometry y="66" width="220" height="26" as="geometry" />
        </mxCell>
        <mxCell id="YLLOaxHBiWGZTTnEDzXJ-137" value="" style="line;strokeWidth=1;fillColor=none;align=left;verticalAlign=middle;spacingTop=-1;spacingLeft=3;spacingRight=3;rotatable=1;labelPosition=right;points=[];portConstraint=eastwest;movable=1;resizable=1;deletable=1;editable=1;locked=0;connectable=1;" parent="YLLOaxHBiWGZTTnEDzXJ-134" vertex="1">
          <mxGeometry y="92" width="220" height="8" as="geometry" />
        </mxCell>
        <mxCell id="YLLOaxHBiWGZTTnEDzXJ-142" value="&amp;lt;&amp;lt;record&amp;gt;&amp;gt;&lt;br&gt;&lt;b&gt;&lt;i&gt;SuccessResponse&lt;/i&gt;&lt;/b&gt;&lt;br&gt;{abstract}" style="swimlane;fontStyle=0;align=center;verticalAlign=top;childLayout=stackLayout;horizontal=1;startSize=55;horizontalStack=0;resizeParent=1;resizeParentMax=0;resizeLast=0;collapsible=0;marginBottom=0;html=1;whiteSpace=wrap;movable=1;resizable=1;rotatable=1;deletable=1;editable=1;locked=0;connectable=1;" parent="WIyWlLk6GJQsqaUBKTNV-1" vertex="1">
          <mxGeometry x="420" y="162" width="240" height="89" as="geometry" />
        </mxCell>
        <mxCell id="YLLOaxHBiWGZTTnEDzXJ-145" value="+ ResponseStatus: HttpStatus = Success" style="text;strokeColor=none;fillColor=none;align=left;verticalAlign=top;spacingLeft=4;spacingRight=4;overflow=hidden;rotatable=1;points=[[0,0.5],[1,0.5]];portConstraint=eastwest;whiteSpace=wrap;html=1;movable=1;resizable=1;deletable=1;editable=1;locked=0;connectable=1;" parent="YLLOaxHBiWGZTTnEDzXJ-142" vertex="1">
          <mxGeometry y="55" width="240" height="26" as="geometry" />
        </mxCell>
        <mxCell id="YLLOaxHBiWGZTTnEDzXJ-146" value="" style="line;strokeWidth=1;fillColor=none;align=left;verticalAlign=middle;spacingTop=-1;spacingLeft=3;spacingRight=3;rotatable=1;labelPosition=right;points=[];portConstraint=eastwest;movable=1;resizable=1;deletable=1;editable=1;locked=0;connectable=1;" parent="YLLOaxHBiWGZTTnEDzXJ-142" vertex="1">
          <mxGeometry y="81" width="240" height="8" as="geometry" />
        </mxCell>
        <mxCell id="YLLOaxHBiWGZTTnEDzXJ-147" value="&amp;lt;&amp;lt;record&amp;gt;&amp;gt;&lt;br&gt;&lt;b&gt;&lt;i&gt;ListResponse&amp;lt;T&amp;gt;&lt;/i&gt;&lt;/b&gt;&lt;br&gt;{abstract}" style="swimlane;fontStyle=0;align=center;verticalAlign=top;childLayout=stackLayout;horizontal=1;startSize=55;horizontalStack=0;resizeParent=1;resizeParentMax=0;resizeLast=0;collapsible=0;marginBottom=0;html=1;whiteSpace=wrap;movable=1;resizable=1;rotatable=1;deletable=1;editable=1;locked=0;connectable=1;" parent="WIyWlLk6GJQsqaUBKTNV-1" vertex="1">
          <mxGeometry x="80" y="291" width="160" height="89" as="geometry" />
        </mxCell>
        <mxCell id="YLLOaxHBiWGZTTnEDzXJ-148" value="+ ItemList: List&amp;lt;T&amp;gt;" style="text;strokeColor=none;fillColor=none;align=left;verticalAlign=top;spacingLeft=4;spacingRight=4;overflow=hidden;rotatable=1;points=[[0,0.5],[1,0.5]];portConstraint=eastwest;whiteSpace=wrap;html=1;movable=1;resizable=1;deletable=1;editable=1;locked=0;connectable=1;" parent="YLLOaxHBiWGZTTnEDzXJ-147" vertex="1">
          <mxGeometry y="55" width="160" height="26" as="geometry" />
        </mxCell>
        <mxCell id="YLLOaxHBiWGZTTnEDzXJ-149" value="" style="line;strokeWidth=1;fillColor=none;align=left;verticalAlign=middle;spacingTop=-1;spacingLeft=3;spacingRight=3;rotatable=1;labelPosition=right;points=[];portConstraint=eastwest;movable=1;resizable=1;deletable=1;editable=1;locked=0;connectable=1;" parent="YLLOaxHBiWGZTTnEDzXJ-147" vertex="1">
          <mxGeometry y="81" width="160" height="8" as="geometry" />
        </mxCell>
        <mxCell id="YLLOaxHBiWGZTTnEDzXJ-150" value="&amp;lt;&amp;lt;record&amp;gt;&amp;gt;&lt;br&gt;&lt;b&gt;ContractList&lt;/b&gt;" style="swimlane;fontStyle=0;align=center;verticalAlign=top;childLayout=stackLayout;horizontal=1;startSize=38;horizontalStack=0;resizeParent=1;resizeParentMax=0;resizeLast=0;collapsible=0;marginBottom=0;html=1;whiteSpace=wrap;movable=1;resizable=1;rotatable=1;deletable=1;editable=1;locked=0;connectable=1;" parent="WIyWlLk6GJQsqaUBKTNV-1" vertex="1">
          <mxGeometry x="180" y="408" width="160" height="46" as="geometry" />
        </mxCell>
        <mxCell id="YLLOaxHBiWGZTTnEDzXJ-152" value="" style="line;strokeWidth=1;fillColor=none;align=left;verticalAlign=middle;spacingTop=-1;spacingLeft=3;spacingRight=3;rotatable=1;labelPosition=right;points=[];portConstraint=eastwest;movable=1;resizable=1;deletable=1;editable=1;locked=0;connectable=1;" parent="YLLOaxHBiWGZTTnEDzXJ-150" vertex="1">
          <mxGeometry y="38" width="160" height="8" as="geometry" />
        </mxCell>
        <mxCell id="YLLOaxHBiWGZTTnEDzXJ-154" value="&amp;lt;&amp;lt;record&amp;gt;&amp;gt;&lt;br&gt;&lt;b&gt;Contract&lt;/b&gt;" style="swimlane;fontStyle=0;align=center;verticalAlign=top;childLayout=stackLayout;horizontal=1;startSize=38;horizontalStack=0;resizeParent=1;resizeParentMax=0;resizeLast=0;collapsible=0;marginBottom=0;html=1;whiteSpace=wrap;movable=1;resizable=1;rotatable=1;deletable=1;editable=1;locked=0;connectable=1;" parent="WIyWlLk6GJQsqaUBKTNV-1" vertex="1">
          <mxGeometry x="420" y="380" width="180" height="254" as="geometry" />
        </mxCell>
        <mxCell id="YLLOaxHBiWGZTTnEDzXJ-55" value="+ SubscrioptionId: int?" style="text;strokeColor=none;fillColor=none;align=left;verticalAlign=top;spacingLeft=4;spacingRight=4;overflow=hidden;rotatable=1;points=[[0,0.5],[1,0.5]];portConstraint=eastwest;whiteSpace=wrap;html=1;movable=1;resizable=1;deletable=1;editable=1;locked=0;connectable=1;" parent="YLLOaxHBiWGZTTnEDzXJ-154" vertex="1">
          <mxGeometry y="38" width="180" height="26" as="geometry" />
        </mxCell>
        <mxCell id="YLLOaxHBiWGZTTnEDzXJ-56" value="+ PlanId: int" style="text;strokeColor=none;fillColor=none;align=left;verticalAlign=top;spacingLeft=4;spacingRight=4;overflow=hidden;rotatable=1;points=[[0,0.5],[1,0.5]];portConstraint=eastwest;whiteSpace=wrap;html=1;movable=1;resizable=1;deletable=1;editable=1;locked=0;connectable=1;" parent="YLLOaxHBiWGZTTnEDzXJ-154" vertex="1">
          <mxGeometry y="64" width="180" height="26" as="geometry" />
        </mxCell>
        <mxCell id="YLLOaxHBiWGZTTnEDzXJ-57" value="+ PlanName: string" style="text;strokeColor=none;fillColor=none;align=left;verticalAlign=top;spacingLeft=4;spacingRight=4;overflow=hidden;rotatable=1;points=[[0,0.5],[1,0.5]];portConstraint=eastwest;whiteSpace=wrap;html=1;movable=1;resizable=1;deletable=1;editable=1;locked=0;connectable=1;" parent="YLLOaxHBiWGZTTnEDzXJ-154" vertex="1">
          <mxGeometry y="90" width="180" height="26" as="geometry" />
        </mxCell>
        <mxCell id="YLLOaxHBiWGZTTnEDzXJ-60" value="+ Classification: Classification" style="text;strokeColor=none;fillColor=none;align=left;verticalAlign=top;spacingLeft=4;spacingRight=4;overflow=hidden;rotatable=1;points=[[0,0.5],[1,0.5]];portConstraint=eastwest;whiteSpace=wrap;html=1;movable=1;resizable=1;deletable=1;editable=1;locked=0;connectable=1;" parent="YLLOaxHBiWGZTTnEDzXJ-154" vertex="1">
          <mxGeometry y="116" width="180" height="26" as="geometry" />
        </mxCell>
        <mxCell id="YLLOaxHBiWGZTTnEDzXJ-59" value="+ Price: UnitPrice" style="text;strokeColor=none;fillColor=none;align=left;verticalAlign=top;spacingLeft=4;spacingRight=4;overflow=hidden;rotatable=1;points=[[0,0.5],[1,0.5]];portConstraint=eastwest;whiteSpace=wrap;html=1;movable=1;resizable=1;deletable=1;editable=1;locked=0;connectable=1;" parent="YLLOaxHBiWGZTTnEDzXJ-154" vertex="1">
          <mxGeometry y="142" width="180" height="26" as="geometry" />
        </mxCell>
        <mxCell id="YLLOaxHBiWGZTTnEDzXJ-73" value="+ Start: DateTime?" style="text;strokeColor=none;fillColor=none;align=left;verticalAlign=top;spacingLeft=4;spacingRight=4;overflow=hidden;rotatable=1;points=[[0,0.5],[1,0.5]];portConstraint=eastwest;whiteSpace=wrap;html=1;movable=1;resizable=1;deletable=1;editable=1;locked=0;connectable=1;" parent="YLLOaxHBiWGZTTnEDzXJ-154" vertex="1">
          <mxGeometry y="168" width="180" height="26" as="geometry" />
        </mxCell>
        <mxCell id="YLLOaxHBiWGZTTnEDzXJ-72" value="+ IsValid: bool" style="text;strokeColor=none;fillColor=none;align=left;verticalAlign=top;spacingLeft=4;spacingRight=4;overflow=hidden;rotatable=1;points=[[0,0.5],[1,0.5]];portConstraint=eastwest;whiteSpace=wrap;html=1;movable=1;resizable=1;deletable=1;editable=1;locked=0;connectable=1;" parent="YLLOaxHBiWGZTTnEDzXJ-154" vertex="1">
          <mxGeometry y="194" width="180" height="26" as="geometry" />
        </mxCell>
        <mxCell id="YLLOaxHBiWGZTTnEDzXJ-74" value="+ ConnectionCounts: int" style="text;strokeColor=none;fillColor=none;align=left;verticalAlign=top;spacingLeft=4;spacingRight=4;overflow=hidden;rotatable=1;points=[[0,0.5],[1,0.5]];portConstraint=eastwest;whiteSpace=wrap;html=1;movable=1;resizable=1;deletable=1;editable=1;locked=0;connectable=1;" parent="YLLOaxHBiWGZTTnEDzXJ-154" vertex="1">
          <mxGeometry y="220" width="180" height="26" as="geometry" />
        </mxCell>
        <mxCell id="YLLOaxHBiWGZTTnEDzXJ-156" value="" style="line;strokeWidth=1;fillColor=none;align=left;verticalAlign=middle;spacingTop=-1;spacingLeft=3;spacingRight=3;rotatable=1;labelPosition=right;points=[];portConstraint=eastwest;movable=1;resizable=1;deletable=1;editable=1;locked=0;connectable=1;" parent="YLLOaxHBiWGZTTnEDzXJ-154" vertex="1">
          <mxGeometry y="246" width="180" height="8" as="geometry" />
        </mxCell>
        <mxCell id="YLLOaxHBiWGZTTnEDzXJ-157" value="&amp;lt;&amp;lt;record&amp;gt;&amp;gt;&lt;br&gt;&lt;b&gt;&lt;i&gt;TokenResponse&amp;lt;T&amp;gt;&lt;/i&gt;&lt;/b&gt;&lt;br&gt;{abstract}" style="swimlane;fontStyle=0;align=center;verticalAlign=top;childLayout=stackLayout;horizontal=1;startSize=55;horizontalStack=0;resizeParent=1;resizeParentMax=0;resizeLast=0;collapsible=0;marginBottom=0;html=1;whiteSpace=wrap;movable=1;resizable=1;rotatable=1;deletable=1;editable=1;locked=0;connectable=1;" parent="WIyWlLk6GJQsqaUBKTNV-1" vertex="1">
          <mxGeometry x="80" y="470" width="160" height="89" as="geometry" />
        </mxCell>
        <mxCell id="YLLOaxHBiWGZTTnEDzXJ-158" value="+ NextToken: string?" style="text;strokeColor=none;fillColor=none;align=left;verticalAlign=top;spacingLeft=4;spacingRight=4;overflow=hidden;rotatable=1;points=[[0,0.5],[1,0.5]];portConstraint=eastwest;whiteSpace=wrap;html=1;movable=1;resizable=1;deletable=1;editable=1;locked=0;connectable=1;" parent="YLLOaxHBiWGZTTnEDzXJ-157" vertex="1">
          <mxGeometry y="55" width="160" height="26" as="geometry" />
        </mxCell>
        <mxCell id="YLLOaxHBiWGZTTnEDzXJ-159" value="" style="line;strokeWidth=1;fillColor=none;align=left;verticalAlign=middle;spacingTop=-1;spacingLeft=3;spacingRight=3;rotatable=1;labelPosition=right;points=[];portConstraint=eastwest;movable=1;resizable=1;deletable=1;editable=1;locked=0;connectable=1;" parent="YLLOaxHBiWGZTTnEDzXJ-157" vertex="1">
          <mxGeometry y="81" width="160" height="8" as="geometry" />
        </mxCell>
        <mxCell id="YLLOaxHBiWGZTTnEDzXJ-161" value="" style="endArrow=block;endSize=16;endFill=0;html=1;rounded=0;entryX=0;entryY=0.5;entryDx=0;entryDy=0;exitX=0;exitY=0.5;exitDx=0;exitDy=0;edgeStyle=orthogonalEdgeStyle;movable=1;resizable=1;rotatable=1;deletable=1;editable=1;locked=0;connectable=1;" parent="WIyWlLk6GJQsqaUBKTNV-1" source="YLLOaxHBiWGZTTnEDzXJ-157" target="YLLOaxHBiWGZTTnEDzXJ-147" edge="1">
          <mxGeometry width="160" relative="1" as="geometry">
            <mxPoint x="270" y="580" as="sourcePoint" />
            <mxPoint x="430" y="580" as="targetPoint" />
            <Array as="points">
              <mxPoint x="80" y="510" />
              <mxPoint x="30" y="510" />
              <mxPoint x="30" y="336" />
              <mxPoint x="80" y="336" />
            </Array>
          </mxGeometry>
        </mxCell>
        <mxCell id="YLLOaxHBiWGZTTnEDzXJ-162" value="&amp;lt;&amp;lt;record&amp;gt;&amp;gt;&lt;br&gt;&lt;div&gt;&lt;b&gt;&lt;i&gt;PoolingResponse&amp;lt;T&amp;gt;&lt;/i&gt;&lt;/b&gt;&lt;br&gt;{abstract}&lt;/div&gt;" style="swimlane;fontStyle=0;align=center;verticalAlign=top;childLayout=stackLayout;horizontal=1;startSize=55;horizontalStack=0;resizeParent=1;resizeParentMax=0;resizeLast=0;collapsible=0;marginBottom=0;html=1;whiteSpace=wrap;movable=1;resizable=1;rotatable=1;deletable=1;editable=1;locked=0;connectable=1;" parent="WIyWlLk6GJQsqaUBKTNV-1" vertex="1">
          <mxGeometry x="80" y="1190" width="160" height="141" as="geometry" />
        </mxCell>
        <mxCell id="YLLOaxHBiWGZTTnEDzXJ-185" value="+ NextToken: string?" style="text;strokeColor=none;fillColor=none;align=left;verticalAlign=top;spacingLeft=4;spacingRight=4;overflow=hidden;rotatable=1;points=[[0,0.5],[1,0.5]];portConstraint=eastwest;whiteSpace=wrap;html=1;movable=1;resizable=1;deletable=1;editable=1;locked=0;connectable=1;" parent="YLLOaxHBiWGZTTnEDzXJ-162" vertex="1">
          <mxGeometry y="55" width="160" height="26" as="geometry" />
        </mxCell>
        <mxCell id="YLLOaxHBiWGZTTnEDzXJ-186" value="+ NextPooling: string?" style="text;strokeColor=none;fillColor=none;align=left;verticalAlign=top;spacingLeft=4;spacingRight=4;overflow=hidden;rotatable=1;points=[[0,0.5],[1,0.5]];portConstraint=eastwest;whiteSpace=wrap;html=1;movable=1;resizable=1;deletable=1;editable=1;locked=0;connectable=1;" parent="YLLOaxHBiWGZTTnEDzXJ-162" vertex="1">
          <mxGeometry y="81" width="160" height="26" as="geometry" />
        </mxCell>
        <mxCell id="YLLOaxHBiWGZTTnEDzXJ-187" value="+ NextPoolingInterval: int?" style="text;strokeColor=none;fillColor=none;align=left;verticalAlign=top;spacingLeft=4;spacingRight=4;overflow=hidden;rotatable=1;points=[[0,0.5],[1,0.5]];portConstraint=eastwest;whiteSpace=wrap;html=1;movable=1;resizable=1;deletable=1;editable=1;locked=0;connectable=1;" parent="YLLOaxHBiWGZTTnEDzXJ-162" vertex="1">
          <mxGeometry y="107" width="160" height="26" as="geometry" />
        </mxCell>
        <mxCell id="YLLOaxHBiWGZTTnEDzXJ-164" value="" style="line;strokeWidth=1;fillColor=none;align=left;verticalAlign=middle;spacingTop=-1;spacingLeft=3;spacingRight=3;rotatable=1;labelPosition=right;points=[];portConstraint=eastwest;movable=1;resizable=1;deletable=1;editable=1;locked=0;connectable=1;" parent="YLLOaxHBiWGZTTnEDzXJ-162" vertex="1">
          <mxGeometry y="133" width="160" height="8" as="geometry" />
        </mxCell>
        <mxCell id="YLLOaxHBiWGZTTnEDzXJ-168" value="" style="endArrow=block;endSize=16;endFill=0;html=1;rounded=0;exitX=0;exitY=0.25;exitDx=0;exitDy=0;entryX=0;entryY=0.5;entryDx=0;entryDy=0;edgeStyle=orthogonalEdgeStyle;movable=1;resizable=1;rotatable=1;deletable=1;editable=1;locked=0;connectable=1;" parent="WIyWlLk6GJQsqaUBKTNV-1" source="YLLOaxHBiWGZTTnEDzXJ-162" target="YLLOaxHBiWGZTTnEDzXJ-147" edge="1">
          <mxGeometry width="160" relative="1" as="geometry">
            <mxPoint x="60" y="740" as="sourcePoint" />
            <mxPoint x="494" y="710" as="targetPoint" />
            <Array as="points">
              <mxPoint x="30" y="1225" />
              <mxPoint x="30" y="336" />
            </Array>
          </mxGeometry>
        </mxCell>
        <mxCell id="YLLOaxHBiWGZTTnEDzXJ-171" value="&amp;lt;&amp;lt;record&amp;gt;&amp;gt;&lt;br&gt;&lt;b&gt;UnitPrice&lt;/b&gt;" style="swimlane;fontStyle=0;align=center;verticalAlign=top;childLayout=stackLayout;horizontal=1;startSize=43;horizontalStack=0;resizeParent=1;resizeParentMax=0;resizeLast=0;collapsible=0;marginBottom=0;html=1;whiteSpace=wrap;movable=1;resizable=1;rotatable=1;deletable=1;editable=1;locked=0;connectable=1;" parent="WIyWlLk6GJQsqaUBKTNV-1" vertex="1">
          <mxGeometry x="260" y="521" width="120" height="95" as="geometry" />
        </mxCell>
        <mxCell id="ryrtGhmW_Z26ruCLo2IK-36" value="+ Month: int" style="text;strokeColor=none;fillColor=none;align=left;verticalAlign=top;spacingLeft=4;spacingRight=4;overflow=hidden;rotatable=1;points=[[0,0.5],[1,0.5]];portConstraint=eastwest;whiteSpace=wrap;html=1;movable=1;resizable=1;deletable=1;editable=1;locked=0;connectable=1;" parent="YLLOaxHBiWGZTTnEDzXJ-171" vertex="1">
          <mxGeometry y="43" width="120" height="26" as="geometry" />
        </mxCell>
        <mxCell id="ryrtGhmW_Z26ruCLo2IK-35" value="+ Day: int" style="text;strokeColor=none;fillColor=none;align=left;verticalAlign=top;spacingLeft=4;spacingRight=4;overflow=hidden;rotatable=1;points=[[0,0.5],[1,0.5]];portConstraint=eastwest;whiteSpace=wrap;html=1;movable=1;resizable=1;deletable=1;editable=1;locked=0;connectable=1;" parent="YLLOaxHBiWGZTTnEDzXJ-171" vertex="1">
          <mxGeometry y="69" width="120" height="26" as="geometry" />
        </mxCell>
        <mxCell id="ryrtGhmW_Z26ruCLo2IK-42" value="&amp;lt;&amp;lt;enumeration&amp;gt;&amp;gt;&lt;br&gt;&lt;b&gt;FormatType&lt;/b&gt;" style="swimlane;fontStyle=0;align=center;verticalAlign=top;childLayout=stackLayout;horizontal=1;startSize=40;horizontalStack=0;resizeParent=1;resizeParentMax=0;resizeLast=0;collapsible=0;marginBottom=0;html=1;whiteSpace=wrap;movable=1;resizable=1;rotatable=1;deletable=1;editable=1;locked=0;connectable=1;" parent="WIyWlLk6GJQsqaUBKTNV-1" vertex="1">
          <mxGeometry x="700" y="920" width="120" height="186" as="geometry" />
        </mxCell>
        <mxCell id="pjH03qB0m816pcfInYxz-21" value="Unknown" style="text;html=1;strokeColor=none;fillColor=none;align=left;verticalAlign=middle;spacingLeft=4;spacingRight=4;overflow=hidden;rotatable=1;points=[[0,0.5],[1,0.5]];portConstraint=eastwest;whiteSpace=wrap;movable=1;resizable=1;deletable=1;editable=1;locked=0;connectable=1;" parent="ryrtGhmW_Z26ruCLo2IK-42" vertex="1">
          <mxGeometry y="40" width="120" height="30" as="geometry" />
        </mxCell>
        <mxCell id="ryrtGhmW_Z26ruCLo2IK-67" value="Xml" style="text;strokeColor=none;fillColor=none;align=left;verticalAlign=top;spacingLeft=4;spacingRight=4;overflow=hidden;rotatable=1;points=[[0,0.5],[1,0.5]];portConstraint=eastwest;whiteSpace=wrap;html=1;movable=1;resizable=1;deletable=1;editable=1;locked=0;connectable=1;" parent="ryrtGhmW_Z26ruCLo2IK-42" vertex="1">
          <mxGeometry y="70" width="120" height="26" as="geometry" />
        </mxCell>
        <mxCell id="ryrtGhmW_Z26ruCLo2IK-68" value="Json" style="text;html=1;strokeColor=none;fillColor=none;align=left;verticalAlign=middle;spacingLeft=4;spacingRight=4;overflow=hidden;rotatable=1;points=[[0,0.5],[1,0.5]];portConstraint=eastwest;whiteSpace=wrap;movable=1;resizable=1;deletable=1;editable=1;locked=0;connectable=1;" parent="ryrtGhmW_Z26ruCLo2IK-42" vertex="1">
          <mxGeometry y="96" width="120" height="30" as="geometry" />
        </mxCell>
        <mxCell id="ryrtGhmW_Z26ruCLo2IK-69" value="AlphaNumeric" style="text;html=1;strokeColor=none;fillColor=none;align=left;verticalAlign=middle;spacingLeft=4;spacingRight=4;overflow=hidden;rotatable=1;points=[[0,0.5],[1,0.5]];portConstraint=eastwest;whiteSpace=wrap;movable=1;resizable=1;deletable=1;editable=1;locked=0;connectable=1;" parent="ryrtGhmW_Z26ruCLo2IK-42" vertex="1">
          <mxGeometry y="126" width="120" height="30" as="geometry" />
        </mxCell>
        <mxCell id="ryrtGhmW_Z26ruCLo2IK-70" value="Binary" style="text;html=1;strokeColor=none;fillColor=none;align=left;verticalAlign=middle;spacingLeft=4;spacingRight=4;overflow=hidden;rotatable=1;points=[[0,0.5],[1,0.5]];portConstraint=eastwest;whiteSpace=wrap;movable=1;resizable=1;deletable=1;editable=1;locked=0;connectable=1;" parent="ryrtGhmW_Z26ruCLo2IK-42" vertex="1">
          <mxGeometry y="156" width="120" height="30" as="geometry" />
        </mxCell>
        <mxCell id="ryrtGhmW_Z26ruCLo2IK-54" value="&amp;lt;&amp;lt;enumeration&amp;gt;&amp;gt;&lt;br&gt;&lt;b&gt;ConnectionStatus&lt;/b&gt;" style="swimlane;fontStyle=0;align=center;verticalAlign=top;childLayout=stackLayout;horizontal=1;startSize=40;horizontalStack=0;resizeParent=1;resizeParentMax=0;resizeLast=0;collapsible=0;marginBottom=0;html=1;whiteSpace=wrap;movable=1;resizable=1;rotatable=1;deletable=1;editable=1;locked=0;connectable=1;" parent="WIyWlLk6GJQsqaUBKTNV-1" vertex="1">
          <mxGeometry x="330" y="970" width="120" height="158" as="geometry" />
        </mxCell>
        <mxCell id="pjH03qB0m816pcfInYxz-3" value="Unknown" style="text;strokeColor=none;fillColor=none;align=left;verticalAlign=top;spacingLeft=4;spacingRight=4;overflow=hidden;rotatable=1;points=[[0,0.5],[1,0.5]];portConstraint=eastwest;whiteSpace=wrap;html=1;movable=1;resizable=1;deletable=1;editable=1;locked=0;connectable=1;" parent="ryrtGhmW_Z26ruCLo2IK-54" vertex="1">
          <mxGeometry y="40" width="120" height="26" as="geometry" />
        </mxCell>
        <mxCell id="ryrtGhmW_Z26ruCLo2IK-64" value="Waiting" style="text;strokeColor=none;fillColor=none;align=left;verticalAlign=top;spacingLeft=4;spacingRight=4;overflow=hidden;rotatable=1;points=[[0,0.5],[1,0.5]];portConstraint=eastwest;whiteSpace=wrap;html=1;movable=1;resizable=1;deletable=1;editable=1;locked=0;connectable=1;" parent="ryrtGhmW_Z26ruCLo2IK-54" vertex="1">
          <mxGeometry y="66" width="120" height="26" as="geometry" />
        </mxCell>
        <mxCell id="ryrtGhmW_Z26ruCLo2IK-65" value="Open" style="text;html=1;strokeColor=none;fillColor=none;align=left;verticalAlign=middle;spacingLeft=4;spacingRight=4;overflow=hidden;rotatable=1;points=[[0,0.5],[1,0.5]];portConstraint=eastwest;whiteSpace=wrap;movable=1;resizable=1;deletable=1;editable=1;locked=0;connectable=1;" parent="ryrtGhmW_Z26ruCLo2IK-54" vertex="1">
          <mxGeometry y="92" width="120" height="36" as="geometry" />
        </mxCell>
        <mxCell id="ryrtGhmW_Z26ruCLo2IK-66" value="Closed" style="text;html=1;strokeColor=none;fillColor=none;align=left;verticalAlign=middle;spacingLeft=4;spacingRight=4;overflow=hidden;rotatable=1;points=[[0,0.5],[1,0.5]];portConstraint=eastwest;whiteSpace=wrap;movable=1;resizable=1;deletable=1;editable=1;locked=0;connectable=1;" parent="ryrtGhmW_Z26ruCLo2IK-54" vertex="1">
          <mxGeometry y="128" width="120" height="30" as="geometry" />
        </mxCell>
        <mxCell id="ryrtGhmW_Z26ruCLo2IK-71" value="" style="endArrow=open;endFill=1;endSize=12;html=1;rounded=0;exitX=0;exitY=0.5;exitDx=0;exitDy=0;edgeStyle=orthogonalEdgeStyle;movable=1;resizable=1;rotatable=1;deletable=1;editable=1;locked=0;connectable=1;entryX=1;entryY=0.5;entryDx=0;entryDy=0;" parent="WIyWlLk6GJQsqaUBKTNV-1" source="pjH03qB0m816pcfInYxz-21" target="ryrtGhmW_Z26ruCLo2IK-6" edge="1">
          <mxGeometry width="160" relative="1" as="geometry">
            <mxPoint x="460" y="920" as="sourcePoint" />
            <mxPoint x="660" y="1110" as="targetPoint" />
          </mxGeometry>
        </mxCell>
        <mxCell id="ryrtGhmW_Z26ruCLo2IK-72" value="" style="endArrow=open;endFill=1;endSize=12;html=1;rounded=0;exitX=0;exitY=0.5;exitDx=0;exitDy=0;entryX=1;entryY=0.5;entryDx=0;entryDy=0;edgeStyle=orthogonalEdgeStyle;movable=1;resizable=1;rotatable=1;deletable=1;editable=1;locked=0;connectable=1;" parent="WIyWlLk6GJQsqaUBKTNV-1" source="pjH03qB0m816pcfInYxz-3" target="fulxRrvb7B3gvN_P7Q5q-7" edge="1">
          <mxGeometry width="160" relative="1" as="geometry">
            <mxPoint x="460" y="920" as="sourcePoint" />
            <mxPoint x="410" y="1144" as="targetPoint" />
            <Array as="points">
              <mxPoint x="300" y="1023" />
              <mxPoint x="300" y="1057" />
            </Array>
          </mxGeometry>
        </mxCell>
        <mxCell id="ryrtGhmW_Z26ruCLo2IK-81" value="&amp;lt;&amp;lt;record&amp;gt;&amp;gt;&lt;br&gt;&lt;b&gt;WebSocketList&lt;/b&gt;" style="swimlane;fontStyle=0;align=center;verticalAlign=top;childLayout=stackLayout;horizontal=1;startSize=38;horizontalStack=0;resizeParent=1;resizeParentMax=0;resizeLast=0;collapsible=0;marginBottom=0;html=1;whiteSpace=wrap;movable=1;resizable=1;rotatable=1;deletable=1;editable=1;locked=0;connectable=1;" parent="WIyWlLk6GJQsqaUBKTNV-1" vertex="1">
          <mxGeometry x="80" y="616" width="160" height="46" as="geometry" />
        </mxCell>
        <mxCell id="ryrtGhmW_Z26ruCLo2IK-82" value="" style="line;strokeWidth=1;fillColor=none;align=left;verticalAlign=middle;spacingTop=-1;spacingLeft=3;spacingRight=3;rotatable=1;labelPosition=right;points=[];portConstraint=eastwest;movable=1;resizable=1;deletable=1;editable=1;locked=0;connectable=1;" parent="ryrtGhmW_Z26ruCLo2IK-81" vertex="1">
          <mxGeometry y="38" width="160" height="8" as="geometry" />
        </mxCell>
        <mxCell id="ryrtGhmW_Z26ruCLo2IK-84" value="T = WebSocketDetails" style="endArrow=block;endSize=16;endFill=0;html=1;rounded=0;exitX=0.5;exitY=0;exitDx=0;exitDy=0;edgeStyle=orthogonalEdgeStyle;movable=1;resizable=1;rotatable=1;deletable=1;editable=1;locked=0;connectable=1;entryX=0.5;entryY=1;entryDx=0;entryDy=0;" parent="WIyWlLk6GJQsqaUBKTNV-1" source="ryrtGhmW_Z26ruCLo2IK-81" target="YLLOaxHBiWGZTTnEDzXJ-157" edge="1">
          <mxGeometry x="-0.0058" width="160" relative="1" as="geometry">
            <mxPoint x="260" y="728" as="sourcePoint" />
            <mxPoint x="340" y="625" as="targetPoint" />
            <mxPoint as="offset" />
            <Array as="points">
              <mxPoint x="160" y="580" />
              <mxPoint x="160" y="580" />
            </Array>
          </mxGeometry>
        </mxCell>
        <mxCell id="ryrtGhmW_Z26ruCLo2IK-86" value="" style="endArrow=open;endFill=1;endSize=12;html=1;rounded=0;exitX=0;exitY=0.5;exitDx=0;exitDy=0;entryX=1;entryY=0.5;entryDx=0;entryDy=0;edgeStyle=orthogonalEdgeStyle;movable=1;resizable=1;rotatable=1;deletable=1;editable=1;locked=0;connectable=1;" parent="WIyWlLk6GJQsqaUBKTNV-1" source="ryrtGhmW_Z26ruCLo2IK-98" target="YLLOaxHBiWGZTTnEDzXJ-60" edge="1">
          <mxGeometry width="160" relative="1" as="geometry">
            <mxPoint x="560" y="540" as="sourcePoint" />
            <mxPoint x="720" y="540" as="targetPoint" />
          </mxGeometry>
        </mxCell>
        <mxCell id="ryrtGhmW_Z26ruCLo2IK-87" value="" style="endArrow=open;endFill=1;endSize=12;html=1;rounded=0;exitX=0;exitY=0.5;exitDx=0;exitDy=0;entryX=1;entryY=0.5;entryDx=0;entryDy=0;edgeStyle=orthogonalEdgeStyle;movable=1;resizable=1;rotatable=1;deletable=1;editable=1;locked=0;connectable=1;" parent="WIyWlLk6GJQsqaUBKTNV-1" source="ryrtGhmW_Z26ruCLo2IK-98" target="pjH03qB0m816pcfInYxz-12" edge="1">
          <mxGeometry width="160" relative="1" as="geometry">
            <mxPoint x="540" y="650" as="sourcePoint" />
            <mxPoint x="700" y="650" as="targetPoint" />
            <Array as="points">
              <mxPoint x="640" y="385" />
              <mxPoint x="640" y="650" />
              <mxPoint x="310" y="650" />
              <mxPoint x="310" y="797" />
            </Array>
          </mxGeometry>
        </mxCell>
        <mxCell id="ryrtGhmW_Z26ruCLo2IK-117" value="&amp;lt;&amp;lt;record&amp;gt;&amp;gt;&lt;br&gt;&lt;b&gt;WebSocketConnectionDetails&lt;/b&gt;" style="swimlane;fontStyle=0;align=center;verticalAlign=top;childLayout=stackLayout;horizontal=1;startSize=38;horizontalStack=0;resizeParent=1;resizeParentMax=0;resizeLast=0;collapsible=0;marginBottom=0;html=1;whiteSpace=wrap;movable=1;resizable=1;rotatable=1;deletable=1;editable=1;locked=0;connectable=1;" parent="WIyWlLk6GJQsqaUBKTNV-1" vertex="1">
          <mxGeometry x="47.5" y="720" width="225" height="358" as="geometry" />
        </mxCell>
        <mxCell id="pjH03qB0m816pcfInYxz-11" value="+ Ticket: string?" style="text;strokeColor=none;fillColor=none;align=left;verticalAlign=top;spacingLeft=4;spacingRight=4;overflow=hidden;rotatable=1;points=[[0,0.5],[1,0.5]];portConstraint=eastwest;whiteSpace=wrap;html=1;movable=1;resizable=1;deletable=1;editable=1;locked=0;connectable=1;" parent="ryrtGhmW_Z26ruCLo2IK-117" vertex="1">
          <mxGeometry y="38" width="225" height="26" as="geometry" />
        </mxCell>
        <mxCell id="pjH03qB0m816pcfInYxz-12" value="+ Classifications: List&amp;lt;Classification&amp;gt;" style="text;strokeColor=none;fillColor=none;align=left;verticalAlign=top;spacingLeft=4;spacingRight=4;overflow=hidden;rotatable=1;points=[[0,0.5],[1,0.5]];portConstraint=eastwest;whiteSpace=wrap;html=1;movable=1;resizable=1;deletable=1;editable=1;locked=0;connectable=1;" parent="ryrtGhmW_Z26ruCLo2IK-117" vertex="1">
          <mxGeometry y="64" width="225" height="26" as="geometry" />
        </mxCell>
        <mxCell id="pjH03qB0m816pcfInYxz-13" value="+ Test: TestStatus" style="text;strokeColor=none;fillColor=none;align=left;verticalAlign=top;spacingLeft=4;spacingRight=4;overflow=hidden;rotatable=1;points=[[0,0.5],[1,0.5]];portConstraint=eastwest;whiteSpace=wrap;html=1;movable=1;resizable=1;deletable=1;editable=1;locked=0;connectable=1;" parent="ryrtGhmW_Z26ruCLo2IK-117" vertex="1">
          <mxGeometry y="90" width="225" height="26" as="geometry" />
        </mxCell>
        <mxCell id="pjH03qB0m816pcfInYxz-14" value="+ Types: List&amp;lt;string&amp;gt;?" style="text;strokeColor=none;fillColor=none;align=left;verticalAlign=top;spacingLeft=4;spacingRight=4;overflow=hidden;rotatable=1;points=[[0,0.5],[1,0.5]];portConstraint=eastwest;whiteSpace=wrap;html=1;movable=1;resizable=1;deletable=1;editable=1;locked=0;connectable=1;" parent="ryrtGhmW_Z26ruCLo2IK-117" vertex="1">
          <mxGeometry y="116" width="225" height="26" as="geometry" />
        </mxCell>
        <mxCell id="pjH03qB0m816pcfInYxz-15" value="+ AppName: string?" style="text;strokeColor=none;fillColor=none;align=left;verticalAlign=top;spacingLeft=4;spacingRight=4;overflow=hidden;rotatable=1;points=[[0,0.5],[1,0.5]];portConstraint=eastwest;whiteSpace=wrap;html=1;movable=1;resizable=1;deletable=1;editable=1;locked=0;connectable=1;" parent="ryrtGhmW_Z26ruCLo2IK-117" vertex="1">
          <mxGeometry y="142" width="225" height="26" as="geometry" />
        </mxCell>
        <mxCell id="fulxRrvb7B3gvN_P7Q5q-5" value="+ WebSocketId: int" style="text;strokeColor=none;fillColor=none;align=left;verticalAlign=top;spacingLeft=4;spacingRight=4;overflow=hidden;rotatable=1;points=[[0,0.5],[1,0.5]];portConstraint=eastwest;whiteSpace=wrap;html=1;movable=1;resizable=1;deletable=1;editable=1;locked=0;connectable=1;" parent="ryrtGhmW_Z26ruCLo2IK-117" vertex="1">
          <mxGeometry y="168" width="225" height="26" as="geometry" />
        </mxCell>
        <mxCell id="fulxRrvb7B3gvN_P7Q5q-6" value="+ Start: DateTime" style="text;strokeColor=none;fillColor=none;align=left;verticalAlign=top;spacingLeft=4;spacingRight=4;overflow=hidden;rotatable=1;points=[[0,0.5],[1,0.5]];portConstraint=eastwest;whiteSpace=wrap;html=1;movable=1;resizable=1;deletable=1;editable=1;locked=0;connectable=1;" parent="ryrtGhmW_Z26ruCLo2IK-117" vertex="1">
          <mxGeometry y="194" width="225" height="26" as="geometry" />
        </mxCell>
        <mxCell id="fulxRrvb7B3gvN_P7Q5q-11" value="+ End: DateTime?" style="text;strokeColor=none;fillColor=none;align=left;verticalAlign=top;spacingLeft=4;spacingRight=4;overflow=hidden;rotatable=1;points=[[0,0.5],[1,0.5]];portConstraint=eastwest;whiteSpace=wrap;html=1;movable=1;resizable=1;deletable=1;editable=1;locked=0;connectable=1;" parent="ryrtGhmW_Z26ruCLo2IK-117" vertex="1">
          <mxGeometry y="220" width="225" height="26" as="geometry" />
        </mxCell>
        <mxCell id="fulxRrvb7B3gvN_P7Q5q-10" value="+ Ping: DateTime?" style="text;strokeColor=none;fillColor=none;align=left;verticalAlign=top;spacingLeft=4;spacingRight=4;overflow=hidden;rotatable=1;points=[[0,0.5],[1,0.5]];portConstraint=eastwest;whiteSpace=wrap;html=1;movable=1;resizable=1;deletable=1;editable=1;locked=0;connectable=1;" parent="ryrtGhmW_Z26ruCLo2IK-117" vertex="1">
          <mxGeometry y="246" width="225" height="26" as="geometry" />
        </mxCell>
        <mxCell id="fulxRrvb7B3gvN_P7Q5q-9" value="+ IpAddress: string?" style="text;strokeColor=none;fillColor=none;align=left;verticalAlign=top;spacingLeft=4;spacingRight=4;overflow=hidden;rotatable=1;points=[[0,0.5],[1,0.5]];portConstraint=eastwest;whiteSpace=wrap;html=1;movable=1;resizable=1;deletable=1;editable=1;locked=0;connectable=1;" parent="ryrtGhmW_Z26ruCLo2IK-117" vertex="1">
          <mxGeometry y="272" width="225" height="26" as="geometry" />
        </mxCell>
        <mxCell id="fulxRrvb7B3gvN_P7Q5q-8" value="+ ServerLocation: string" style="text;strokeColor=none;fillColor=none;align=left;verticalAlign=top;spacingLeft=4;spacingRight=4;overflow=hidden;rotatable=1;points=[[0,0.5],[1,0.5]];portConstraint=eastwest;whiteSpace=wrap;html=1;movable=1;resizable=1;deletable=1;editable=1;locked=0;connectable=1;" parent="ryrtGhmW_Z26ruCLo2IK-117" vertex="1">
          <mxGeometry y="298" width="225" height="26" as="geometry" />
        </mxCell>
        <mxCell id="fulxRrvb7B3gvN_P7Q5q-7" value="+ ConnectionStatus: WebSocketStatus" style="text;strokeColor=none;fillColor=none;align=left;verticalAlign=top;spacingLeft=4;spacingRight=4;overflow=hidden;rotatable=1;points=[[0,0.5],[1,0.5]];portConstraint=eastwest;whiteSpace=wrap;html=1;movable=1;resizable=1;deletable=1;editable=1;locked=0;connectable=1;" parent="ryrtGhmW_Z26ruCLo2IK-117" vertex="1">
          <mxGeometry y="324" width="225" height="26" as="geometry" />
        </mxCell>
        <mxCell id="ryrtGhmW_Z26ruCLo2IK-125" value="" style="line;strokeWidth=1;fillColor=none;align=left;verticalAlign=middle;spacingTop=-1;spacingLeft=3;spacingRight=3;rotatable=1;labelPosition=right;points=[];portConstraint=eastwest;movable=1;resizable=1;deletable=1;editable=1;locked=0;connectable=1;" parent="ryrtGhmW_Z26ruCLo2IK-117" vertex="1">
          <mxGeometry y="350" width="225" height="8" as="geometry" />
        </mxCell>
        <mxCell id="ryrtGhmW_Z26ruCLo2IK-126" value="&amp;lt;&amp;lt;record class&amp;gt;&amp;gt;&lt;br&gt;&lt;b&gt;WebSocketUrl&lt;/b&gt;" style="swimlane;fontStyle=0;align=center;verticalAlign=top;childLayout=stackLayout;horizontal=1;startSize=38;horizontalStack=0;resizeParent=1;resizeParentMax=0;resizeLast=0;collapsible=0;marginBottom=0;html=1;whiteSpace=wrap;movable=1;resizable=1;rotatable=1;deletable=1;editable=1;locked=0;connectable=1;" parent="WIyWlLk6GJQsqaUBKTNV-1" vertex="1">
          <mxGeometry x="510" y="990" width="180" height="150" as="geometry" />
        </mxCell>
        <mxCell id="ryrtGhmW_Z26ruCLo2IK-127" value="+ WebSocketId: int" style="text;strokeColor=none;fillColor=none;align=left;verticalAlign=top;spacingLeft=4;spacingRight=4;overflow=hidden;rotatable=1;points=[[0,0.5],[1,0.5]];portConstraint=eastwest;whiteSpace=wrap;html=1;movable=1;resizable=1;deletable=1;editable=1;locked=0;connectable=1;" parent="ryrtGhmW_Z26ruCLo2IK-126" vertex="1">
          <mxGeometry y="38" width="180" height="26" as="geometry" />
        </mxCell>
        <mxCell id="ryrtGhmW_Z26ruCLo2IK-128" value="+ Url: string" style="text;strokeColor=none;fillColor=none;align=left;verticalAlign=top;spacingLeft=4;spacingRight=4;overflow=hidden;rotatable=1;points=[[0,0.5],[1,0.5]];portConstraint=eastwest;whiteSpace=wrap;html=1;movable=1;resizable=1;deletable=1;editable=1;locked=0;connectable=1;" parent="ryrtGhmW_Z26ruCLo2IK-126" vertex="1">
          <mxGeometry y="64" width="180" height="26" as="geometry" />
        </mxCell>
        <mxCell id="ryrtGhmW_Z26ruCLo2IK-129" value="+ Protocol: string = &quot;dmdata.v2&quot;" style="text;strokeColor=none;fillColor=none;align=left;verticalAlign=top;spacingLeft=4;spacingRight=4;overflow=hidden;rotatable=1;points=[[0,0.5],[1,0.5]];portConstraint=eastwest;whiteSpace=wrap;html=1;movable=1;resizable=1;deletable=1;editable=1;locked=0;connectable=1;" parent="ryrtGhmW_Z26ruCLo2IK-126" vertex="1">
          <mxGeometry y="90" width="180" height="26" as="geometry" />
        </mxCell>
        <mxCell id="ryrtGhmW_Z26ruCLo2IK-130" value="+ Expiration: int" style="text;strokeColor=none;fillColor=none;align=left;verticalAlign=top;spacingLeft=4;spacingRight=4;overflow=hidden;rotatable=1;points=[[0,0.5],[1,0.5]];portConstraint=eastwest;whiteSpace=wrap;html=1;movable=1;resizable=1;deletable=1;editable=1;locked=0;connectable=1;" parent="ryrtGhmW_Z26ruCLo2IK-126" vertex="1">
          <mxGeometry y="116" width="180" height="26" as="geometry" />
        </mxCell>
        <mxCell id="ryrtGhmW_Z26ruCLo2IK-133" value="" style="line;strokeWidth=1;fillColor=none;align=left;verticalAlign=middle;spacingTop=-1;spacingLeft=3;spacingRight=3;rotatable=1;labelPosition=right;points=[];portConstraint=eastwest;movable=1;resizable=1;deletable=1;editable=1;locked=0;connectable=1;" parent="ryrtGhmW_Z26ruCLo2IK-126" vertex="1">
          <mxGeometry y="142" width="180" height="8" as="geometry" />
        </mxCell>
        <mxCell id="fulxRrvb7B3gvN_P7Q5q-0" value="" style="endArrow=diamondThin;endFill=1;endSize=24;html=1;rounded=0;exitX=1;exitY=0.25;exitDx=0;exitDy=0;edgeStyle=orthogonalEdgeStyle;entryX=0;entryY=0.5;entryDx=0;entryDy=0;movable=1;resizable=1;rotatable=1;deletable=1;editable=1;locked=0;connectable=1;" parent="WIyWlLk6GJQsqaUBKTNV-1" source="YLLOaxHBiWGZTTnEDzXJ-171" target="YLLOaxHBiWGZTTnEDzXJ-59" edge="1">
          <mxGeometry width="160" relative="1" as="geometry">
            <mxPoint x="330" y="780" as="sourcePoint" />
            <mxPoint x="490" y="780" as="targetPoint" />
            <Array as="points">
              <mxPoint x="390" y="545" />
              <mxPoint x="390" y="535" />
            </Array>
          </mxGeometry>
        </mxCell>
        <mxCell id="fulxRrvb7B3gvN_P7Q5q-24" value="&amp;lt;&amp;lt;record&amp;gt;&amp;gt;&lt;br&gt;&lt;b&gt;WebSocketStartPost&lt;/b&gt;" style="swimlane;fontStyle=0;align=center;verticalAlign=top;childLayout=stackLayout;horizontal=1;startSize=38;horizontalStack=0;resizeParent=1;resizeParentMax=0;resizeLast=0;collapsible=0;marginBottom=0;html=1;whiteSpace=wrap;movable=1;resizable=1;rotatable=1;deletable=1;editable=1;locked=0;connectable=1;" parent="WIyWlLk6GJQsqaUBKTNV-1" vertex="1">
          <mxGeometry x="880" y="10" width="210" height="176" as="geometry" />
        </mxCell>
        <mxCell id="fulxRrvb7B3gvN_P7Q5q-25" value="+ Classifications: List&amp;lt;Classification&amp;gt;" style="text;strokeColor=none;fillColor=none;align=left;verticalAlign=top;spacingLeft=4;spacingRight=4;overflow=hidden;rotatable=1;points=[[0,0.5],[1,0.5]];portConstraint=eastwest;whiteSpace=wrap;html=1;movable=1;resizable=1;deletable=1;editable=1;locked=0;connectable=1;" parent="fulxRrvb7B3gvN_P7Q5q-24" vertex="1">
          <mxGeometry y="38" width="210" height="26" as="geometry" />
        </mxCell>
        <mxCell id="fulxRrvb7B3gvN_P7Q5q-26" value="+ Types: List&amp;lt;string&amp;gt;?" style="text;strokeColor=none;fillColor=none;align=left;verticalAlign=top;spacingLeft=4;spacingRight=4;overflow=hidden;rotatable=1;points=[[0,0.5],[1,0.5]];portConstraint=eastwest;whiteSpace=wrap;html=1;movable=1;resizable=1;deletable=1;editable=1;locked=0;connectable=1;" parent="fulxRrvb7B3gvN_P7Q5q-24" vertex="1">
          <mxGeometry y="64" width="210" height="26" as="geometry" />
        </mxCell>
        <mxCell id="fulxRrvb7B3gvN_P7Q5q-27" value="+ TestStatus: TestStatus?" style="text;strokeColor=none;fillColor=none;align=left;verticalAlign=top;spacingLeft=4;spacingRight=4;overflow=hidden;rotatable=1;points=[[0,0.5],[1,0.5]];portConstraint=eastwest;whiteSpace=wrap;html=1;movable=1;resizable=1;deletable=1;editable=1;locked=0;connectable=1;" parent="fulxRrvb7B3gvN_P7Q5q-24" vertex="1">
          <mxGeometry y="90" width="210" height="26" as="geometry" />
        </mxCell>
        <mxCell id="fulxRrvb7B3gvN_P7Q5q-28" value="+ AppName: string?" style="text;strokeColor=none;fillColor=none;align=left;verticalAlign=top;spacingLeft=4;spacingRight=4;overflow=hidden;rotatable=1;points=[[0,0.5],[1,0.5]];portConstraint=eastwest;whiteSpace=wrap;html=1;movable=1;resizable=1;deletable=1;editable=1;locked=0;connectable=1;" parent="fulxRrvb7B3gvN_P7Q5q-24" vertex="1">
          <mxGeometry y="116" width="210" height="26" as="geometry" />
        </mxCell>
        <mxCell id="fulxRrvb7B3gvN_P7Q5q-30" value="+ FormatMode: FormatMode?" style="text;strokeColor=none;fillColor=none;align=left;verticalAlign=top;spacingLeft=4;spacingRight=4;overflow=hidden;rotatable=1;points=[[0,0.5],[1,0.5]];portConstraint=eastwest;whiteSpace=wrap;html=1;movable=1;resizable=1;deletable=1;editable=1;locked=0;connectable=1;" parent="fulxRrvb7B3gvN_P7Q5q-24" vertex="1">
          <mxGeometry y="142" width="210" height="26" as="geometry" />
        </mxCell>
        <mxCell id="fulxRrvb7B3gvN_P7Q5q-29" value="" style="line;strokeWidth=1;fillColor=none;align=left;verticalAlign=middle;spacingTop=-1;spacingLeft=3;spacingRight=3;rotatable=1;labelPosition=right;points=[];portConstraint=eastwest;movable=1;resizable=1;deletable=1;editable=1;locked=0;connectable=1;" parent="fulxRrvb7B3gvN_P7Q5q-24" vertex="1">
          <mxGeometry y="168" width="210" height="8" as="geometry" />
        </mxCell>
        <mxCell id="fulxRrvb7B3gvN_P7Q5q-31" value="" style="endArrow=open;endFill=1;endSize=12;html=1;rounded=0;exitX=1;exitY=0.5;exitDx=0;exitDy=0;entryX=0;entryY=0.5;entryDx=0;entryDy=0;edgeStyle=orthogonalEdgeStyle;movable=1;resizable=1;rotatable=1;deletable=1;editable=1;locked=0;connectable=1;" parent="WIyWlLk6GJQsqaUBKTNV-1" source="YLLOaxHBiWGZTTnEDzXJ-79" target="fulxRrvb7B3gvN_P7Q5q-25" edge="1">
          <mxGeometry width="160" relative="1" as="geometry">
            <mxPoint x="560" y="700" as="sourcePoint" />
            <mxPoint x="720" y="700" as="targetPoint" />
            <Array as="points">
              <mxPoint x="830" y="496" />
              <mxPoint x="830" y="61" />
            </Array>
          </mxGeometry>
        </mxCell>
        <mxCell id="fulxRrvb7B3gvN_P7Q5q-32" value="&amp;lt;&amp;lt;enumeration&amp;gt;&amp;gt;&lt;br&gt;&lt;b&gt;TestStatus&lt;/b&gt;" style="swimlane;fontStyle=0;align=center;verticalAlign=top;childLayout=stackLayout;horizontal=1;startSize=40;horizontalStack=0;resizeParent=1;resizeParentMax=0;resizeLast=0;collapsible=0;marginBottom=0;html=1;whiteSpace=wrap;movable=1;resizable=1;rotatable=1;deletable=1;editable=1;locked=0;connectable=1;" parent="WIyWlLk6GJQsqaUBKTNV-1" vertex="1">
          <mxGeometry x="700" y="790" width="120" height="118" as="geometry" />
        </mxCell>
        <mxCell id="fulxRrvb7B3gvN_P7Q5q-33" value="Unknown" style="text;strokeColor=none;fillColor=none;align=left;verticalAlign=top;spacingLeft=4;spacingRight=4;overflow=hidden;rotatable=1;points=[[0,0.5],[1,0.5]];portConstraint=eastwest;whiteSpace=wrap;html=1;movable=1;resizable=1;deletable=1;editable=1;locked=0;connectable=1;" parent="fulxRrvb7B3gvN_P7Q5q-32" vertex="1">
          <mxGeometry y="40" width="120" height="26" as="geometry" />
        </mxCell>
        <mxCell id="pjH03qB0m816pcfInYxz-4" value="Include" style="text;strokeColor=none;fillColor=none;align=left;verticalAlign=top;spacingLeft=4;spacingRight=4;overflow=hidden;rotatable=1;points=[[0,0.5],[1,0.5]];portConstraint=eastwest;whiteSpace=wrap;html=1;movable=1;resizable=1;deletable=1;editable=1;locked=0;connectable=1;" parent="fulxRrvb7B3gvN_P7Q5q-32" vertex="1">
          <mxGeometry y="66" width="120" height="26" as="geometry" />
        </mxCell>
        <mxCell id="fulxRrvb7B3gvN_P7Q5q-34" value="Exclude" style="text;strokeColor=none;fillColor=none;align=left;verticalAlign=top;spacingLeft=4;spacingRight=4;overflow=hidden;rotatable=1;points=[[0,0.5],[1,0.5]];portConstraint=eastwest;whiteSpace=wrap;html=1;movable=1;resizable=1;deletable=1;editable=1;locked=0;connectable=1;" parent="fulxRrvb7B3gvN_P7Q5q-32" vertex="1">
          <mxGeometry y="92" width="120" height="26" as="geometry" />
        </mxCell>
        <mxCell id="fulxRrvb7B3gvN_P7Q5q-35" value="" style="endArrow=open;endFill=1;endSize=12;html=1;rounded=0;exitX=0;exitY=0.5;exitDx=0;exitDy=0;edgeStyle=orthogonalEdgeStyle;entryX=1;entryY=0.5;entryDx=0;entryDy=0;movable=1;resizable=1;rotatable=1;deletable=1;editable=1;locked=0;connectable=1;" parent="WIyWlLk6GJQsqaUBKTNV-1" source="fulxRrvb7B3gvN_P7Q5q-33" target="pjH03qB0m816pcfInYxz-13" edge="1">
          <mxGeometry width="160" relative="1" as="geometry">
            <mxPoint x="560" y="940" as="sourcePoint" />
            <mxPoint x="630" y="880" as="targetPoint" />
            <Array as="points">
              <mxPoint x="650" y="843" />
              <mxPoint x="650" y="940" />
              <mxPoint x="330" y="940" />
              <mxPoint x="330" y="823" />
            </Array>
          </mxGeometry>
        </mxCell>
        <mxCell id="fulxRrvb7B3gvN_P7Q5q-36" value="" style="endArrow=open;endFill=1;endSize=12;html=1;rounded=0;entryX=0;entryY=0.5;entryDx=0;entryDy=0;exitX=1;exitY=0.5;exitDx=0;exitDy=0;edgeStyle=orthogonalEdgeStyle;movable=1;resizable=1;rotatable=1;deletable=1;editable=1;locked=0;connectable=1;" parent="WIyWlLk6GJQsqaUBKTNV-1" source="fulxRrvb7B3gvN_P7Q5q-33" target="fulxRrvb7B3gvN_P7Q5q-27" edge="1">
          <mxGeometry width="160" relative="1" as="geometry">
            <mxPoint x="560" y="530" as="sourcePoint" />
            <mxPoint x="720" y="530" as="targetPoint" />
            <Array as="points">
              <mxPoint x="850" y="843" />
              <mxPoint x="850" y="113" />
            </Array>
          </mxGeometry>
        </mxCell>
        <mxCell id="fulxRrvb7B3gvN_P7Q5q-38" value="&amp;lt;&amp;lt;enumeration&amp;gt;&amp;gt;&lt;br&gt;&lt;b&gt;FormatMode&lt;/b&gt;" style="swimlane;fontStyle=0;align=center;verticalAlign=top;childLayout=stackLayout;horizontal=1;startSize=40;horizontalStack=0;resizeParent=1;resizeParentMax=0;resizeLast=0;collapsible=0;marginBottom=0;html=1;whiteSpace=wrap;movable=1;resizable=1;rotatable=1;deletable=1;editable=1;locked=0;connectable=1;" parent="WIyWlLk6GJQsqaUBKTNV-1" vertex="1">
          <mxGeometry x="1140" y="10" width="120" height="122" as="geometry" />
        </mxCell>
        <mxCell id="pjH03qB0m816pcfInYxz-5" value="Unknown" style="text;strokeColor=none;fillColor=none;align=left;verticalAlign=top;spacingLeft=4;spacingRight=4;overflow=hidden;rotatable=1;points=[[0,0.5],[1,0.5]];portConstraint=eastwest;whiteSpace=wrap;html=1;movable=1;resizable=1;deletable=1;editable=1;locked=0;connectable=1;" parent="fulxRrvb7B3gvN_P7Q5q-38" vertex="1">
          <mxGeometry y="40" width="120" height="26" as="geometry" />
        </mxCell>
        <mxCell id="fulxRrvb7B3gvN_P7Q5q-39" value="Raw" style="text;strokeColor=none;fillColor=none;align=left;verticalAlign=top;spacingLeft=4;spacingRight=4;overflow=hidden;rotatable=1;points=[[0,0.5],[1,0.5]];portConstraint=eastwest;whiteSpace=wrap;html=1;movable=1;resizable=1;deletable=1;editable=1;locked=0;connectable=1;" parent="fulxRrvb7B3gvN_P7Q5q-38" vertex="1">
          <mxGeometry y="66" width="120" height="26" as="geometry" />
        </mxCell>
        <mxCell id="fulxRrvb7B3gvN_P7Q5q-42" value="Json" style="text;html=1;strokeColor=none;fillColor=none;align=left;verticalAlign=middle;spacingLeft=4;spacingRight=4;overflow=hidden;rotatable=1;points=[[0,0.5],[1,0.5]];portConstraint=eastwest;whiteSpace=wrap;movable=1;resizable=1;deletable=1;editable=1;locked=0;connectable=1;" parent="fulxRrvb7B3gvN_P7Q5q-38" vertex="1">
          <mxGeometry y="92" width="120" height="30" as="geometry" />
        </mxCell>
        <mxCell id="fulxRrvb7B3gvN_P7Q5q-44" value="" style="endArrow=open;endFill=1;endSize=12;html=1;rounded=0;exitX=0;exitY=0.5;exitDx=0;exitDy=0;entryX=1;entryY=0.5;entryDx=0;entryDy=0;edgeStyle=orthogonalEdgeStyle;movable=1;resizable=1;rotatable=1;deletable=1;editable=1;locked=0;connectable=1;" parent="WIyWlLk6GJQsqaUBKTNV-1" source="fulxRrvb7B3gvN_P7Q5q-38" target="fulxRrvb7B3gvN_P7Q5q-30" edge="1">
          <mxGeometry width="160" relative="1" as="geometry">
            <mxPoint x="740" y="530" as="sourcePoint" />
            <mxPoint x="900" y="530" as="targetPoint" />
          </mxGeometry>
        </mxCell>
        <mxCell id="fulxRrvb7B3gvN_P7Q5q-45" value="&amp;lt;&amp;lt;record&amp;gt;&amp;gt;&lt;br&gt;&lt;b&gt;WebSocketStartResponse&lt;/b&gt;" style="swimlane;fontStyle=0;align=center;verticalAlign=top;childLayout=stackLayout;horizontal=1;startSize=38;horizontalStack=0;resizeParent=1;resizeParentMax=0;resizeLast=0;collapsible=0;marginBottom=0;html=1;whiteSpace=wrap;movable=1;resizable=1;rotatable=1;deletable=1;editable=1;locked=0;connectable=1;" parent="WIyWlLk6GJQsqaUBKTNV-1" vertex="1">
          <mxGeometry x="350" y="680" width="210" height="228" as="geometry" />
        </mxCell>
        <mxCell id="ryrtGhmW_Z26ruCLo2IK-2" value="+ Ticket: string" style="text;strokeColor=none;fillColor=none;align=left;verticalAlign=top;spacingLeft=4;spacingRight=4;overflow=hidden;rotatable=1;points=[[0,0.5],[1,0.5]];portConstraint=eastwest;whiteSpace=wrap;html=1;movable=1;resizable=1;deletable=1;editable=1;locked=0;connectable=1;" parent="fulxRrvb7B3gvN_P7Q5q-45" vertex="1">
          <mxGeometry y="38" width="210" height="26" as="geometry" />
        </mxCell>
        <mxCell id="ryrtGhmW_Z26ruCLo2IK-3" value="+ Classifications: List&amp;lt;Classification&amp;gt;" style="text;strokeColor=none;fillColor=none;align=left;verticalAlign=top;spacingLeft=4;spacingRight=4;overflow=hidden;rotatable=1;points=[[0,0.5],[1,0.5]];portConstraint=eastwest;whiteSpace=wrap;html=1;movable=1;resizable=1;deletable=1;editable=1;locked=0;connectable=1;" parent="fulxRrvb7B3gvN_P7Q5q-45" vertex="1">
          <mxGeometry y="64" width="210" height="26" as="geometry" />
        </mxCell>
        <mxCell id="ryrtGhmW_Z26ruCLo2IK-4" value="+ Test: TestStatus" style="text;strokeColor=none;fillColor=none;align=left;verticalAlign=top;spacingLeft=4;spacingRight=4;overflow=hidden;rotatable=1;points=[[0,0.5],[1,0.5]];portConstraint=eastwest;whiteSpace=wrap;html=1;movable=1;resizable=1;deletable=1;editable=1;locked=0;connectable=1;" parent="fulxRrvb7B3gvN_P7Q5q-45" vertex="1">
          <mxGeometry y="90" width="210" height="26" as="geometry" />
        </mxCell>
        <mxCell id="ryrtGhmW_Z26ruCLo2IK-5" value="+ Types: List&amp;lt;string&amp;gt;?" style="text;strokeColor=none;fillColor=none;align=left;verticalAlign=top;spacingLeft=4;spacingRight=4;overflow=hidden;rotatable=1;points=[[0,0.5],[1,0.5]];portConstraint=eastwest;whiteSpace=wrap;html=1;movable=1;resizable=1;deletable=1;editable=1;locked=0;connectable=1;" parent="fulxRrvb7B3gvN_P7Q5q-45" vertex="1">
          <mxGeometry y="116" width="210" height="26" as="geometry" />
        </mxCell>
        <mxCell id="ryrtGhmW_Z26ruCLo2IK-6" value="+ Formats: List&amp;lt;FormatType&amp;gt;" style="text;strokeColor=none;fillColor=none;align=left;verticalAlign=top;spacingLeft=4;spacingRight=4;overflow=hidden;rotatable=1;points=[[0,0.5],[1,0.5]];portConstraint=eastwest;whiteSpace=wrap;html=1;movable=1;resizable=1;deletable=1;editable=1;locked=0;connectable=1;" parent="fulxRrvb7B3gvN_P7Q5q-45" vertex="1">
          <mxGeometry y="142" width="210" height="26" as="geometry" />
        </mxCell>
        <mxCell id="ryrtGhmW_Z26ruCLo2IK-7" value="+ AppName: string?" style="text;strokeColor=none;fillColor=none;align=left;verticalAlign=top;spacingLeft=4;spacingRight=4;overflow=hidden;rotatable=1;points=[[0,0.5],[1,0.5]];portConstraint=eastwest;whiteSpace=wrap;html=1;movable=1;resizable=1;deletable=1;editable=1;locked=0;connectable=1;" parent="fulxRrvb7B3gvN_P7Q5q-45" vertex="1">
          <mxGeometry y="168" width="210" height="26" as="geometry" />
        </mxCell>
        <mxCell id="fulxRrvb7B3gvN_P7Q5q-55" value="+ WebSocket: WebSocketUrl" style="text;strokeColor=none;fillColor=none;align=left;verticalAlign=top;spacingLeft=4;spacingRight=4;overflow=hidden;rotatable=1;points=[[0,0.5],[1,0.5]];portConstraint=eastwest;whiteSpace=wrap;html=1;movable=1;resizable=1;deletable=1;editable=1;locked=0;connectable=1;" parent="fulxRrvb7B3gvN_P7Q5q-45" vertex="1">
          <mxGeometry y="194" width="210" height="26" as="geometry" />
        </mxCell>
        <mxCell id="fulxRrvb7B3gvN_P7Q5q-51" value="" style="line;strokeWidth=1;fillColor=none;align=left;verticalAlign=middle;spacingTop=-1;spacingLeft=3;spacingRight=3;rotatable=1;labelPosition=right;points=[];portConstraint=eastwest;movable=1;resizable=1;deletable=1;editable=1;locked=0;connectable=1;" parent="fulxRrvb7B3gvN_P7Q5q-45" vertex="1">
          <mxGeometry y="220" width="210" height="8" as="geometry" />
        </mxCell>
        <mxCell id="fulxRrvb7B3gvN_P7Q5q-54" value="" style="endArrow=block;endSize=16;endFill=0;html=1;rounded=0;exitX=0.5;exitY=0;exitDx=0;exitDy=0;entryX=0.5;entryY=1;entryDx=0;entryDy=0;edgeStyle=orthogonalEdgeStyle;movable=1;resizable=1;rotatable=1;deletable=1;editable=1;locked=0;connectable=1;" parent="WIyWlLk6GJQsqaUBKTNV-1" source="fulxRrvb7B3gvN_P7Q5q-45" target="YLLOaxHBiWGZTTnEDzXJ-142" edge="1">
          <mxGeometry width="160" relative="1" as="geometry">
            <mxPoint x="920" y="290" as="sourcePoint" />
            <mxPoint x="1080" y="290" as="targetPoint" />
            <Array as="points">
              <mxPoint x="455" y="670" />
              <mxPoint x="660" y="670" />
              <mxPoint x="660" y="280" />
              <mxPoint x="540" y="280" />
            </Array>
            <mxPoint as="offset" />
          </mxGeometry>
        </mxCell>
        <mxCell id="fulxRrvb7B3gvN_P7Q5q-57" value="" style="endArrow=diamondThin;endFill=1;endSize=24;html=1;rounded=0;entryX=1;entryY=0.5;entryDx=0;entryDy=0;edgeStyle=orthogonalEdgeStyle;exitX=0.5;exitY=0;exitDx=0;exitDy=0;movable=1;resizable=1;rotatable=1;deletable=1;editable=1;locked=0;connectable=1;" parent="WIyWlLk6GJQsqaUBKTNV-1" source="ryrtGhmW_Z26ruCLo2IK-126" target="fulxRrvb7B3gvN_P7Q5q-55" edge="1">
          <mxGeometry width="160" relative="1" as="geometry">
            <mxPoint x="1210" y="210" as="sourcePoint" />
            <mxPoint x="1220" y="340" as="targetPoint" />
            <Array as="points">
              <mxPoint x="600" y="990" />
              <mxPoint x="600" y="887" />
            </Array>
          </mxGeometry>
        </mxCell>
        <mxCell id="WJyoysQiN_B3ne-0Ys_C-0" value="&amp;lt;&amp;lt;record&amp;gt;&amp;gt;&lt;br&gt;&lt;b&gt;EarthquakeStation&lt;/b&gt;" style="swimlane;fontStyle=0;align=center;verticalAlign=top;childLayout=stackLayout;horizontal=1;startSize=38;horizontalStack=0;resizeParent=1;resizeParentMax=0;resizeLast=0;collapsible=0;marginBottom=0;html=1;whiteSpace=wrap;movable=1;resizable=1;rotatable=1;deletable=1;editable=1;locked=0;connectable=1;" parent="WIyWlLk6GJQsqaUBKTNV-1" vertex="1">
          <mxGeometry x="880" y="432" width="190" height="306" as="geometry" />
        </mxCell>
        <mxCell id="WJyoysQiN_B3ne-0Ys_C-37" value="+ Region: Position" style="text;strokeColor=none;fillColor=none;align=left;verticalAlign=top;spacingLeft=4;spacingRight=4;overflow=hidden;rotatable=1;points=[[0,0.5],[1,0.5]];portConstraint=eastwest;whiteSpace=wrap;html=1;movable=1;resizable=1;deletable=1;editable=1;locked=0;connectable=1;" parent="WJyoysQiN_B3ne-0Ys_C-0" vertex="1">
          <mxGeometry y="38" width="190" height="26" as="geometry" />
        </mxCell>
        <mxCell id="WJyoysQiN_B3ne-0Ys_C-38" value="+ City: Position" style="text;strokeColor=none;fillColor=none;align=left;verticalAlign=top;spacingLeft=4;spacingRight=4;overflow=hidden;rotatable=1;points=[[0,0.5],[1,0.5]];portConstraint=eastwest;whiteSpace=wrap;html=1;movable=1;resizable=1;deletable=1;editable=1;locked=0;connectable=1;" parent="WJyoysQiN_B3ne-0Ys_C-0" vertex="1">
          <mxGeometry y="64" width="190" height="26" as="geometry" />
        </mxCell>
        <mxCell id="WJyoysQiN_B3ne-0Ys_C-1" value="+ NoCode: string" style="text;strokeColor=none;fillColor=none;align=left;verticalAlign=top;spacingLeft=4;spacingRight=4;overflow=hidden;rotatable=1;points=[[0,0.5],[1,0.5]];portConstraint=eastwest;whiteSpace=wrap;html=1;movable=1;resizable=1;deletable=1;editable=1;locked=0;connectable=1;" parent="WJyoysQiN_B3ne-0Ys_C-0" vertex="1">
          <mxGeometry y="90" width="190" height="26" as="geometry" />
        </mxCell>
        <mxCell id="WJyoysQiN_B3ne-0Ys_C-2" value="+ XmlCode: string" style="text;strokeColor=none;fillColor=none;align=left;verticalAlign=top;spacingLeft=4;spacingRight=4;overflow=hidden;rotatable=1;points=[[0,0.5],[1,0.5]];portConstraint=eastwest;whiteSpace=wrap;html=1;movable=1;resizable=1;deletable=1;editable=1;locked=0;connectable=1;" parent="WJyoysQiN_B3ne-0Ys_C-0" vertex="1">
          <mxGeometry y="116" width="190" height="26" as="geometry" />
        </mxCell>
        <mxCell id="WJyoysQiN_B3ne-0Ys_C-28" value="+ KanjiName: string" style="text;strokeColor=none;fillColor=none;align=left;verticalAlign=top;spacingLeft=4;spacingRight=4;overflow=hidden;rotatable=1;points=[[0,0.5],[1,0.5]];portConstraint=eastwest;whiteSpace=wrap;html=1;movable=1;resizable=1;deletable=1;editable=1;locked=0;connectable=1;" parent="WJyoysQiN_B3ne-0Ys_C-0" vertex="1">
          <mxGeometry y="142" width="190" height="26" as="geometry" />
        </mxCell>
        <mxCell id="WJyoysQiN_B3ne-0Ys_C-29" value="+ KanaName: string" style="text;strokeColor=none;fillColor=none;align=left;verticalAlign=top;spacingLeft=4;spacingRight=4;overflow=hidden;rotatable=1;points=[[0,0.5],[1,0.5]];portConstraint=eastwest;whiteSpace=wrap;html=1;movable=1;resizable=1;deletable=1;editable=1;locked=0;connectable=1;" parent="WJyoysQiN_B3ne-0Ys_C-0" vertex="1">
          <mxGeometry y="168" width="190" height="26" as="geometry" />
        </mxCell>
        <mxCell id="WJyoysQiN_B3ne-0Ys_C-33" value="+ StationStatus: StationStatus" style="text;strokeColor=none;fillColor=none;align=left;verticalAlign=top;spacingLeft=4;spacingRight=4;overflow=hidden;rotatable=1;points=[[0,0.5],[1,0.5]];portConstraint=eastwest;whiteSpace=wrap;html=1;movable=1;resizable=1;deletable=1;editable=1;locked=0;connectable=1;" parent="WJyoysQiN_B3ne-0Ys_C-0" vertex="1">
          <mxGeometry y="194" width="190" height="26" as="geometry" />
        </mxCell>
        <mxCell id="WJyoysQiN_B3ne-0Ys_C-43" value="+ Owner: string" style="text;strokeColor=none;fillColor=none;align=left;verticalAlign=top;spacingLeft=4;spacingRight=4;overflow=hidden;rotatable=1;points=[[0,0.5],[1,0.5]];portConstraint=eastwest;whiteSpace=wrap;html=1;movable=1;resizable=1;deletable=1;editable=1;locked=0;connectable=1;" parent="WJyoysQiN_B3ne-0Ys_C-0" vertex="1">
          <mxGeometry y="220" width="190" height="26" as="geometry" />
        </mxCell>
        <mxCell id="WJyoysQiN_B3ne-0Ys_C-51" value="+ Latitude: double" style="text;strokeColor=none;fillColor=none;align=left;verticalAlign=top;spacingLeft=4;spacingRight=4;overflow=hidden;rotatable=1;points=[[0,0.5],[1,0.5]];portConstraint=eastwest;whiteSpace=wrap;html=1;movable=1;resizable=1;deletable=1;editable=1;locked=0;connectable=1;" parent="WJyoysQiN_B3ne-0Ys_C-0" vertex="1">
          <mxGeometry y="246" width="190" height="26" as="geometry" />
        </mxCell>
        <mxCell id="WJyoysQiN_B3ne-0Ys_C-52" value="+ Longitude: double" style="text;strokeColor=none;fillColor=none;align=left;verticalAlign=top;spacingLeft=4;spacingRight=4;overflow=hidden;rotatable=1;points=[[0,0.5],[1,0.5]];portConstraint=eastwest;whiteSpace=wrap;html=1;movable=1;resizable=1;deletable=1;editable=1;locked=0;connectable=1;" parent="WJyoysQiN_B3ne-0Ys_C-0" vertex="1">
          <mxGeometry y="272" width="190" height="26" as="geometry" />
        </mxCell>
        <mxCell id="WJyoysQiN_B3ne-0Ys_C-9" value="" style="line;strokeWidth=1;fillColor=none;align=left;verticalAlign=middle;spacingTop=-1;spacingLeft=3;spacingRight=3;rotatable=1;labelPosition=right;points=[];portConstraint=eastwest;movable=1;resizable=1;deletable=1;editable=1;locked=0;connectable=1;" parent="WJyoysQiN_B3ne-0Ys_C-0" vertex="1">
          <mxGeometry y="298" width="190" height="8" as="geometry" />
        </mxCell>
        <mxCell id="WJyoysQiN_B3ne-0Ys_C-10" value="&amp;lt;&amp;lt;record&amp;gt;&amp;gt;&lt;b&gt;&lt;br&gt;EarthquakeParameter&lt;/b&gt;" style="swimlane;fontStyle=0;align=center;verticalAlign=top;childLayout=stackLayout;horizontal=1;startSize=39;horizontalStack=0;resizeParent=1;resizeParentMax=0;resizeLast=0;collapsible=0;marginBottom=0;html=1;whiteSpace=wrap;movable=1;resizable=1;rotatable=1;deletable=1;editable=1;locked=0;connectable=1;" parent="WIyWlLk6GJQsqaUBKTNV-1" vertex="1">
          <mxGeometry x="895" y="291" width="160" height="99" as="geometry" />
        </mxCell>
        <mxCell id="WJyoysQiN_B3ne-0Ys_C-11" value="+ ChangeTime: DateTime" style="text;strokeColor=none;fillColor=none;align=left;verticalAlign=top;spacingLeft=4;spacingRight=4;overflow=hidden;rotatable=1;points=[[0,0.5],[1,0.5]];portConstraint=eastwest;whiteSpace=wrap;html=1;movable=1;resizable=1;deletable=1;editable=1;locked=0;connectable=1;" parent="WJyoysQiN_B3ne-0Ys_C-10" vertex="1">
          <mxGeometry y="39" width="160" height="26" as="geometry" />
        </mxCell>
        <mxCell id="WJyoysQiN_B3ne-0Ys_C-13" value="+ Version: string" style="text;strokeColor=none;fillColor=none;align=left;verticalAlign=top;spacingLeft=4;spacingRight=4;overflow=hidden;rotatable=1;points=[[0,0.5],[1,0.5]];portConstraint=eastwest;whiteSpace=wrap;html=1;movable=1;resizable=1;deletable=1;editable=1;locked=0;connectable=1;" parent="WJyoysQiN_B3ne-0Ys_C-10" vertex="1">
          <mxGeometry y="65" width="160" height="26" as="geometry" />
        </mxCell>
        <mxCell id="WJyoysQiN_B3ne-0Ys_C-12" value="" style="line;strokeWidth=1;fillColor=none;align=left;verticalAlign=middle;spacingTop=-1;spacingLeft=3;spacingRight=3;rotatable=1;labelPosition=right;points=[];portConstraint=eastwest;movable=1;resizable=1;deletable=1;editable=1;locked=0;connectable=1;" parent="WJyoysQiN_B3ne-0Ys_C-10" vertex="1">
          <mxGeometry y="91" width="160" height="8" as="geometry" />
        </mxCell>
        <mxCell id="WJyoysQiN_B3ne-0Ys_C-14" value="T = EarthquakeStation" style="endArrow=block;endSize=16;endFill=0;html=1;rounded=0;exitX=0;exitY=0.25;exitDx=0;exitDy=0;entryX=1;entryY=0.5;entryDx=0;entryDy=0;movable=1;resizable=1;rotatable=1;deletable=1;editable=1;locked=0;connectable=1;edgeStyle=orthogonalEdgeStyle;" parent="WIyWlLk6GJQsqaUBKTNV-1" source="WJyoysQiN_B3ne-0Ys_C-10" target="YLLOaxHBiWGZTTnEDzXJ-147" edge="1">
          <mxGeometry x="0.6169" width="160" relative="1" as="geometry">
            <mxPoint x="850" y="320" as="sourcePoint" />
            <mxPoint x="520" y="320" as="targetPoint" />
            <mxPoint as="offset" />
            <Array as="points">
              <mxPoint x="650" y="316" />
              <mxPoint x="650" y="336" />
            </Array>
          </mxGeometry>
        </mxCell>
        <mxCell id="WJyoysQiN_B3ne-0Ys_C-30" value="&amp;lt;&amp;lt;enumeration&amp;gt;&amp;gt;&lt;br&gt;&lt;b&gt;StationStatus&lt;/b&gt;" style="swimlane;fontStyle=0;align=center;verticalAlign=top;childLayout=stackLayout;horizontal=1;startSize=40;horizontalStack=0;resizeParent=1;resizeParentMax=0;resizeLast=0;collapsible=0;marginBottom=0;html=1;whiteSpace=wrap;movable=1;resizable=1;rotatable=1;deletable=1;editable=1;locked=0;connectable=1;" parent="WIyWlLk6GJQsqaUBKTNV-1" vertex="1">
          <mxGeometry x="1155" y="570" width="120" height="186" as="geometry" />
        </mxCell>
        <mxCell id="pjH03qB0m816pcfInYxz-6" value="Unknown" style="text;html=1;strokeColor=none;fillColor=none;align=left;verticalAlign=middle;spacingLeft=4;spacingRight=4;overflow=hidden;rotatable=1;points=[[0,0.5],[1,0.5]];portConstraint=eastwest;whiteSpace=wrap;movable=1;resizable=1;deletable=1;editable=1;locked=0;connectable=1;" parent="WJyoysQiN_B3ne-0Ys_C-30" vertex="1">
          <mxGeometry y="40" width="120" height="30" as="geometry" />
        </mxCell>
        <mxCell id="WJyoysQiN_B3ne-0Ys_C-32" value="New" style="text;html=1;strokeColor=none;fillColor=none;align=left;verticalAlign=middle;spacingLeft=4;spacingRight=4;overflow=hidden;rotatable=1;points=[[0,0.5],[1,0.5]];portConstraint=eastwest;whiteSpace=wrap;movable=1;resizable=1;deletable=1;editable=1;locked=0;connectable=1;" parent="WJyoysQiN_B3ne-0Ys_C-30" vertex="1">
          <mxGeometry y="70" width="120" height="30" as="geometry" />
        </mxCell>
        <mxCell id="WJyoysQiN_B3ne-0Ys_C-34" value="Changed" style="text;html=1;strokeColor=none;fillColor=none;align=left;verticalAlign=middle;spacingLeft=4;spacingRight=4;overflow=hidden;rotatable=1;points=[[0,0.5],[1,0.5]];portConstraint=eastwest;whiteSpace=wrap;movable=1;resizable=1;deletable=1;editable=1;locked=0;connectable=1;" parent="WJyoysQiN_B3ne-0Ys_C-30" vertex="1">
          <mxGeometry y="100" width="120" height="30" as="geometry" />
        </mxCell>
        <mxCell id="WJyoysQiN_B3ne-0Ys_C-31" value="InUse" style="text;strokeColor=none;fillColor=none;align=left;verticalAlign=top;spacingLeft=4;spacingRight=4;overflow=hidden;rotatable=1;points=[[0,0.5],[1,0.5]];portConstraint=eastwest;whiteSpace=wrap;html=1;movable=1;resizable=1;deletable=1;editable=1;locked=0;connectable=1;" parent="WJyoysQiN_B3ne-0Ys_C-30" vertex="1">
          <mxGeometry y="130" width="120" height="26" as="geometry" />
        </mxCell>
        <mxCell id="WJyoysQiN_B3ne-0Ys_C-35" value="Discontinued" style="text;html=1;strokeColor=none;fillColor=none;align=left;verticalAlign=middle;spacingLeft=4;spacingRight=4;overflow=hidden;rotatable=1;points=[[0,0.5],[1,0.5]];portConstraint=eastwest;whiteSpace=wrap;movable=1;resizable=1;deletable=1;editable=1;locked=0;connectable=1;" parent="WJyoysQiN_B3ne-0Ys_C-30" vertex="1">
          <mxGeometry y="156" width="120" height="30" as="geometry" />
        </mxCell>
        <mxCell id="WJyoysQiN_B3ne-0Ys_C-39" value="&amp;lt;&amp;lt;record&amp;gt;&amp;gt;&lt;br&gt;&lt;b&gt;Position&lt;/b&gt;" style="swimlane;fontStyle=0;align=center;verticalAlign=top;childLayout=stackLayout;horizontal=1;startSize=43;horizontalStack=0;resizeParent=1;resizeParentMax=0;resizeLast=0;collapsible=0;marginBottom=0;html=1;whiteSpace=wrap;movable=1;resizable=1;rotatable=1;deletable=1;editable=1;locked=0;connectable=1;" parent="WIyWlLk6GJQsqaUBKTNV-1" vertex="1">
          <mxGeometry x="1155" y="432" width="120" height="121" as="geometry" />
        </mxCell>
        <mxCell id="WJyoysQiN_B3ne-0Ys_C-40" value="+ Code: string" style="text;strokeColor=none;fillColor=none;align=left;verticalAlign=top;spacingLeft=4;spacingRight=4;overflow=hidden;rotatable=1;points=[[0,0.5],[1,0.5]];portConstraint=eastwest;whiteSpace=wrap;html=1;movable=1;resizable=1;deletable=1;editable=1;locked=0;connectable=1;" parent="WJyoysQiN_B3ne-0Ys_C-39" vertex="1">
          <mxGeometry y="43" width="120" height="26" as="geometry" />
        </mxCell>
        <mxCell id="WJyoysQiN_B3ne-0Ys_C-42" value="+ KanjiName: string" style="text;strokeColor=none;fillColor=none;align=left;verticalAlign=top;spacingLeft=4;spacingRight=4;overflow=hidden;rotatable=1;points=[[0,0.5],[1,0.5]];portConstraint=eastwest;whiteSpace=wrap;html=1;movable=1;resizable=1;deletable=1;editable=1;locked=0;connectable=1;" parent="WJyoysQiN_B3ne-0Ys_C-39" vertex="1">
          <mxGeometry y="69" width="120" height="26" as="geometry" />
        </mxCell>
        <mxCell id="WJyoysQiN_B3ne-0Ys_C-41" value="+ KanaName: string" style="text;strokeColor=none;fillColor=none;align=left;verticalAlign=top;spacingLeft=4;spacingRight=4;overflow=hidden;rotatable=1;points=[[0,0.5],[1,0.5]];portConstraint=eastwest;whiteSpace=wrap;html=1;movable=1;resizable=1;deletable=1;editable=1;locked=0;connectable=1;" parent="WJyoysQiN_B3ne-0Ys_C-39" vertex="1">
          <mxGeometry y="95" width="120" height="26" as="geometry" />
        </mxCell>
        <mxCell id="pjH03qB0m816pcfInYxz-2" value="" style="endArrow=diamondThin;endFill=1;endSize=24;html=1;rounded=0;edgeStyle=orthogonalEdgeStyle;exitX=0.5;exitY=0;exitDx=0;exitDy=0;entryX=0.5;entryY=1;entryDx=0;entryDy=0;" parent="WIyWlLk6GJQsqaUBKTNV-1" source="ryrtGhmW_Z26ruCLo2IK-117" target="ryrtGhmW_Z26ruCLo2IK-81" edge="1">
          <mxGeometry width="160" relative="1" as="geometry">
            <mxPoint x="350" y="740" as="sourcePoint" />
            <mxPoint x="510" y="740" as="targetPoint" />
          </mxGeometry>
        </mxCell>
        <mxCell id="pjH03qB0m816pcfInYxz-7" value="" style="endArrow=diamondThin;endFill=1;endSize=24;html=1;rounded=0;edgeStyle=orthogonalEdgeStyle;entryX=1;entryY=0.5;entryDx=0;entryDy=0;exitX=0;exitY=0.25;exitDx=0;exitDy=0;" parent="WIyWlLk6GJQsqaUBKTNV-1" source="WJyoysQiN_B3ne-0Ys_C-39" target="WJyoysQiN_B3ne-0Ys_C-37" edge="1">
          <mxGeometry width="160" relative="1" as="geometry">
            <mxPoint x="755" y="633.17" as="sourcePoint" />
            <mxPoint x="915" y="633.17" as="targetPoint" />
            <Array as="points">
              <mxPoint x="1130" y="462" />
              <mxPoint x="1130" y="483" />
            </Array>
          </mxGeometry>
        </mxCell>
        <mxCell id="pjH03qB0m816pcfInYxz-8" value="" style="endArrow=diamondThin;endFill=1;endSize=24;html=1;rounded=0;edgeStyle=orthogonalEdgeStyle;entryX=1;entryY=0.5;entryDx=0;entryDy=0;exitX=0;exitY=0.25;exitDx=0;exitDy=0;" parent="WIyWlLk6GJQsqaUBKTNV-1" source="WJyoysQiN_B3ne-0Ys_C-39" target="WJyoysQiN_B3ne-0Ys_C-38" edge="1">
          <mxGeometry width="160" relative="1" as="geometry">
            <mxPoint x="720" y="645.67" as="sourcePoint" />
            <mxPoint x="885" y="643.5" as="targetPoint" />
            <Array as="points">
              <mxPoint x="1130" y="462" />
              <mxPoint x="1130" y="509" />
            </Array>
          </mxGeometry>
        </mxCell>
        <mxCell id="pjH03qB0m816pcfInYxz-17" value="" style="endArrow=open;endFill=1;endSize=12;html=1;rounded=0;entryX=1;entryY=0.5;entryDx=0;entryDy=0;exitX=0;exitY=0.5;exitDx=0;exitDy=0;edgeStyle=orthogonalEdgeStyle;" parent="WIyWlLk6GJQsqaUBKTNV-1" source="pjH03qB0m816pcfInYxz-6" target="WJyoysQiN_B3ne-0Ys_C-33" edge="1">
          <mxGeometry width="160" relative="1" as="geometry">
            <mxPoint x="900" y="630" as="sourcePoint" />
            <mxPoint x="1060" y="630" as="targetPoint" />
            <Array as="points">
              <mxPoint x="1120" y="625" />
              <mxPoint x="1120" y="639" />
            </Array>
          </mxGeometry>
        </mxCell>
        <mxCell id="pjH03qB0m816pcfInYxz-19" value="" style="endArrow=open;endFill=1;endSize=12;html=1;rounded=0;entryX=1;entryY=0.5;entryDx=0;entryDy=0;exitX=0;exitY=0.5;exitDx=0;exitDy=0;edgeStyle=orthogonalEdgeStyle;" parent="WIyWlLk6GJQsqaUBKTNV-1" source="fulxRrvb7B3gvN_P7Q5q-33" target="ryrtGhmW_Z26ruCLo2IK-4" edge="1">
          <mxGeometry width="160" relative="1" as="geometry">
            <mxPoint x="500" y="790" as="sourcePoint" />
            <mxPoint x="660" y="790" as="targetPoint" />
            <Array as="points">
              <mxPoint x="650" y="843" />
              <mxPoint x="650" y="783" />
            </Array>
          </mxGeometry>
        </mxCell>
        <mxCell id="pjH03qB0m816pcfInYxz-20" value="" style="endArrow=open;endFill=1;endSize=12;html=1;rounded=0;exitX=0;exitY=0.5;exitDx=0;exitDy=0;entryX=1;entryY=0.5;entryDx=0;entryDy=0;edgeStyle=orthogonalEdgeStyle;" parent="WIyWlLk6GJQsqaUBKTNV-1" source="ryrtGhmW_Z26ruCLo2IK-98" target="ryrtGhmW_Z26ruCLo2IK-3" edge="1">
          <mxGeometry width="160" relative="1" as="geometry">
            <mxPoint x="500" y="760" as="sourcePoint" />
            <mxPoint x="660" y="760" as="targetPoint" />
            <Array as="points">
              <mxPoint x="640" y="385" />
              <mxPoint x="640" y="757" />
            </Array>
          </mxGeometry>
        </mxCell>
        <mxCell id="1vg5YFvnHR8p3aQ_lJcd-0" value="&amp;lt;&amp;lt;enumeration&amp;gt;&amp;gt;&lt;br&gt;&lt;b&gt;DepthCondition&lt;/b&gt;" style="swimlane;fontStyle=0;align=center;verticalAlign=top;childLayout=stackLayout;horizontal=1;startSize=40;horizontalStack=0;resizeParent=1;resizeParentMax=0;resizeLast=0;collapsible=0;marginBottom=0;html=1;whiteSpace=wrap;movable=1;resizable=1;rotatable=1;deletable=1;editable=1;locked=0;connectable=1;" vertex="1" parent="WIyWlLk6GJQsqaUBKTNV-1">
          <mxGeometry x="1210" y="1240" width="120" height="158" as="geometry" />
        </mxCell>
        <mxCell id="1vg5YFvnHR8p3aQ_lJcd-1" value="Unknown" style="text;strokeColor=none;fillColor=none;align=left;verticalAlign=top;spacingLeft=4;spacingRight=4;overflow=hidden;rotatable=1;points=[[0,0.5],[1,0.5]];portConstraint=eastwest;whiteSpace=wrap;html=1;movable=1;resizable=1;deletable=1;editable=1;locked=0;connectable=1;" vertex="1" parent="1vg5YFvnHR8p3aQ_lJcd-0">
          <mxGeometry y="40" width="120" height="26" as="geometry" />
        </mxCell>
        <mxCell id="1vg5YFvnHR8p3aQ_lJcd-2" value="Shallow" style="text;strokeColor=none;fillColor=none;align=left;verticalAlign=top;spacingLeft=4;spacingRight=4;overflow=hidden;rotatable=1;points=[[0,0.5],[1,0.5]];portConstraint=eastwest;whiteSpace=wrap;html=1;movable=1;resizable=1;deletable=1;editable=1;locked=0;connectable=1;" vertex="1" parent="1vg5YFvnHR8p3aQ_lJcd-0">
          <mxGeometry y="66" width="120" height="26" as="geometry" />
        </mxCell>
        <mxCell id="1vg5YFvnHR8p3aQ_lJcd-3" value="Deep" style="text;html=1;strokeColor=none;fillColor=none;align=left;verticalAlign=middle;spacingLeft=4;spacingRight=4;overflow=hidden;rotatable=1;points=[[0,0.5],[1,0.5]];portConstraint=eastwest;whiteSpace=wrap;movable=1;resizable=1;deletable=1;editable=1;locked=0;connectable=1;" vertex="1" parent="1vg5YFvnHR8p3aQ_lJcd-0">
          <mxGeometry y="92" width="120" height="36" as="geometry" />
        </mxCell>
        <mxCell id="1vg5YFvnHR8p3aQ_lJcd-4" value="Unclear" style="text;html=1;strokeColor=none;fillColor=none;align=left;verticalAlign=middle;spacingLeft=4;spacingRight=4;overflow=hidden;rotatable=1;points=[[0,0.5],[1,0.5]];portConstraint=eastwest;whiteSpace=wrap;movable=1;resizable=1;deletable=1;editable=1;locked=0;connectable=1;" vertex="1" parent="1vg5YFvnHR8p3aQ_lJcd-0">
          <mxGeometry y="128" width="120" height="30" as="geometry" />
        </mxCell>
        <mxCell id="1vg5YFvnHR8p3aQ_lJcd-5" value="&amp;lt;&amp;lt;enumeration&amp;gt;&amp;gt;&lt;br&gt;&lt;b&gt;EarthquakeType&lt;/b&gt;" style="swimlane;fontStyle=0;align=center;verticalAlign=top;childLayout=stackLayout;horizontal=1;startSize=40;horizontalStack=0;resizeParent=1;resizeParentMax=0;resizeLast=0;collapsible=0;marginBottom=0;html=1;whiteSpace=wrap;movable=1;resizable=1;rotatable=1;deletable=1;editable=1;locked=0;connectable=1;" vertex="1" parent="WIyWlLk6GJQsqaUBKTNV-1">
          <mxGeometry x="260" y="1250" width="120" height="128" as="geometry" />
        </mxCell>
        <mxCell id="1vg5YFvnHR8p3aQ_lJcd-6" value="Unknown" style="text;strokeColor=none;fillColor=none;align=left;verticalAlign=top;spacingLeft=4;spacingRight=4;overflow=hidden;rotatable=1;points=[[0,0.5],[1,0.5]];portConstraint=eastwest;whiteSpace=wrap;html=1;movable=1;resizable=1;deletable=1;editable=1;locked=0;connectable=1;" vertex="1" parent="1vg5YFvnHR8p3aQ_lJcd-5">
          <mxGeometry y="40" width="120" height="26" as="geometry" />
        </mxCell>
        <mxCell id="1vg5YFvnHR8p3aQ_lJcd-7" value="Japan" style="text;strokeColor=none;fillColor=none;align=left;verticalAlign=top;spacingLeft=4;spacingRight=4;overflow=hidden;rotatable=1;points=[[0,0.5],[1,0.5]];portConstraint=eastwest;whiteSpace=wrap;html=1;movable=1;resizable=1;deletable=1;editable=1;locked=0;connectable=1;" vertex="1" parent="1vg5YFvnHR8p3aQ_lJcd-5">
          <mxGeometry y="66" width="120" height="26" as="geometry" />
        </mxCell>
        <mxCell id="1vg5YFvnHR8p3aQ_lJcd-8" value="Distant" style="text;html=1;strokeColor=none;fillColor=none;align=left;verticalAlign=middle;spacingLeft=4;spacingRight=4;overflow=hidden;rotatable=1;points=[[0,0.5],[1,0.5]];portConstraint=eastwest;whiteSpace=wrap;movable=1;resizable=1;deletable=1;editable=1;locked=0;connectable=1;" vertex="1" parent="1vg5YFvnHR8p3aQ_lJcd-5">
          <mxGeometry y="92" width="120" height="36" as="geometry" />
        </mxCell>
        <mxCell id="1vg5YFvnHR8p3aQ_lJcd-10" value="&amp;lt;&amp;lt;enumeration&amp;gt;&amp;gt;&lt;br&gt;&lt;b&gt;Geodetic&lt;/b&gt;" style="swimlane;fontStyle=0;align=center;verticalAlign=top;childLayout=stackLayout;horizontal=1;startSize=40;horizontalStack=0;resizeParent=1;resizeParentMax=0;resizeLast=0;collapsible=0;marginBottom=0;html=1;whiteSpace=wrap;movable=1;resizable=1;rotatable=1;deletable=1;editable=1;locked=0;connectable=1;" vertex="1" parent="WIyWlLk6GJQsqaUBKTNV-1">
          <mxGeometry x="840" y="1032" width="120" height="128" as="geometry" />
        </mxCell>
        <mxCell id="1vg5YFvnHR8p3aQ_lJcd-11" value="Unknown" style="text;strokeColor=none;fillColor=none;align=left;verticalAlign=top;spacingLeft=4;spacingRight=4;overflow=hidden;rotatable=1;points=[[0,0.5],[1,0.5]];portConstraint=eastwest;whiteSpace=wrap;html=1;movable=1;resizable=1;deletable=1;editable=1;locked=0;connectable=1;" vertex="1" parent="1vg5YFvnHR8p3aQ_lJcd-10">
          <mxGeometry y="40" width="120" height="26" as="geometry" />
        </mxCell>
        <mxCell id="1vg5YFvnHR8p3aQ_lJcd-12" value="World" style="text;strokeColor=none;fillColor=none;align=left;verticalAlign=top;spacingLeft=4;spacingRight=4;overflow=hidden;rotatable=1;points=[[0,0.5],[1,0.5]];portConstraint=eastwest;whiteSpace=wrap;html=1;movable=1;resizable=1;deletable=1;editable=1;locked=0;connectable=1;" vertex="1" parent="1vg5YFvnHR8p3aQ_lJcd-10">
          <mxGeometry y="66" width="120" height="26" as="geometry" />
        </mxCell>
        <mxCell id="1vg5YFvnHR8p3aQ_lJcd-13" value="Japan" style="text;html=1;strokeColor=none;fillColor=none;align=left;verticalAlign=middle;spacingLeft=4;spacingRight=4;overflow=hidden;rotatable=1;points=[[0,0.5],[1,0.5]];portConstraint=eastwest;whiteSpace=wrap;movable=1;resizable=1;deletable=1;editable=1;locked=0;connectable=1;" vertex="1" parent="1vg5YFvnHR8p3aQ_lJcd-10">
          <mxGeometry y="92" width="120" height="36" as="geometry" />
        </mxCell>
        <mxCell id="1vg5YFvnHR8p3aQ_lJcd-14" value="&amp;lt;&amp;lt;enumeration&amp;gt;&amp;gt;&lt;br&gt;&lt;b&gt;Intensity&lt;/b&gt;" style="swimlane;fontStyle=0;align=center;verticalAlign=top;childLayout=stackLayout;horizontal=1;startSize=40;horizontalStack=0;resizeParent=1;resizeParentMax=0;resizeLast=0;collapsible=0;marginBottom=0;html=1;whiteSpace=wrap;movable=1;resizable=1;rotatable=1;deletable=1;editable=1;locked=0;connectable=1;" vertex="1" parent="WIyWlLk6GJQsqaUBKTNV-1">
          <mxGeometry x="110" y="1360" width="120" height="380" as="geometry" />
        </mxCell>
        <mxCell id="1vg5YFvnHR8p3aQ_lJcd-15" value="Unknown" style="text;strokeColor=none;fillColor=none;align=left;verticalAlign=top;spacingLeft=4;spacingRight=4;overflow=hidden;rotatable=1;points=[[0,0.5],[1,0.5]];portConstraint=eastwest;whiteSpace=wrap;html=1;movable=1;resizable=1;deletable=1;editable=1;locked=0;connectable=1;" vertex="1" parent="1vg5YFvnHR8p3aQ_lJcd-14">
          <mxGeometry y="40" width="120" height="26" as="geometry" />
        </mxCell>
        <mxCell id="1vg5YFvnHR8p3aQ_lJcd-16" value="One" style="text;strokeColor=none;fillColor=none;align=left;verticalAlign=top;spacingLeft=4;spacingRight=4;overflow=hidden;rotatable=1;points=[[0,0.5],[1,0.5]];portConstraint=eastwest;whiteSpace=wrap;html=1;movable=1;resizable=1;deletable=1;editable=1;locked=0;connectable=1;" vertex="1" parent="1vg5YFvnHR8p3aQ_lJcd-14">
          <mxGeometry y="66" width="120" height="26" as="geometry" />
        </mxCell>
        <mxCell id="1vg5YFvnHR8p3aQ_lJcd-17" value="Two" style="text;html=1;strokeColor=none;fillColor=none;align=left;verticalAlign=middle;spacingLeft=4;spacingRight=4;overflow=hidden;rotatable=1;points=[[0,0.5],[1,0.5]];portConstraint=eastwest;whiteSpace=wrap;movable=1;resizable=1;deletable=1;editable=1;locked=0;connectable=1;" vertex="1" parent="1vg5YFvnHR8p3aQ_lJcd-14">
          <mxGeometry y="92" width="120" height="36" as="geometry" />
        </mxCell>
        <mxCell id="1vg5YFvnHR8p3aQ_lJcd-22" value="Three" style="text;html=1;strokeColor=none;fillColor=none;align=left;verticalAlign=middle;spacingLeft=4;spacingRight=4;overflow=hidden;rotatable=1;points=[[0,0.5],[1,0.5]];portConstraint=eastwest;whiteSpace=wrap;movable=1;resizable=1;deletable=1;editable=1;locked=0;connectable=1;" vertex="1" parent="1vg5YFvnHR8p3aQ_lJcd-14">
          <mxGeometry y="128" width="120" height="36" as="geometry" />
        </mxCell>
        <mxCell id="1vg5YFvnHR8p3aQ_lJcd-23" value="Four" style="text;html=1;strokeColor=none;fillColor=none;align=left;verticalAlign=middle;spacingLeft=4;spacingRight=4;overflow=hidden;rotatable=1;points=[[0,0.5],[1,0.5]];portConstraint=eastwest;whiteSpace=wrap;movable=1;resizable=1;deletable=1;editable=1;locked=0;connectable=1;" vertex="1" parent="1vg5YFvnHR8p3aQ_lJcd-14">
          <mxGeometry y="164" width="120" height="36" as="geometry" />
        </mxCell>
        <mxCell id="1vg5YFvnHR8p3aQ_lJcd-25" value="FiveWeak" style="text;html=1;strokeColor=none;fillColor=none;align=left;verticalAlign=middle;spacingLeft=4;spacingRight=4;overflow=hidden;rotatable=1;points=[[0,0.5],[1,0.5]];portConstraint=eastwest;whiteSpace=wrap;movable=1;resizable=1;deletable=1;editable=1;locked=0;connectable=1;" vertex="1" parent="1vg5YFvnHR8p3aQ_lJcd-14">
          <mxGeometry y="200" width="120" height="36" as="geometry" />
        </mxCell>
        <mxCell id="1vg5YFvnHR8p3aQ_lJcd-27" value="FiveStrong" style="text;html=1;strokeColor=none;fillColor=none;align=left;verticalAlign=middle;spacingLeft=4;spacingRight=4;overflow=hidden;rotatable=1;points=[[0,0.5],[1,0.5]];portConstraint=eastwest;whiteSpace=wrap;movable=1;resizable=1;deletable=1;editable=1;locked=0;connectable=1;" vertex="1" parent="1vg5YFvnHR8p3aQ_lJcd-14">
          <mxGeometry y="236" width="120" height="36" as="geometry" />
        </mxCell>
        <mxCell id="1vg5YFvnHR8p3aQ_lJcd-26" value="SixWeak" style="text;html=1;strokeColor=none;fillColor=none;align=left;verticalAlign=middle;spacingLeft=4;spacingRight=4;overflow=hidden;rotatable=1;points=[[0,0.5],[1,0.5]];portConstraint=eastwest;whiteSpace=wrap;movable=1;resizable=1;deletable=1;editable=1;locked=0;connectable=1;" vertex="1" parent="1vg5YFvnHR8p3aQ_lJcd-14">
          <mxGeometry y="272" width="120" height="36" as="geometry" />
        </mxCell>
        <mxCell id="1vg5YFvnHR8p3aQ_lJcd-24" value="SixStrong" style="text;html=1;strokeColor=none;fillColor=none;align=left;verticalAlign=middle;spacingLeft=4;spacingRight=4;overflow=hidden;rotatable=1;points=[[0,0.5],[1,0.5]];portConstraint=eastwest;whiteSpace=wrap;movable=1;resizable=1;deletable=1;editable=1;locked=0;connectable=1;" vertex="1" parent="1vg5YFvnHR8p3aQ_lJcd-14">
          <mxGeometry y="308" width="120" height="36" as="geometry" />
        </mxCell>
        <mxCell id="1vg5YFvnHR8p3aQ_lJcd-28" value="Seven" style="text;html=1;strokeColor=none;fillColor=none;align=left;verticalAlign=middle;spacingLeft=4;spacingRight=4;overflow=hidden;rotatable=1;points=[[0,0.5],[1,0.5]];portConstraint=eastwest;whiteSpace=wrap;movable=1;resizable=1;deletable=1;editable=1;locked=0;connectable=1;" vertex="1" parent="1vg5YFvnHR8p3aQ_lJcd-14">
          <mxGeometry y="344" width="120" height="36" as="geometry" />
        </mxCell>
        <mxCell id="1vg5YFvnHR8p3aQ_lJcd-29" value="&amp;lt;&amp;lt;enumeration&amp;gt;&amp;gt;&lt;br&gt;&lt;b&gt;LgCategory&lt;/b&gt;" style="swimlane;fontStyle=0;align=center;verticalAlign=top;childLayout=stackLayout;horizontal=1;startSize=40;horizontalStack=0;resizeParent=1;resizeParentMax=0;resizeLast=0;collapsible=0;marginBottom=0;html=1;whiteSpace=wrap;movable=1;resizable=1;rotatable=1;deletable=1;editable=1;locked=0;connectable=1;" vertex="1" parent="WIyWlLk6GJQsqaUBKTNV-1">
          <mxGeometry x="250" y="1696" width="120" height="200" as="geometry" />
        </mxCell>
        <mxCell id="1vg5YFvnHR8p3aQ_lJcd-30" value="Unknown" style="text;strokeColor=none;fillColor=none;align=left;verticalAlign=top;spacingLeft=4;spacingRight=4;overflow=hidden;rotatable=1;points=[[0,0.5],[1,0.5]];portConstraint=eastwest;whiteSpace=wrap;html=1;movable=1;resizable=1;deletable=1;editable=1;locked=0;connectable=1;" vertex="1" parent="1vg5YFvnHR8p3aQ_lJcd-29">
          <mxGeometry y="40" width="120" height="26" as="geometry" />
        </mxCell>
        <mxCell id="1vg5YFvnHR8p3aQ_lJcd-31" value="One" style="text;strokeColor=none;fillColor=none;align=left;verticalAlign=top;spacingLeft=4;spacingRight=4;overflow=hidden;rotatable=1;points=[[0,0.5],[1,0.5]];portConstraint=eastwest;whiteSpace=wrap;html=1;movable=1;resizable=1;deletable=1;editable=1;locked=0;connectable=1;" vertex="1" parent="1vg5YFvnHR8p3aQ_lJcd-29">
          <mxGeometry y="66" width="120" height="26" as="geometry" />
        </mxCell>
        <mxCell id="1vg5YFvnHR8p3aQ_lJcd-32" value="Two" style="text;html=1;strokeColor=none;fillColor=none;align=left;verticalAlign=middle;spacingLeft=4;spacingRight=4;overflow=hidden;rotatable=1;points=[[0,0.5],[1,0.5]];portConstraint=eastwest;whiteSpace=wrap;movable=1;resizable=1;deletable=1;editable=1;locked=0;connectable=1;" vertex="1" parent="1vg5YFvnHR8p3aQ_lJcd-29">
          <mxGeometry y="92" width="120" height="36" as="geometry" />
        </mxCell>
        <mxCell id="1vg5YFvnHR8p3aQ_lJcd-33" value="Three" style="text;html=1;strokeColor=none;fillColor=none;align=left;verticalAlign=middle;spacingLeft=4;spacingRight=4;overflow=hidden;rotatable=1;points=[[0,0.5],[1,0.5]];portConstraint=eastwest;whiteSpace=wrap;movable=1;resizable=1;deletable=1;editable=1;locked=0;connectable=1;" vertex="1" parent="1vg5YFvnHR8p3aQ_lJcd-29">
          <mxGeometry y="128" width="120" height="36" as="geometry" />
        </mxCell>
        <mxCell id="1vg5YFvnHR8p3aQ_lJcd-34" value="Four" style="text;html=1;strokeColor=none;fillColor=none;align=left;verticalAlign=middle;spacingLeft=4;spacingRight=4;overflow=hidden;rotatable=1;points=[[0,0.5],[1,0.5]];portConstraint=eastwest;whiteSpace=wrap;movable=1;resizable=1;deletable=1;editable=1;locked=0;connectable=1;" vertex="1" parent="1vg5YFvnHR8p3aQ_lJcd-29">
          <mxGeometry y="164" width="120" height="36" as="geometry" />
        </mxCell>
        <mxCell id="1vg5YFvnHR8p3aQ_lJcd-40" value="&amp;lt;&amp;lt;enumeration&amp;gt;&amp;gt;&lt;br&gt;&lt;b&gt;LgIntensity&lt;/b&gt;" style="swimlane;fontStyle=0;align=center;verticalAlign=top;childLayout=stackLayout;horizontal=1;startSize=40;horizontalStack=0;resizeParent=1;resizeParentMax=0;resizeLast=0;collapsible=0;marginBottom=0;html=1;whiteSpace=wrap;movable=1;resizable=1;rotatable=1;deletable=1;editable=1;locked=0;connectable=1;" vertex="1" parent="WIyWlLk6GJQsqaUBKTNV-1">
          <mxGeometry x="250" y="1460" width="120" height="226" as="geometry" />
        </mxCell>
        <mxCell id="1vg5YFvnHR8p3aQ_lJcd-41" value="Unknown" style="text;strokeColor=none;fillColor=none;align=left;verticalAlign=top;spacingLeft=4;spacingRight=4;overflow=hidden;rotatable=1;points=[[0,0.5],[1,0.5]];portConstraint=eastwest;whiteSpace=wrap;html=1;movable=1;resizable=1;deletable=1;editable=1;locked=0;connectable=1;" vertex="1" parent="1vg5YFvnHR8p3aQ_lJcd-40">
          <mxGeometry y="40" width="120" height="26" as="geometry" />
        </mxCell>
        <mxCell id="1vg5YFvnHR8p3aQ_lJcd-46" value="Zero" style="text;strokeColor=none;fillColor=none;align=left;verticalAlign=top;spacingLeft=4;spacingRight=4;overflow=hidden;rotatable=1;points=[[0,0.5],[1,0.5]];portConstraint=eastwest;whiteSpace=wrap;html=1;movable=1;resizable=1;deletable=1;editable=1;locked=0;connectable=1;" vertex="1" parent="1vg5YFvnHR8p3aQ_lJcd-40">
          <mxGeometry y="66" width="120" height="26" as="geometry" />
        </mxCell>
        <mxCell id="1vg5YFvnHR8p3aQ_lJcd-42" value="One" style="text;strokeColor=none;fillColor=none;align=left;verticalAlign=top;spacingLeft=4;spacingRight=4;overflow=hidden;rotatable=1;points=[[0,0.5],[1,0.5]];portConstraint=eastwest;whiteSpace=wrap;html=1;movable=1;resizable=1;deletable=1;editable=1;locked=0;connectable=1;" vertex="1" parent="1vg5YFvnHR8p3aQ_lJcd-40">
          <mxGeometry y="92" width="120" height="26" as="geometry" />
        </mxCell>
        <mxCell id="1vg5YFvnHR8p3aQ_lJcd-43" value="Two" style="text;html=1;strokeColor=none;fillColor=none;align=left;verticalAlign=middle;spacingLeft=4;spacingRight=4;overflow=hidden;rotatable=1;points=[[0,0.5],[1,0.5]];portConstraint=eastwest;whiteSpace=wrap;movable=1;resizable=1;deletable=1;editable=1;locked=0;connectable=1;" vertex="1" parent="1vg5YFvnHR8p3aQ_lJcd-40">
          <mxGeometry y="118" width="120" height="36" as="geometry" />
        </mxCell>
        <mxCell id="1vg5YFvnHR8p3aQ_lJcd-44" value="Three" style="text;html=1;strokeColor=none;fillColor=none;align=left;verticalAlign=middle;spacingLeft=4;spacingRight=4;overflow=hidden;rotatable=1;points=[[0,0.5],[1,0.5]];portConstraint=eastwest;whiteSpace=wrap;movable=1;resizable=1;deletable=1;editable=1;locked=0;connectable=1;" vertex="1" parent="1vg5YFvnHR8p3aQ_lJcd-40">
          <mxGeometry y="154" width="120" height="36" as="geometry" />
        </mxCell>
        <mxCell id="1vg5YFvnHR8p3aQ_lJcd-45" value="Four" style="text;html=1;strokeColor=none;fillColor=none;align=left;verticalAlign=middle;spacingLeft=4;spacingRight=4;overflow=hidden;rotatable=1;points=[[0,0.5],[1,0.5]];portConstraint=eastwest;whiteSpace=wrap;movable=1;resizable=1;deletable=1;editable=1;locked=0;connectable=1;" vertex="1" parent="1vg5YFvnHR8p3aQ_lJcd-40">
          <mxGeometry y="190" width="120" height="36" as="geometry" />
        </mxCell>
        <mxCell id="1vg5YFvnHR8p3aQ_lJcd-47" value="&amp;lt;&amp;lt;enumeration&amp;gt;&amp;gt;&lt;br&gt;&lt;b&gt;MagnitudeCondition&lt;/b&gt;" style="swimlane;fontStyle=0;align=center;verticalAlign=top;childLayout=stackLayout;horizontal=1;startSize=40;horizontalStack=0;resizeParent=1;resizeParentMax=0;resizeLast=0;collapsible=0;marginBottom=0;html=1;whiteSpace=wrap;movable=1;resizable=1;rotatable=1;deletable=1;editable=1;locked=0;connectable=1;" vertex="1" parent="WIyWlLk6GJQsqaUBKTNV-1">
          <mxGeometry x="550" y="1640" width="120" height="128" as="geometry" />
        </mxCell>
        <mxCell id="1vg5YFvnHR8p3aQ_lJcd-48" value="Unknown" style="text;strokeColor=none;fillColor=none;align=left;verticalAlign=top;spacingLeft=4;spacingRight=4;overflow=hidden;rotatable=1;points=[[0,0.5],[1,0.5]];portConstraint=eastwest;whiteSpace=wrap;html=1;movable=1;resizable=1;deletable=1;editable=1;locked=0;connectable=1;" vertex="1" parent="1vg5YFvnHR8p3aQ_lJcd-47">
          <mxGeometry y="40" width="120" height="26" as="geometry" />
        </mxCell>
        <mxCell id="1vg5YFvnHR8p3aQ_lJcd-49" value="Unclear" style="text;strokeColor=none;fillColor=none;align=left;verticalAlign=top;spacingLeft=4;spacingRight=4;overflow=hidden;rotatable=1;points=[[0,0.5],[1,0.5]];portConstraint=eastwest;whiteSpace=wrap;html=1;movable=1;resizable=1;deletable=1;editable=1;locked=0;connectable=1;" vertex="1" parent="1vg5YFvnHR8p3aQ_lJcd-47">
          <mxGeometry y="66" width="120" height="26" as="geometry" />
        </mxCell>
        <mxCell id="1vg5YFvnHR8p3aQ_lJcd-50" value="Huge" style="text;html=1;strokeColor=none;fillColor=none;align=left;verticalAlign=middle;spacingLeft=4;spacingRight=4;overflow=hidden;rotatable=1;points=[[0,0.5],[1,0.5]];portConstraint=eastwest;whiteSpace=wrap;movable=1;resizable=1;deletable=1;editable=1;locked=0;connectable=1;" vertex="1" parent="1vg5YFvnHR8p3aQ_lJcd-47">
          <mxGeometry y="92" width="120" height="36" as="geometry" />
        </mxCell>
        <mxCell id="1vg5YFvnHR8p3aQ_lJcd-51" value="&amp;lt;&amp;lt;enumeration&amp;gt;&amp;gt;&lt;br&gt;&lt;b&gt;MagnitudeUnit&lt;/b&gt;" style="swimlane;fontStyle=0;align=center;verticalAlign=top;childLayout=stackLayout;horizontal=1;startSize=40;horizontalStack=0;resizeParent=1;resizeParentMax=0;resizeLast=0;collapsible=0;marginBottom=0;html=1;whiteSpace=wrap;movable=1;resizable=1;rotatable=1;deletable=1;editable=1;locked=0;connectable=1;" vertex="1" parent="WIyWlLk6GJQsqaUBKTNV-1">
          <mxGeometry x="414" y="1640" width="120" height="128" as="geometry" />
        </mxCell>
        <mxCell id="1vg5YFvnHR8p3aQ_lJcd-52" value="Unknown" style="text;strokeColor=none;fillColor=none;align=left;verticalAlign=top;spacingLeft=4;spacingRight=4;overflow=hidden;rotatable=1;points=[[0,0.5],[1,0.5]];portConstraint=eastwest;whiteSpace=wrap;html=1;movable=1;resizable=1;deletable=1;editable=1;locked=0;connectable=1;" vertex="1" parent="1vg5YFvnHR8p3aQ_lJcd-51">
          <mxGeometry y="40" width="120" height="26" as="geometry" />
        </mxCell>
        <mxCell id="1vg5YFvnHR8p3aQ_lJcd-53" value="JmaMagnitude" style="text;strokeColor=none;fillColor=none;align=left;verticalAlign=top;spacingLeft=4;spacingRight=4;overflow=hidden;rotatable=1;points=[[0,0.5],[1,0.5]];portConstraint=eastwest;whiteSpace=wrap;html=1;movable=1;resizable=1;deletable=1;editable=1;locked=0;connectable=1;" vertex="1" parent="1vg5YFvnHR8p3aQ_lJcd-51">
          <mxGeometry y="66" width="120" height="26" as="geometry" />
        </mxCell>
        <mxCell id="1vg5YFvnHR8p3aQ_lJcd-54" value="NormalMagnitude" style="text;html=1;strokeColor=none;fillColor=none;align=left;verticalAlign=middle;spacingLeft=4;spacingRight=4;overflow=hidden;rotatable=1;points=[[0,0.5],[1,0.5]];portConstraint=eastwest;whiteSpace=wrap;movable=1;resizable=1;deletable=1;editable=1;locked=0;connectable=1;" vertex="1" parent="1vg5YFvnHR8p3aQ_lJcd-51">
          <mxGeometry y="92" width="120" height="36" as="geometry" />
        </mxCell>
        <mxCell id="1vg5YFvnHR8p3aQ_lJcd-55" value="&amp;lt;&amp;lt;enumeration&amp;gt;&amp;gt;&lt;br&gt;&lt;b&gt;Source&lt;/b&gt;" style="swimlane;fontStyle=0;align=center;verticalAlign=top;childLayout=stackLayout;horizontal=1;startSize=40;horizontalStack=0;resizeParent=1;resizeParentMax=0;resizeLast=0;collapsible=0;marginBottom=0;html=1;whiteSpace=wrap;movable=1;resizable=1;rotatable=1;deletable=1;editable=1;locked=0;connectable=1;" vertex="1" parent="WIyWlLk6GJQsqaUBKTNV-1">
          <mxGeometry x="760" y="1670" width="120" height="236" as="geometry" />
        </mxCell>
        <mxCell id="1vg5YFvnHR8p3aQ_lJcd-56" value="Unknown" style="text;strokeColor=none;fillColor=none;align=left;verticalAlign=top;spacingLeft=4;spacingRight=4;overflow=hidden;rotatable=1;points=[[0,0.5],[1,0.5]];portConstraint=eastwest;whiteSpace=wrap;html=1;movable=1;resizable=1;deletable=1;editable=1;locked=0;connectable=1;" vertex="1" parent="1vg5YFvnHR8p3aQ_lJcd-55">
          <mxGeometry y="40" width="120" height="26" as="geometry" />
        </mxCell>
        <mxCell id="1vg5YFvnHR8p3aQ_lJcd-57" value="USGS" style="text;strokeColor=none;fillColor=none;align=left;verticalAlign=top;spacingLeft=4;spacingRight=4;overflow=hidden;rotatable=1;points=[[0,0.5],[1,0.5]];portConstraint=eastwest;whiteSpace=wrap;html=1;movable=1;resizable=1;deletable=1;editable=1;locked=0;connectable=1;" vertex="1" parent="1vg5YFvnHR8p3aQ_lJcd-55">
          <mxGeometry y="66" width="120" height="26" as="geometry" />
        </mxCell>
        <mxCell id="1vg5YFvnHR8p3aQ_lJcd-58" value="PTWC" style="text;html=1;strokeColor=none;fillColor=none;align=left;verticalAlign=middle;spacingLeft=4;spacingRight=4;overflow=hidden;rotatable=1;points=[[0,0.5],[1,0.5]];portConstraint=eastwest;whiteSpace=wrap;movable=1;resizable=1;deletable=1;editable=1;locked=0;connectable=1;" vertex="1" parent="1vg5YFvnHR8p3aQ_lJcd-55">
          <mxGeometry y="92" width="120" height="36" as="geometry" />
        </mxCell>
        <mxCell id="1vg5YFvnHR8p3aQ_lJcd-60" value="SCSTAC" style="text;html=1;strokeColor=none;fillColor=none;align=left;verticalAlign=middle;spacingLeft=4;spacingRight=4;overflow=hidden;rotatable=1;points=[[0,0.5],[1,0.5]];portConstraint=eastwest;whiteSpace=wrap;movable=1;resizable=1;deletable=1;editable=1;locked=0;connectable=1;" vertex="1" parent="1vg5YFvnHR8p3aQ_lJcd-55">
          <mxGeometry y="128" width="120" height="36" as="geometry" />
        </mxCell>
        <mxCell id="1vg5YFvnHR8p3aQ_lJcd-61" value="CATAC" style="text;html=1;strokeColor=none;fillColor=none;align=left;verticalAlign=middle;spacingLeft=4;spacingRight=4;overflow=hidden;rotatable=1;points=[[0,0.5],[1,0.5]];portConstraint=eastwest;whiteSpace=wrap;movable=1;resizable=1;deletable=1;editable=1;locked=0;connectable=1;" vertex="1" parent="1vg5YFvnHR8p3aQ_lJcd-55">
          <mxGeometry y="164" width="120" height="36" as="geometry" />
        </mxCell>
        <mxCell id="1vg5YFvnHR8p3aQ_lJcd-59" value="WCATWC" style="text;html=1;strokeColor=none;fillColor=none;align=left;verticalAlign=middle;spacingLeft=4;spacingRight=4;overflow=hidden;rotatable=1;points=[[0,0.5],[1,0.5]];portConstraint=eastwest;whiteSpace=wrap;movable=1;resizable=1;deletable=1;editable=1;locked=0;connectable=1;" vertex="1" parent="1vg5YFvnHR8p3aQ_lJcd-55">
          <mxGeometry y="200" width="120" height="36" as="geometry" />
        </mxCell>
        <mxCell id="1vg5YFvnHR8p3aQ_lJcd-62" value="&amp;lt;&amp;lt;record&amp;gt;&amp;gt;&lt;br&gt;&lt;b&gt;PastEarthquakeList&lt;/b&gt;" style="swimlane;fontStyle=0;align=center;verticalAlign=top;childLayout=stackLayout;horizontal=1;startSize=38;horizontalStack=0;resizeParent=1;resizeParentMax=0;resizeLast=0;collapsible=0;marginBottom=0;html=1;whiteSpace=wrap;movable=1;resizable=1;rotatable=1;deletable=1;editable=1;locked=0;connectable=1;" vertex="1" parent="WIyWlLk6GJQsqaUBKTNV-1">
          <mxGeometry x="442.5" y="1204" width="160" height="46" as="geometry" />
        </mxCell>
        <mxCell id="1vg5YFvnHR8p3aQ_lJcd-63" value="" style="line;strokeWidth=1;fillColor=none;align=left;verticalAlign=middle;spacingTop=-1;spacingLeft=3;spacingRight=3;rotatable=1;labelPosition=right;points=[];portConstraint=eastwest;movable=1;resizable=1;deletable=1;editable=1;locked=0;connectable=1;" vertex="1" parent="1vg5YFvnHR8p3aQ_lJcd-62">
          <mxGeometry y="38" width="160" height="8" as="geometry" />
        </mxCell>
        <mxCell id="1vg5YFvnHR8p3aQ_lJcd-64" value="&amp;lt;&amp;lt;record&amp;gt;&amp;gt;&lt;br&gt;&lt;b&gt;Auxiliary&lt;/b&gt;" style="swimlane;fontStyle=0;align=center;verticalAlign=top;childLayout=stackLayout;horizontal=1;startSize=38;horizontalStack=0;resizeParent=1;resizeParentMax=0;resizeLast=0;collapsible=0;marginBottom=0;html=1;whiteSpace=wrap;movable=1;resizable=1;rotatable=1;deletable=1;editable=1;locked=0;connectable=1;" vertex="1" parent="WIyWlLk6GJQsqaUBKTNV-1">
          <mxGeometry x="1010" y="1660" width="180" height="176" as="geometry" />
        </mxCell>
        <mxCell id="1vg5YFvnHR8p3aQ_lJcd-65" value="+ Text: string" style="text;strokeColor=none;fillColor=none;align=left;verticalAlign=top;spacingLeft=4;spacingRight=4;overflow=hidden;rotatable=1;points=[[0,0.5],[1,0.5]];portConstraint=eastwest;whiteSpace=wrap;html=1;movable=1;resizable=1;deletable=1;editable=1;locked=0;connectable=1;" vertex="1" parent="1vg5YFvnHR8p3aQ_lJcd-64">
          <mxGeometry y="38" width="180" height="26" as="geometry" />
        </mxCell>
        <mxCell id="1vg5YFvnHR8p3aQ_lJcd-66" value="+ Code: int" style="text;strokeColor=none;fillColor=none;align=left;verticalAlign=top;spacingLeft=4;spacingRight=4;overflow=hidden;rotatable=1;points=[[0,0.5],[1,0.5]];portConstraint=eastwest;whiteSpace=wrap;html=1;movable=1;resizable=1;deletable=1;editable=1;locked=0;connectable=1;" vertex="1" parent="1vg5YFvnHR8p3aQ_lJcd-64">
          <mxGeometry y="64" width="180" height="26" as="geometry" />
        </mxCell>
        <mxCell id="1vg5YFvnHR8p3aQ_lJcd-67" value="+ Name: string" style="text;strokeColor=none;fillColor=none;align=left;verticalAlign=top;spacingLeft=4;spacingRight=4;overflow=hidden;rotatable=1;points=[[0,0.5],[1,0.5]];portConstraint=eastwest;whiteSpace=wrap;html=1;movable=1;resizable=1;deletable=1;editable=1;locked=0;connectable=1;" vertex="1" parent="1vg5YFvnHR8p3aQ_lJcd-64">
          <mxGeometry y="90" width="180" height="26" as="geometry" />
        </mxCell>
        <mxCell id="1vg5YFvnHR8p3aQ_lJcd-68" value="+ Direction: string" style="text;strokeColor=none;fillColor=none;align=left;verticalAlign=top;spacingLeft=4;spacingRight=4;overflow=hidden;rotatable=1;points=[[0,0.5],[1,0.5]];portConstraint=eastwest;whiteSpace=wrap;html=1;movable=1;resizable=1;deletable=1;editable=1;locked=0;connectable=1;" vertex="1" parent="1vg5YFvnHR8p3aQ_lJcd-64">
          <mxGeometry y="116" width="180" height="26" as="geometry" />
        </mxCell>
        <mxCell id="1vg5YFvnHR8p3aQ_lJcd-69" value="+ Distance: Distance" style="text;strokeColor=none;fillColor=none;align=left;verticalAlign=top;spacingLeft=4;spacingRight=4;overflow=hidden;rotatable=1;points=[[0,0.5],[1,0.5]];portConstraint=eastwest;whiteSpace=wrap;html=1;movable=1;resizable=1;deletable=1;editable=1;locked=0;connectable=1;" vertex="1" parent="1vg5YFvnHR8p3aQ_lJcd-64">
          <mxGeometry y="142" width="180" height="26" as="geometry" />
        </mxCell>
        <mxCell id="1vg5YFvnHR8p3aQ_lJcd-77" value="" style="line;strokeWidth=1;fillColor=none;align=left;verticalAlign=middle;spacingTop=-1;spacingLeft=3;spacingRight=3;rotatable=1;labelPosition=right;points=[];portConstraint=eastwest;movable=1;resizable=1;deletable=1;editable=1;locked=0;connectable=1;" vertex="1" parent="1vg5YFvnHR8p3aQ_lJcd-64">
          <mxGeometry y="168" width="180" height="8" as="geometry" />
        </mxCell>
        <mxCell id="1vg5YFvnHR8p3aQ_lJcd-78" value="&amp;lt;&amp;lt;record&amp;gt;&amp;gt;&lt;br&gt;&lt;b&gt;Coordinate&lt;/b&gt;" style="swimlane;fontStyle=0;align=center;verticalAlign=top;childLayout=stackLayout;horizontal=1;startSize=38;horizontalStack=0;resizeParent=1;resizeParentMax=0;resizeLast=0;collapsible=0;marginBottom=0;html=1;whiteSpace=wrap;movable=1;resizable=1;rotatable=1;deletable=1;editable=1;locked=0;connectable=1;" vertex="1" parent="WIyWlLk6GJQsqaUBKTNV-1">
          <mxGeometry x="1010" y="980" width="180" height="98" as="geometry" />
        </mxCell>
        <mxCell id="1vg5YFvnHR8p3aQ_lJcd-79" value="+ DisplayText: string" style="text;strokeColor=none;fillColor=none;align=left;verticalAlign=top;spacingLeft=4;spacingRight=4;overflow=hidden;rotatable=1;points=[[0,0.5],[1,0.5]];portConstraint=eastwest;whiteSpace=wrap;html=1;movable=1;resizable=1;deletable=1;editable=1;locked=0;connectable=1;" vertex="1" parent="1vg5YFvnHR8p3aQ_lJcd-78">
          <mxGeometry y="38" width="180" height="26" as="geometry" />
        </mxCell>
        <mxCell id="1vg5YFvnHR8p3aQ_lJcd-80" value="+ DoubleValue: double" style="text;strokeColor=none;fillColor=none;align=left;verticalAlign=top;spacingLeft=4;spacingRight=4;overflow=hidden;rotatable=1;points=[[0,0.5],[1,0.5]];portConstraint=eastwest;whiteSpace=wrap;html=1;movable=1;resizable=1;deletable=1;editable=1;locked=0;connectable=1;" vertex="1" parent="1vg5YFvnHR8p3aQ_lJcd-78">
          <mxGeometry y="64" width="180" height="26" as="geometry" />
        </mxCell>
        <mxCell id="1vg5YFvnHR8p3aQ_lJcd-84" value="" style="line;strokeWidth=1;fillColor=none;align=left;verticalAlign=middle;spacingTop=-1;spacingLeft=3;spacingRight=3;rotatable=1;labelPosition=right;points=[];portConstraint=eastwest;movable=1;resizable=1;deletable=1;editable=1;locked=0;connectable=1;" vertex="1" parent="1vg5YFvnHR8p3aQ_lJcd-78">
          <mxGeometry y="90" width="180" height="8" as="geometry" />
        </mxCell>
        <mxCell id="1vg5YFvnHR8p3aQ_lJcd-85" value="&amp;lt;&amp;lt;record&amp;gt;&amp;gt;&lt;br&gt;&lt;b&gt;CoordinatePosition&lt;/b&gt;" style="swimlane;fontStyle=0;align=center;verticalAlign=top;childLayout=stackLayout;horizontal=1;startSize=38;horizontalStack=0;resizeParent=1;resizeParentMax=0;resizeLast=0;collapsible=0;marginBottom=0;html=1;whiteSpace=wrap;movable=1;resizable=1;rotatable=1;deletable=1;editable=1;locked=0;connectable=1;" vertex="1" parent="WIyWlLk6GJQsqaUBKTNV-1">
          <mxGeometry x="1010" y="1100" width="180" height="176" as="geometry" />
        </mxCell>
        <mxCell id="1vg5YFvnHR8p3aQ_lJcd-86" value="+ Latitude: Coordinate?" style="text;strokeColor=none;fillColor=none;align=left;verticalAlign=top;spacingLeft=4;spacingRight=4;overflow=hidden;rotatable=1;points=[[0,0.5],[1,0.5]];portConstraint=eastwest;whiteSpace=wrap;html=1;movable=1;resizable=1;deletable=1;editable=1;locked=0;connectable=1;" vertex="1" parent="1vg5YFvnHR8p3aQ_lJcd-85">
          <mxGeometry y="38" width="180" height="26" as="geometry" />
        </mxCell>
        <mxCell id="1vg5YFvnHR8p3aQ_lJcd-87" value="+ Longitude: Coordinate?" style="text;strokeColor=none;fillColor=none;align=left;verticalAlign=top;spacingLeft=4;spacingRight=4;overflow=hidden;rotatable=1;points=[[0,0.5],[1,0.5]];portConstraint=eastwest;whiteSpace=wrap;html=1;movable=1;resizable=1;deletable=1;editable=1;locked=0;connectable=1;" vertex="1" parent="1vg5YFvnHR8p3aQ_lJcd-85">
          <mxGeometry y="64" width="180" height="26" as="geometry" />
        </mxCell>
        <mxCell id="1vg5YFvnHR8p3aQ_lJcd-90" value="+ Height: Height?" style="text;strokeColor=none;fillColor=none;align=left;verticalAlign=top;spacingLeft=4;spacingRight=4;overflow=hidden;rotatable=1;points=[[0,0.5],[1,0.5]];portConstraint=eastwest;whiteSpace=wrap;html=1;movable=1;resizable=1;deletable=1;editable=1;locked=0;connectable=1;" vertex="1" parent="1vg5YFvnHR8p3aQ_lJcd-85">
          <mxGeometry y="90" width="180" height="26" as="geometry" />
        </mxCell>
        <mxCell id="1vg5YFvnHR8p3aQ_lJcd-89" value="+ GeodeticSystem: Geodetic?" style="text;strokeColor=none;fillColor=none;align=left;verticalAlign=top;spacingLeft=4;spacingRight=4;overflow=hidden;rotatable=1;points=[[0,0.5],[1,0.5]];portConstraint=eastwest;whiteSpace=wrap;html=1;movable=1;resizable=1;deletable=1;editable=1;locked=0;connectable=1;" vertex="1" parent="1vg5YFvnHR8p3aQ_lJcd-85">
          <mxGeometry y="116" width="180" height="26" as="geometry" />
        </mxCell>
        <mxCell id="1vg5YFvnHR8p3aQ_lJcd-91" value="+ Condition: string?" style="text;strokeColor=none;fillColor=none;align=left;verticalAlign=top;spacingLeft=4;spacingRight=4;overflow=hidden;rotatable=1;points=[[0,0.5],[1,0.5]];portConstraint=eastwest;whiteSpace=wrap;html=1;movable=1;resizable=1;deletable=1;editable=1;locked=0;connectable=1;" vertex="1" parent="1vg5YFvnHR8p3aQ_lJcd-85">
          <mxGeometry y="142" width="180" height="26" as="geometry" />
        </mxCell>
        <mxCell id="1vg5YFvnHR8p3aQ_lJcd-88" value="" style="line;strokeWidth=1;fillColor=none;align=left;verticalAlign=middle;spacingTop=-1;spacingLeft=3;spacingRight=3;rotatable=1;labelPosition=right;points=[];portConstraint=eastwest;movable=1;resizable=1;deletable=1;editable=1;locked=0;connectable=1;" vertex="1" parent="1vg5YFvnHR8p3aQ_lJcd-85">
          <mxGeometry y="168" width="180" height="8" as="geometry" />
        </mxCell>
        <mxCell id="1vg5YFvnHR8p3aQ_lJcd-99" value="&amp;lt;&amp;lt;record&amp;gt;&amp;gt;&lt;br&gt;&lt;b&gt;Depth&lt;/b&gt;" style="swimlane;fontStyle=0;align=center;verticalAlign=top;childLayout=stackLayout;horizontal=1;startSize=38;horizontalStack=0;resizeParent=1;resizeParentMax=0;resizeLast=0;collapsible=0;marginBottom=0;html=1;whiteSpace=wrap;movable=1;resizable=1;rotatable=1;deletable=1;editable=1;locked=0;connectable=1;" vertex="1" parent="WIyWlLk6GJQsqaUBKTNV-1">
          <mxGeometry x="1010" y="1342" width="180" height="150" as="geometry" />
        </mxCell>
        <mxCell id="1vg5YFvnHR8p3aQ_lJcd-100" value="+ Type: string = &quot;深さ&quot;" style="text;strokeColor=none;fillColor=none;align=left;verticalAlign=top;spacingLeft=4;spacingRight=4;overflow=hidden;rotatable=1;points=[[0,0.5],[1,0.5]];portConstraint=eastwest;whiteSpace=wrap;html=1;movable=1;resizable=1;deletable=1;editable=1;locked=0;connectable=1;" vertex="1" parent="1vg5YFvnHR8p3aQ_lJcd-99">
          <mxGeometry y="38" width="180" height="26" as="geometry" />
        </mxCell>
        <mxCell id="1vg5YFvnHR8p3aQ_lJcd-101" value="+ Unit: string = &quot;km&quot;" style="text;strokeColor=none;fillColor=none;align=left;verticalAlign=top;spacingLeft=4;spacingRight=4;overflow=hidden;rotatable=1;points=[[0,0.5],[1,0.5]];portConstraint=eastwest;whiteSpace=wrap;html=1;movable=1;resizable=1;deletable=1;editable=1;locked=0;connectable=1;" vertex="1" parent="1vg5YFvnHR8p3aQ_lJcd-99">
          <mxGeometry y="64" width="180" height="26" as="geometry" />
        </mxCell>
        <mxCell id="1vg5YFvnHR8p3aQ_lJcd-104" value="+ Value: int?" style="text;strokeColor=none;fillColor=none;align=left;verticalAlign=top;spacingLeft=4;spacingRight=4;overflow=hidden;rotatable=1;points=[[0,0.5],[1,0.5]];portConstraint=eastwest;whiteSpace=wrap;html=1;movable=1;resizable=1;deletable=1;editable=1;locked=0;connectable=1;" vertex="1" parent="1vg5YFvnHR8p3aQ_lJcd-99">
          <mxGeometry y="90" width="180" height="26" as="geometry" />
        </mxCell>
        <mxCell id="1vg5YFvnHR8p3aQ_lJcd-103" value="+ Condition: DepthCondition?" style="text;strokeColor=none;fillColor=none;align=left;verticalAlign=top;spacingLeft=4;spacingRight=4;overflow=hidden;rotatable=1;points=[[0,0.5],[1,0.5]];portConstraint=eastwest;whiteSpace=wrap;html=1;movable=1;resizable=1;deletable=1;editable=1;locked=0;connectable=1;" vertex="1" parent="1vg5YFvnHR8p3aQ_lJcd-99">
          <mxGeometry y="116" width="180" height="26" as="geometry" />
        </mxCell>
        <mxCell id="1vg5YFvnHR8p3aQ_lJcd-102" value="" style="line;strokeWidth=1;fillColor=none;align=left;verticalAlign=middle;spacingTop=-1;spacingLeft=3;spacingRight=3;rotatable=1;labelPosition=right;points=[];portConstraint=eastwest;movable=1;resizable=1;deletable=1;editable=1;locked=0;connectable=1;" vertex="1" parent="1vg5YFvnHR8p3aQ_lJcd-99">
          <mxGeometry y="142" width="180" height="8" as="geometry" />
        </mxCell>
        <mxCell id="1vg5YFvnHR8p3aQ_lJcd-105" value="&amp;lt;&amp;lt;record&amp;gt;&amp;gt;&lt;br&gt;&lt;b&gt;Distance&lt;/b&gt;" style="swimlane;fontStyle=0;align=center;verticalAlign=top;childLayout=stackLayout;horizontal=1;startSize=38;horizontalStack=0;resizeParent=1;resizeParentMax=0;resizeLast=0;collapsible=0;marginBottom=0;html=1;whiteSpace=wrap;movable=1;resizable=1;rotatable=1;deletable=1;editable=1;locked=0;connectable=1;" vertex="1" parent="WIyWlLk6GJQsqaUBKTNV-1">
          <mxGeometry x="1210" y="1606" width="120" height="98" as="geometry" />
        </mxCell>
        <mxCell id="1vg5YFvnHR8p3aQ_lJcd-107" value="+ Unit: string = &quot;km&quot;" style="text;strokeColor=none;fillColor=none;align=left;verticalAlign=top;spacingLeft=4;spacingRight=4;overflow=hidden;rotatable=1;points=[[0,0.5],[1,0.5]];portConstraint=eastwest;whiteSpace=wrap;html=1;movable=1;resizable=1;deletable=1;editable=1;locked=0;connectable=1;" vertex="1" parent="1vg5YFvnHR8p3aQ_lJcd-105">
          <mxGeometry y="38" width="120" height="26" as="geometry" />
        </mxCell>
        <mxCell id="1vg5YFvnHR8p3aQ_lJcd-108" value="+ Value: int" style="text;strokeColor=none;fillColor=none;align=left;verticalAlign=top;spacingLeft=4;spacingRight=4;overflow=hidden;rotatable=1;points=[[0,0.5],[1,0.5]];portConstraint=eastwest;whiteSpace=wrap;html=1;movable=1;resizable=1;deletable=1;editable=1;locked=0;connectable=1;" vertex="1" parent="1vg5YFvnHR8p3aQ_lJcd-105">
          <mxGeometry y="64" width="120" height="26" as="geometry" />
        </mxCell>
        <mxCell id="1vg5YFvnHR8p3aQ_lJcd-110" value="" style="line;strokeWidth=1;fillColor=none;align=left;verticalAlign=middle;spacingTop=-1;spacingLeft=3;spacingRight=3;rotatable=1;labelPosition=right;points=[];portConstraint=eastwest;movable=1;resizable=1;deletable=1;editable=1;locked=0;connectable=1;" vertex="1" parent="1vg5YFvnHR8p3aQ_lJcd-105">
          <mxGeometry y="90" width="120" height="8" as="geometry" />
        </mxCell>
        <mxCell id="1vg5YFvnHR8p3aQ_lJcd-111" value="&amp;lt;&amp;lt;record&amp;gt;&amp;gt;&lt;br&gt;&lt;b&gt;Height&lt;/b&gt;" style="swimlane;fontStyle=0;align=center;verticalAlign=top;childLayout=stackLayout;horizontal=1;startSize=38;horizontalStack=0;resizeParent=1;resizeParentMax=0;resizeLast=0;collapsible=0;marginBottom=0;html=1;whiteSpace=wrap;movable=1;resizable=1;rotatable=1;deletable=1;editable=1;locked=0;connectable=1;" vertex="1" parent="WIyWlLk6GJQsqaUBKTNV-1">
          <mxGeometry x="1010" y="830" width="180" height="124" as="geometry" />
        </mxCell>
        <mxCell id="1vg5YFvnHR8p3aQ_lJcd-115" value="+ Type: string = &quot;高さ&quot;" style="text;strokeColor=none;fillColor=none;align=left;verticalAlign=top;spacingLeft=4;spacingRight=4;overflow=hidden;rotatable=1;points=[[0,0.5],[1,0.5]];portConstraint=eastwest;whiteSpace=wrap;html=1;movable=1;resizable=1;deletable=1;editable=1;locked=0;connectable=1;" vertex="1" parent="1vg5YFvnHR8p3aQ_lJcd-111">
          <mxGeometry y="38" width="180" height="26" as="geometry" />
        </mxCell>
        <mxCell id="1vg5YFvnHR8p3aQ_lJcd-112" value="+ Unit: string = &quot;m&quot;" style="text;strokeColor=none;fillColor=none;align=left;verticalAlign=top;spacingLeft=4;spacingRight=4;overflow=hidden;rotatable=1;points=[[0,0.5],[1,0.5]];portConstraint=eastwest;whiteSpace=wrap;html=1;movable=1;resizable=1;deletable=1;editable=1;locked=0;connectable=1;" vertex="1" parent="1vg5YFvnHR8p3aQ_lJcd-111">
          <mxGeometry y="64" width="180" height="26" as="geometry" />
        </mxCell>
        <mxCell id="1vg5YFvnHR8p3aQ_lJcd-113" value="+ Value: float" style="text;strokeColor=none;fillColor=none;align=left;verticalAlign=top;spacingLeft=4;spacingRight=4;overflow=hidden;rotatable=1;points=[[0,0.5],[1,0.5]];portConstraint=eastwest;whiteSpace=wrap;html=1;movable=1;resizable=1;deletable=1;editable=1;locked=0;connectable=1;" vertex="1" parent="1vg5YFvnHR8p3aQ_lJcd-111">
          <mxGeometry y="90" width="180" height="26" as="geometry" />
        </mxCell>
        <mxCell id="1vg5YFvnHR8p3aQ_lJcd-114" value="" style="line;strokeWidth=1;fillColor=none;align=left;verticalAlign=middle;spacingTop=-1;spacingLeft=3;spacingRight=3;rotatable=1;labelPosition=right;points=[];portConstraint=eastwest;movable=1;resizable=1;deletable=1;editable=1;locked=0;connectable=1;" vertex="1" parent="1vg5YFvnHR8p3aQ_lJcd-111">
          <mxGeometry y="116" width="180" height="8" as="geometry" />
        </mxCell>
        <mxCell id="1vg5YFvnHR8p3aQ_lJcd-116" value="&amp;lt;&amp;lt;record&amp;gt;&amp;gt;&lt;br&gt;&lt;b&gt;Magnitude&lt;/b&gt;" style="swimlane;fontStyle=0;align=center;verticalAlign=top;childLayout=stackLayout;horizontal=1;startSize=38;horizontalStack=0;resizeParent=1;resizeParentMax=0;resizeLast=0;collapsible=0;marginBottom=0;html=1;whiteSpace=wrap;movable=1;resizable=1;rotatable=1;deletable=1;editable=1;locked=0;connectable=1;" vertex="1" parent="WIyWlLk6GJQsqaUBKTNV-1">
          <mxGeometry x="680" y="1498" width="200" height="150" as="geometry" />
        </mxCell>
        <mxCell id="1vg5YFvnHR8p3aQ_lJcd-117" value="+ Type: string = &quot;マグニチュード&quot;" style="text;strokeColor=none;fillColor=none;align=left;verticalAlign=top;spacingLeft=4;spacingRight=4;overflow=hidden;rotatable=1;points=[[0,0.5],[1,0.5]];portConstraint=eastwest;whiteSpace=wrap;html=1;movable=1;resizable=1;deletable=1;editable=1;locked=0;connectable=1;" vertex="1" parent="1vg5YFvnHR8p3aQ_lJcd-116">
          <mxGeometry y="38" width="200" height="26" as="geometry" />
        </mxCell>
        <mxCell id="1vg5YFvnHR8p3aQ_lJcd-118" value="+ Unit: MagnitudeUnit" style="text;strokeColor=none;fillColor=none;align=left;verticalAlign=top;spacingLeft=4;spacingRight=4;overflow=hidden;rotatable=1;points=[[0,0.5],[1,0.5]];portConstraint=eastwest;whiteSpace=wrap;html=1;movable=1;resizable=1;deletable=1;editable=1;locked=0;connectable=1;" vertex="1" parent="1vg5YFvnHR8p3aQ_lJcd-116">
          <mxGeometry y="64" width="200" height="26" as="geometry" />
        </mxCell>
        <mxCell id="1vg5YFvnHR8p3aQ_lJcd-119" value="+ Value: float?" style="text;strokeColor=none;fillColor=none;align=left;verticalAlign=top;spacingLeft=4;spacingRight=4;overflow=hidden;rotatable=1;points=[[0,0.5],[1,0.5]];portConstraint=eastwest;whiteSpace=wrap;html=1;movable=1;resizable=1;deletable=1;editable=1;locked=0;connectable=1;" vertex="1" parent="1vg5YFvnHR8p3aQ_lJcd-116">
          <mxGeometry y="90" width="200" height="26" as="geometry" />
        </mxCell>
        <mxCell id="1vg5YFvnHR8p3aQ_lJcd-121" value="+ Condition: MagnitudeCondition?" style="text;strokeColor=none;fillColor=none;align=left;verticalAlign=top;spacingLeft=4;spacingRight=4;overflow=hidden;rotatable=1;points=[[0,0.5],[1,0.5]];portConstraint=eastwest;whiteSpace=wrap;html=1;movable=1;resizable=1;deletable=1;editable=1;locked=0;connectable=1;" vertex="1" parent="1vg5YFvnHR8p3aQ_lJcd-116">
          <mxGeometry y="116" width="200" height="26" as="geometry" />
        </mxCell>
        <mxCell id="1vg5YFvnHR8p3aQ_lJcd-120" value="" style="line;strokeWidth=1;fillColor=none;align=left;verticalAlign=middle;spacingTop=-1;spacingLeft=3;spacingRight=3;rotatable=1;labelPosition=right;points=[];portConstraint=eastwest;movable=1;resizable=1;deletable=1;editable=1;locked=0;connectable=1;" vertex="1" parent="1vg5YFvnHR8p3aQ_lJcd-116">
          <mxGeometry y="142" width="200" height="8" as="geometry" />
        </mxCell>
        <mxCell id="1vg5YFvnHR8p3aQ_lJcd-122" value="&amp;lt;&amp;lt;record&amp;gt;&amp;gt;&lt;br&gt;&lt;b&gt;HypocentreDetail&lt;/b&gt;" style="swimlane;fontStyle=0;align=center;verticalAlign=top;childLayout=stackLayout;horizontal=1;startSize=38;horizontalStack=0;resizeParent=1;resizeParentMax=0;resizeLast=0;collapsible=0;marginBottom=0;html=1;whiteSpace=wrap;movable=1;resizable=1;rotatable=1;deletable=1;editable=1;locked=0;connectable=1;" vertex="1" parent="WIyWlLk6GJQsqaUBKTNV-1">
          <mxGeometry x="1010" y="1524" width="180" height="98" as="geometry" />
        </mxCell>
        <mxCell id="1vg5YFvnHR8p3aQ_lJcd-123" value="+ Code: int" style="text;strokeColor=none;fillColor=none;align=left;verticalAlign=top;spacingLeft=4;spacingRight=4;overflow=hidden;rotatable=1;points=[[0,0.5],[1,0.5]];portConstraint=eastwest;whiteSpace=wrap;html=1;movable=1;resizable=1;deletable=1;editable=1;locked=0;connectable=1;" vertex="1" parent="1vg5YFvnHR8p3aQ_lJcd-122">
          <mxGeometry y="38" width="180" height="26" as="geometry" />
        </mxCell>
        <mxCell id="1vg5YFvnHR8p3aQ_lJcd-124" value="+ Name: string" style="text;strokeColor=none;fillColor=none;align=left;verticalAlign=top;spacingLeft=4;spacingRight=4;overflow=hidden;rotatable=1;points=[[0,0.5],[1,0.5]];portConstraint=eastwest;whiteSpace=wrap;html=1;movable=1;resizable=1;deletable=1;editable=1;locked=0;connectable=1;" vertex="1" parent="1vg5YFvnHR8p3aQ_lJcd-122">
          <mxGeometry y="64" width="180" height="26" as="geometry" />
        </mxCell>
        <mxCell id="1vg5YFvnHR8p3aQ_lJcd-125" value="" style="line;strokeWidth=1;fillColor=none;align=left;verticalAlign=middle;spacingTop=-1;spacingLeft=3;spacingRight=3;rotatable=1;labelPosition=right;points=[];portConstraint=eastwest;movable=1;resizable=1;deletable=1;editable=1;locked=0;connectable=1;" vertex="1" parent="1vg5YFvnHR8p3aQ_lJcd-122">
          <mxGeometry y="90" width="180" height="8" as="geometry" />
        </mxCell>
        <mxCell id="1vg5YFvnHR8p3aQ_lJcd-126" value="&amp;lt;&amp;lt;record&amp;gt;&amp;gt;&lt;br&gt;&lt;b&gt;Hypocentre&lt;/b&gt;" style="swimlane;fontStyle=0;align=center;verticalAlign=top;childLayout=stackLayout;horizontal=1;startSize=38;horizontalStack=0;resizeParent=1;resizeParentMax=0;resizeLast=0;collapsible=0;marginBottom=0;html=1;whiteSpace=wrap;movable=1;resizable=1;rotatable=1;deletable=1;editable=1;locked=0;connectable=1;" vertex="1" parent="WIyWlLk6GJQsqaUBKTNV-1">
          <mxGeometry x="680" y="1200" width="210" height="228" as="geometry" />
        </mxCell>
        <mxCell id="1vg5YFvnHR8p3aQ_lJcd-127" value="+ Name: string" style="text;strokeColor=none;fillColor=none;align=left;verticalAlign=top;spacingLeft=4;spacingRight=4;overflow=hidden;rotatable=1;points=[[0,0.5],[1,0.5]];portConstraint=eastwest;whiteSpace=wrap;html=1;movable=1;resizable=1;deletable=1;editable=1;locked=0;connectable=1;" vertex="1" parent="1vg5YFvnHR8p3aQ_lJcd-126">
          <mxGeometry y="38" width="210" height="26" as="geometry" />
        </mxCell>
        <mxCell id="1vg5YFvnHR8p3aQ_lJcd-128" value="+ Code: int" style="text;strokeColor=none;fillColor=none;align=left;verticalAlign=top;spacingLeft=4;spacingRight=4;overflow=hidden;rotatable=1;points=[[0,0.5],[1,0.5]];portConstraint=eastwest;whiteSpace=wrap;html=1;movable=1;resizable=1;deletable=1;editable=1;locked=0;connectable=1;" vertex="1" parent="1vg5YFvnHR8p3aQ_lJcd-126">
          <mxGeometry y="64" width="210" height="26" as="geometry" />
        </mxCell>
        <mxCell id="1vg5YFvnHR8p3aQ_lJcd-130" value="+ Cooordinates: CoordinatePosition" style="text;strokeColor=none;fillColor=none;align=left;verticalAlign=top;spacingLeft=4;spacingRight=4;overflow=hidden;rotatable=1;points=[[0,0.5],[1,0.5]];portConstraint=eastwest;whiteSpace=wrap;html=1;movable=1;resizable=1;deletable=1;editable=1;locked=0;connectable=1;" vertex="1" parent="1vg5YFvnHR8p3aQ_lJcd-126">
          <mxGeometry y="90" width="210" height="26" as="geometry" />
        </mxCell>
        <mxCell id="1vg5YFvnHR8p3aQ_lJcd-131" value="+ Depth: Depth" style="text;strokeColor=none;fillColor=none;align=left;verticalAlign=top;spacingLeft=4;spacingRight=4;overflow=hidden;rotatable=1;points=[[0,0.5],[1,0.5]];portConstraint=eastwest;whiteSpace=wrap;html=1;movable=1;resizable=1;deletable=1;editable=1;locked=0;connectable=1;" vertex="1" parent="1vg5YFvnHR8p3aQ_lJcd-126">
          <mxGeometry y="116" width="210" height="26" as="geometry" />
        </mxCell>
        <mxCell id="1vg5YFvnHR8p3aQ_lJcd-132" value="+ Detail: HypocentreDetail?" style="text;strokeColor=none;fillColor=none;align=left;verticalAlign=top;spacingLeft=4;spacingRight=4;overflow=hidden;rotatable=1;points=[[0,0.5],[1,0.5]];portConstraint=eastwest;whiteSpace=wrap;html=1;movable=1;resizable=1;deletable=1;editable=1;locked=0;connectable=1;" vertex="1" parent="1vg5YFvnHR8p3aQ_lJcd-126">
          <mxGeometry y="142" width="210" height="26" as="geometry" />
        </mxCell>
        <mxCell id="1vg5YFvnHR8p3aQ_lJcd-133" value="+ Auxiliary: Auxiliary?" style="text;strokeColor=none;fillColor=none;align=left;verticalAlign=top;spacingLeft=4;spacingRight=4;overflow=hidden;rotatable=1;points=[[0,0.5],[1,0.5]];portConstraint=eastwest;whiteSpace=wrap;html=1;movable=1;resizable=1;deletable=1;editable=1;locked=0;connectable=1;" vertex="1" parent="1vg5YFvnHR8p3aQ_lJcd-126">
          <mxGeometry y="168" width="210" height="26" as="geometry" />
        </mxCell>
        <mxCell id="1vg5YFvnHR8p3aQ_lJcd-134" value="+ Source: Source?" style="text;strokeColor=none;fillColor=none;align=left;verticalAlign=top;spacingLeft=4;spacingRight=4;overflow=hidden;rotatable=1;points=[[0,0.5],[1,0.5]];portConstraint=eastwest;whiteSpace=wrap;html=1;movable=1;resizable=1;deletable=1;editable=1;locked=0;connectable=1;" vertex="1" parent="1vg5YFvnHR8p3aQ_lJcd-126">
          <mxGeometry y="194" width="210" height="26" as="geometry" />
        </mxCell>
        <mxCell id="1vg5YFvnHR8p3aQ_lJcd-129" value="" style="line;strokeWidth=1;fillColor=none;align=left;verticalAlign=middle;spacingTop=-1;spacingLeft=3;spacingRight=3;rotatable=1;labelPosition=right;points=[];portConstraint=eastwest;movable=1;resizable=1;deletable=1;editable=1;locked=0;connectable=1;" vertex="1" parent="1vg5YFvnHR8p3aQ_lJcd-126">
          <mxGeometry y="220" width="210" height="8" as="geometry" />
        </mxCell>
        <mxCell id="1vg5YFvnHR8p3aQ_lJcd-136" value="&amp;lt;&amp;lt;record&amp;gt;&amp;gt;&lt;br&gt;&lt;b&gt;EarthquakeInfo&lt;/b&gt;" style="swimlane;fontStyle=0;align=center;verticalAlign=top;childLayout=stackLayout;horizontal=1;startSize=38;horizontalStack=0;resizeParent=1;resizeParentMax=0;resizeLast=0;collapsible=0;marginBottom=0;html=1;whiteSpace=wrap;movable=1;resizable=1;rotatable=1;deletable=1;editable=1;locked=0;connectable=1;" vertex="1" parent="WIyWlLk6GJQsqaUBKTNV-1">
          <mxGeometry x="435" y="1300" width="175" height="306" as="geometry" />
        </mxCell>
        <mxCell id="1vg5YFvnHR8p3aQ_lJcd-137" value="+ EarthquakeId: int" style="text;strokeColor=none;fillColor=none;align=left;verticalAlign=top;spacingLeft=4;spacingRight=4;overflow=hidden;rotatable=1;points=[[0,0.5],[1,0.5]];portConstraint=eastwest;whiteSpace=wrap;html=1;movable=1;resizable=1;deletable=1;editable=1;locked=0;connectable=1;" vertex="1" parent="1vg5YFvnHR8p3aQ_lJcd-136">
          <mxGeometry y="38" width="175" height="26" as="geometry" />
        </mxCell>
        <mxCell id="1vg5YFvnHR8p3aQ_lJcd-138" value="+ Type: EarthquakeType" style="text;strokeColor=none;fillColor=none;align=left;verticalAlign=top;spacingLeft=4;spacingRight=4;overflow=hidden;rotatable=1;points=[[0,0.5],[1,0.5]];portConstraint=eastwest;whiteSpace=wrap;html=1;movable=1;resizable=1;deletable=1;editable=1;locked=0;connectable=1;" vertex="1" parent="1vg5YFvnHR8p3aQ_lJcd-136">
          <mxGeometry y="64" width="175" height="26" as="geometry" />
        </mxCell>
        <mxCell id="1vg5YFvnHR8p3aQ_lJcd-139" value="+ EventId: string" style="text;strokeColor=none;fillColor=none;align=left;verticalAlign=top;spacingLeft=4;spacingRight=4;overflow=hidden;rotatable=1;points=[[0,0.5],[1,0.5]];portConstraint=eastwest;whiteSpace=wrap;html=1;movable=1;resizable=1;deletable=1;editable=1;locked=0;connectable=1;" vertex="1" parent="1vg5YFvnHR8p3aQ_lJcd-136">
          <mxGeometry y="90" width="175" height="26" as="geometry" />
        </mxCell>
        <mxCell id="1vg5YFvnHR8p3aQ_lJcd-140" value="+ OriginTime: DateTime?" style="text;strokeColor=none;fillColor=none;align=left;verticalAlign=top;spacingLeft=4;spacingRight=4;overflow=hidden;rotatable=1;points=[[0,0.5],[1,0.5]];portConstraint=eastwest;whiteSpace=wrap;html=1;movable=1;resizable=1;deletable=1;editable=1;locked=0;connectable=1;" vertex="1" parent="1vg5YFvnHR8p3aQ_lJcd-136">
          <mxGeometry y="116" width="175" height="26" as="geometry" />
        </mxCell>
        <mxCell id="1vg5YFvnHR8p3aQ_lJcd-141" value="+ ArrivalTime: DateTime" style="text;strokeColor=none;fillColor=none;align=left;verticalAlign=top;spacingLeft=4;spacingRight=4;overflow=hidden;rotatable=1;points=[[0,0.5],[1,0.5]];portConstraint=eastwest;whiteSpace=wrap;html=1;movable=1;resizable=1;deletable=1;editable=1;locked=0;connectable=1;" vertex="1" parent="1vg5YFvnHR8p3aQ_lJcd-136">
          <mxGeometry y="142" width="175" height="26" as="geometry" />
        </mxCell>
        <mxCell id="1vg5YFvnHR8p3aQ_lJcd-142" value="+ Hypocentre: Hypocentre" style="text;strokeColor=none;fillColor=none;align=left;verticalAlign=top;spacingLeft=4;spacingRight=4;overflow=hidden;rotatable=1;points=[[0,0.5],[1,0.5]];portConstraint=eastwest;whiteSpace=wrap;html=1;movable=1;resizable=1;deletable=1;editable=1;locked=0;connectable=1;" vertex="1" parent="1vg5YFvnHR8p3aQ_lJcd-136">
          <mxGeometry y="168" width="175" height="26" as="geometry" />
        </mxCell>
        <mxCell id="1vg5YFvnHR8p3aQ_lJcd-143" value="+ Magnitude: Magnitude" style="text;strokeColor=none;fillColor=none;align=left;verticalAlign=top;spacingLeft=4;spacingRight=4;overflow=hidden;rotatable=1;points=[[0,0.5],[1,0.5]];portConstraint=eastwest;whiteSpace=wrap;html=1;movable=1;resizable=1;deletable=1;editable=1;locked=0;connectable=1;" vertex="1" parent="1vg5YFvnHR8p3aQ_lJcd-136">
          <mxGeometry y="194" width="175" height="26" as="geometry" />
        </mxCell>
        <mxCell id="1vg5YFvnHR8p3aQ_lJcd-148" value="+ MaxIntensity: Intensity?" style="text;strokeColor=none;fillColor=none;align=left;verticalAlign=top;spacingLeft=4;spacingRight=4;overflow=hidden;rotatable=1;points=[[0,0.5],[1,0.5]];portConstraint=eastwest;whiteSpace=wrap;html=1;movable=1;resizable=1;deletable=1;editable=1;locked=0;connectable=1;" vertex="1" parent="1vg5YFvnHR8p3aQ_lJcd-136">
          <mxGeometry y="220" width="175" height="26" as="geometry" />
        </mxCell>
        <mxCell id="1vg5YFvnHR8p3aQ_lJcd-149" value="+ MaxLgIntensity: LgIntensity?" style="text;strokeColor=none;fillColor=none;align=left;verticalAlign=top;spacingLeft=4;spacingRight=4;overflow=hidden;rotatable=1;points=[[0,0.5],[1,0.5]];portConstraint=eastwest;whiteSpace=wrap;html=1;movable=1;resizable=1;deletable=1;editable=1;locked=0;connectable=1;" vertex="1" parent="1vg5YFvnHR8p3aQ_lJcd-136">
          <mxGeometry y="246" width="175" height="26" as="geometry" />
        </mxCell>
        <mxCell id="1vg5YFvnHR8p3aQ_lJcd-150" value="+ LgCategory: LgCategory?" style="text;strokeColor=none;fillColor=none;align=left;verticalAlign=top;spacingLeft=4;spacingRight=4;overflow=hidden;rotatable=1;points=[[0,0.5],[1,0.5]];portConstraint=eastwest;whiteSpace=wrap;html=1;movable=1;resizable=1;deletable=1;editable=1;locked=0;connectable=1;" vertex="1" parent="1vg5YFvnHR8p3aQ_lJcd-136">
          <mxGeometry y="272" width="175" height="26" as="geometry" />
        </mxCell>
        <mxCell id="1vg5YFvnHR8p3aQ_lJcd-144" value="" style="line;strokeWidth=1;fillColor=none;align=left;verticalAlign=middle;spacingTop=-1;spacingLeft=3;spacingRight=3;rotatable=1;labelPosition=right;points=[];portConstraint=eastwest;movable=1;resizable=1;deletable=1;editable=1;locked=0;connectable=1;" vertex="1" parent="1vg5YFvnHR8p3aQ_lJcd-136">
          <mxGeometry y="298" width="175" height="8" as="geometry" />
        </mxCell>
        <mxCell id="1vg5YFvnHR8p3aQ_lJcd-151" value="T = EarthquakeInfo" style="endArrow=block;endSize=16;endFill=0;html=1;rounded=0;entryX=1;entryY=0.25;entryDx=0;entryDy=0;exitX=0;exitY=0.5;exitDx=0;exitDy=0;" edge="1" parent="WIyWlLk6GJQsqaUBKTNV-1" source="1vg5YFvnHR8p3aQ_lJcd-62" target="YLLOaxHBiWGZTTnEDzXJ-162">
          <mxGeometry x="0.0169" width="160" relative="1" as="geometry">
            <mxPoint x="730" y="1140" as="sourcePoint" />
            <mxPoint x="890" y="1140" as="targetPoint" />
            <mxPoint as="offset" />
          </mxGeometry>
        </mxCell>
        <mxCell id="1vg5YFvnHR8p3aQ_lJcd-152" value="" style="endArrow=diamondThin;endFill=1;endSize=24;html=1;rounded=0;entryX=0.5;entryY=1;entryDx=0;entryDy=0;exitX=0.5;exitY=0;exitDx=0;exitDy=0;" edge="1" parent="WIyWlLk6GJQsqaUBKTNV-1" source="1vg5YFvnHR8p3aQ_lJcd-136" target="1vg5YFvnHR8p3aQ_lJcd-62">
          <mxGeometry width="160" relative="1" as="geometry">
            <mxPoint x="390" y="1350" as="sourcePoint" />
            <mxPoint x="550" y="1350" as="targetPoint" />
          </mxGeometry>
        </mxCell>
        <mxCell id="1vg5YFvnHR8p3aQ_lJcd-153" value="" style="endArrow=open;endFill=1;endSize=12;html=1;rounded=0;entryX=0;entryY=0.5;entryDx=0;entryDy=0;exitX=1;exitY=0.25;exitDx=0;exitDy=0;edgeStyle=elbowEdgeStyle;" edge="1" parent="WIyWlLk6GJQsqaUBKTNV-1" source="1vg5YFvnHR8p3aQ_lJcd-5" target="1vg5YFvnHR8p3aQ_lJcd-138">
          <mxGeometry width="160" relative="1" as="geometry">
            <mxPoint x="280" y="1390" as="sourcePoint" />
            <mxPoint x="440" y="1390" as="targetPoint" />
          </mxGeometry>
        </mxCell>
        <mxCell id="1vg5YFvnHR8p3aQ_lJcd-154" value="" style="endArrow=open;endFill=1;endSize=12;html=1;rounded=0;entryX=0;entryY=0.5;entryDx=0;entryDy=0;exitX=1;exitY=0.25;exitDx=0;exitDy=0;edgeStyle=elbowEdgeStyle;" edge="1" parent="WIyWlLk6GJQsqaUBKTNV-1" source="1vg5YFvnHR8p3aQ_lJcd-29" target="1vg5YFvnHR8p3aQ_lJcd-150">
          <mxGeometry width="160" relative="1" as="geometry">
            <mxPoint x="320" y="1520" as="sourcePoint" />
            <mxPoint x="480" y="1520" as="targetPoint" />
            <Array as="points">
              <mxPoint x="400" y="1670" />
            </Array>
          </mxGeometry>
        </mxCell>
        <mxCell id="1vg5YFvnHR8p3aQ_lJcd-155" value="" style="endArrow=open;endFill=1;endSize=12;html=1;rounded=0;entryX=0;entryY=0.5;entryDx=0;entryDy=0;exitX=1;exitY=0.5;exitDx=0;exitDy=0;edgeStyle=orthogonalEdgeStyle;elbow=vertical;" edge="1" parent="WIyWlLk6GJQsqaUBKTNV-1" source="1vg5YFvnHR8p3aQ_lJcd-41" target="1vg5YFvnHR8p3aQ_lJcd-149">
          <mxGeometry width="160" relative="1" as="geometry">
            <mxPoint x="320" y="1520" as="sourcePoint" />
            <mxPoint x="480" y="1520" as="targetPoint" />
            <Array as="points">
              <mxPoint x="400" y="1513" />
              <mxPoint x="400" y="1559" />
            </Array>
          </mxGeometry>
        </mxCell>
        <mxCell id="1vg5YFvnHR8p3aQ_lJcd-156" value="" style="endArrow=open;endFill=1;endSize=12;html=1;rounded=0;entryX=0;entryY=0.5;entryDx=0;entryDy=0;exitX=1;exitY=0.5;exitDx=0;exitDy=0;edgeStyle=orthogonalEdgeStyle;" edge="1" parent="WIyWlLk6GJQsqaUBKTNV-1" source="1vg5YFvnHR8p3aQ_lJcd-15" target="1vg5YFvnHR8p3aQ_lJcd-148">
          <mxGeometry width="160" relative="1" as="geometry">
            <mxPoint x="320" y="1520" as="sourcePoint" />
            <mxPoint x="480" y="1520" as="targetPoint" />
            <Array as="points">
              <mxPoint x="420" y="1413" />
              <mxPoint x="420" y="1533" />
            </Array>
          </mxGeometry>
        </mxCell>
        <mxCell id="1vg5YFvnHR8p3aQ_lJcd-157" value="" style="endArrow=diamondThin;endFill=1;endSize=24;html=1;rounded=0;entryX=1;entryY=0.5;entryDx=0;entryDy=0;exitX=0;exitY=0.25;exitDx=0;exitDy=0;edgeStyle=orthogonalEdgeStyle;" edge="1" parent="WIyWlLk6GJQsqaUBKTNV-1" source="1vg5YFvnHR8p3aQ_lJcd-116" target="1vg5YFvnHR8p3aQ_lJcd-143">
          <mxGeometry width="160" relative="1" as="geometry">
            <mxPoint x="920" y="1420" as="sourcePoint" />
            <mxPoint x="1080" y="1420" as="targetPoint" />
            <Array as="points">
              <mxPoint x="650" y="1536" />
              <mxPoint x="650" y="1507" />
            </Array>
          </mxGeometry>
        </mxCell>
        <mxCell id="1vg5YFvnHR8p3aQ_lJcd-158" value="" style="endArrow=diamondThin;endFill=1;endSize=24;html=1;rounded=0;entryX=1;entryY=0.5;entryDx=0;entryDy=0;exitX=0;exitY=0.5;exitDx=0;exitDy=0;edgeStyle=orthogonalEdgeStyle;" edge="1" parent="WIyWlLk6GJQsqaUBKTNV-1" source="1vg5YFvnHR8p3aQ_lJcd-127" target="1vg5YFvnHR8p3aQ_lJcd-142">
          <mxGeometry width="160" relative="1" as="geometry">
            <mxPoint x="640" y="1330" as="sourcePoint" />
            <mxPoint x="800" y="1330" as="targetPoint" />
          </mxGeometry>
        </mxCell>
        <mxCell id="1vg5YFvnHR8p3aQ_lJcd-159" value="" style="endArrow=open;endFill=1;endSize=12;html=1;rounded=0;entryX=0;entryY=0.5;entryDx=0;entryDy=0;exitX=0.5;exitY=0;exitDx=0;exitDy=0;edgeStyle=orthogonalEdgeStyle;" edge="1" parent="WIyWlLk6GJQsqaUBKTNV-1" source="1vg5YFvnHR8p3aQ_lJcd-47" target="1vg5YFvnHR8p3aQ_lJcd-121">
          <mxGeometry width="160" relative="1" as="geometry">
            <mxPoint x="690" y="1640" as="sourcePoint" />
            <mxPoint x="850" y="1640" as="targetPoint" />
          </mxGeometry>
        </mxCell>
        <mxCell id="1vg5YFvnHR8p3aQ_lJcd-160" value="" style="endArrow=open;endFill=1;endSize=12;html=1;rounded=0;entryX=0;entryY=0.5;entryDx=0;entryDy=0;exitX=0.5;exitY=0;exitDx=0;exitDy=0;edgeStyle=orthogonalEdgeStyle;" edge="1" parent="WIyWlLk6GJQsqaUBKTNV-1" source="1vg5YFvnHR8p3aQ_lJcd-51" target="1vg5YFvnHR8p3aQ_lJcd-118">
          <mxGeometry width="160" relative="1" as="geometry">
            <mxPoint x="680" y="1650" as="sourcePoint" />
            <mxPoint x="770" y="1637" as="targetPoint" />
            <Array as="points">
              <mxPoint x="510" y="1620" />
              <mxPoint x="630" y="1620" />
              <mxPoint x="630" y="1575" />
            </Array>
          </mxGeometry>
        </mxCell>
        <mxCell id="1vg5YFvnHR8p3aQ_lJcd-161" value="" style="endArrow=diamondThin;endFill=1;endSize=24;html=1;rounded=0;entryX=0.5;entryY=1;entryDx=0;entryDy=0;exitX=0.5;exitY=0;exitDx=0;exitDy=0;" edge="1" parent="WIyWlLk6GJQsqaUBKTNV-1" source="WJyoysQiN_B3ne-0Ys_C-0" target="WJyoysQiN_B3ne-0Ys_C-10">
          <mxGeometry width="160" relative="1" as="geometry">
            <mxPoint x="860" y="490" as="sourcePoint" />
            <mxPoint x="1020" y="490" as="targetPoint" />
          </mxGeometry>
        </mxCell>
        <mxCell id="1vg5YFvnHR8p3aQ_lJcd-162" value="" style="endArrow=diamondThin;endFill=1;endSize=24;html=1;rounded=0;exitX=0.5;exitY=1;exitDx=0;exitDy=0;edgeStyle=orthogonalEdgeStyle;entryX=1;entryY=0.5;entryDx=0;entryDy=0;" edge="1" parent="WIyWlLk6GJQsqaUBKTNV-1" source="1vg5YFvnHR8p3aQ_lJcd-85" target="1vg5YFvnHR8p3aQ_lJcd-130">
          <mxGeometry width="160" relative="1" as="geometry">
            <mxPoint x="950" y="1270" as="sourcePoint" />
            <mxPoint x="1110" y="1270" as="targetPoint" />
          </mxGeometry>
        </mxCell>
        <mxCell id="1vg5YFvnHR8p3aQ_lJcd-163" value="" style="endArrow=diamondThin;endFill=1;endSize=24;html=1;rounded=0;entryX=1;entryY=0.5;entryDx=0;entryDy=0;exitX=0.5;exitY=0;exitDx=0;exitDy=0;edgeStyle=orthogonalEdgeStyle;" edge="1" parent="WIyWlLk6GJQsqaUBKTNV-1" source="1vg5YFvnHR8p3aQ_lJcd-99" target="1vg5YFvnHR8p3aQ_lJcd-131">
          <mxGeometry width="160" relative="1" as="geometry">
            <mxPoint x="950" y="1270" as="sourcePoint" />
            <mxPoint x="1110" y="1270" as="targetPoint" />
          </mxGeometry>
        </mxCell>
        <mxCell id="1vg5YFvnHR8p3aQ_lJcd-164" value="" style="endArrow=open;endFill=1;endSize=12;html=1;rounded=0;entryX=0;entryY=0.5;entryDx=0;entryDy=0;exitX=1;exitY=0.25;exitDx=0;exitDy=0;edgeStyle=orthogonalEdgeStyle;" edge="1" parent="WIyWlLk6GJQsqaUBKTNV-1" source="1vg5YFvnHR8p3aQ_lJcd-10" target="1vg5YFvnHR8p3aQ_lJcd-89">
          <mxGeometry width="160" relative="1" as="geometry">
            <mxPoint x="1030" y="1280" as="sourcePoint" />
            <mxPoint x="1190" y="1280" as="targetPoint" />
          </mxGeometry>
        </mxCell>
        <mxCell id="1vg5YFvnHR8p3aQ_lJcd-165" value="" style="endArrow=diamondThin;endFill=1;endSize=24;html=1;rounded=0;exitX=1;exitY=0.25;exitDx=0;exitDy=0;entryX=1;entryY=0.5;entryDx=0;entryDy=0;edgeStyle=orthogonalEdgeStyle;" edge="1" parent="WIyWlLk6GJQsqaUBKTNV-1" source="1vg5YFvnHR8p3aQ_lJcd-111" target="1vg5YFvnHR8p3aQ_lJcd-90">
          <mxGeometry width="160" relative="1" as="geometry">
            <mxPoint x="1290" y="848.57" as="sourcePoint" />
            <mxPoint x="1450" y="848.57" as="targetPoint" />
            <Array as="points">
              <mxPoint x="1270" y="861" />
              <mxPoint x="1270" y="1203" />
            </Array>
          </mxGeometry>
        </mxCell>
        <mxCell id="1vg5YFvnHR8p3aQ_lJcd-166" value="" style="endArrow=diamondThin;endFill=1;endSize=24;html=1;rounded=0;exitX=1;exitY=0.25;exitDx=0;exitDy=0;entryX=1;entryY=0.5;entryDx=0;entryDy=0;edgeStyle=orthogonalEdgeStyle;" edge="1" parent="WIyWlLk6GJQsqaUBKTNV-1" source="1vg5YFvnHR8p3aQ_lJcd-78" target="1vg5YFvnHR8p3aQ_lJcd-86">
          <mxGeometry width="160" relative="1" as="geometry">
            <mxPoint x="1340" y="1048.57" as="sourcePoint" />
            <mxPoint x="1500" y="1048.57" as="targetPoint" />
            <Array as="points">
              <mxPoint x="1230" y="1004" />
              <mxPoint x="1230" y="1151" />
            </Array>
          </mxGeometry>
        </mxCell>
        <mxCell id="1vg5YFvnHR8p3aQ_lJcd-167" value="" style="endArrow=diamondThin;endFill=1;endSize=24;html=1;rounded=0;exitX=1;exitY=0.25;exitDx=0;exitDy=0;entryX=1;entryY=0.5;entryDx=0;entryDy=0;edgeStyle=orthogonalEdgeStyle;" edge="1" parent="WIyWlLk6GJQsqaUBKTNV-1" source="1vg5YFvnHR8p3aQ_lJcd-78" target="1vg5YFvnHR8p3aQ_lJcd-87">
          <mxGeometry width="160" relative="1" as="geometry">
            <mxPoint x="1270" y="1015" as="sourcePoint" />
            <mxPoint x="1270" y="1161" as="targetPoint" />
            <Array as="points">
              <mxPoint x="1230" y="1004" />
              <mxPoint x="1230" y="1177" />
            </Array>
          </mxGeometry>
        </mxCell>
        <mxCell id="1vg5YFvnHR8p3aQ_lJcd-169" value="" style="endArrow=open;endFill=1;endSize=12;html=1;rounded=0;exitX=0.503;exitY=1.03;exitDx=0;exitDy=0;exitPerimeter=0;entryX=1;entryY=0.5;entryDx=0;entryDy=0;edgeStyle=orthogonalEdgeStyle;" edge="1" parent="WIyWlLk6GJQsqaUBKTNV-1" source="1vg5YFvnHR8p3aQ_lJcd-4" target="1vg5YFvnHR8p3aQ_lJcd-103">
          <mxGeometry width="160" relative="1" as="geometry">
            <mxPoint x="1010" y="1260" as="sourcePoint" />
            <mxPoint x="1170" y="1260" as="targetPoint" />
          </mxGeometry>
        </mxCell>
        <mxCell id="1vg5YFvnHR8p3aQ_lJcd-170" value="" style="endArrow=open;endFill=1;endSize=12;html=1;rounded=0;edgeStyle=orthogonalEdgeStyle;entryX=1.014;entryY=0.348;entryDx=0;entryDy=0;entryPerimeter=0;exitX=1;exitY=0.5;exitDx=0;exitDy=0;" edge="1" parent="WIyWlLk6GJQsqaUBKTNV-1" source="1vg5YFvnHR8p3aQ_lJcd-56" target="1vg5YFvnHR8p3aQ_lJcd-134">
          <mxGeometry width="160" relative="1" as="geometry">
            <mxPoint x="990" y="1520" as="sourcePoint" />
            <mxPoint x="1150" y="1520" as="targetPoint" />
            <Array as="points">
              <mxPoint x="930" y="1723" />
              <mxPoint x="930" y="1403" />
            </Array>
          </mxGeometry>
        </mxCell>
        <mxCell id="1vg5YFvnHR8p3aQ_lJcd-171" value="" style="endArrow=diamondThin;endFill=1;endSize=24;html=1;rounded=0;entryX=1;entryY=0.692;entryDx=0;entryDy=0;entryPerimeter=0;exitX=0.5;exitY=0;exitDx=0;exitDy=0;edgeStyle=orthogonalEdgeStyle;" edge="1" parent="WIyWlLk6GJQsqaUBKTNV-1" source="1vg5YFvnHR8p3aQ_lJcd-122" target="1vg5YFvnHR8p3aQ_lJcd-132">
          <mxGeometry width="160" relative="1" as="geometry">
            <mxPoint x="990" y="1540" as="sourcePoint" />
            <mxPoint x="1150" y="1540" as="targetPoint" />
            <Array as="points">
              <mxPoint x="1100" y="1510" />
              <mxPoint x="990" y="1510" />
              <mxPoint x="990" y="1360" />
            </Array>
          </mxGeometry>
        </mxCell>
        <mxCell id="1vg5YFvnHR8p3aQ_lJcd-172" value="" style="endArrow=diamondThin;endFill=1;endSize=24;html=1;rounded=0;entryX=1;entryY=0.5;entryDx=0;entryDy=0;exitX=0.5;exitY=1;exitDx=0;exitDy=0;edgeStyle=orthogonalEdgeStyle;" edge="1" parent="WIyWlLk6GJQsqaUBKTNV-1" source="1vg5YFvnHR8p3aQ_lJcd-105" target="1vg5YFvnHR8p3aQ_lJcd-69">
          <mxGeometry width="160" relative="1" as="geometry">
            <mxPoint x="990" y="1680" as="sourcePoint" />
            <mxPoint x="1150" y="1680" as="targetPoint" />
          </mxGeometry>
        </mxCell>
        <mxCell id="1vg5YFvnHR8p3aQ_lJcd-173" value="" style="endArrow=diamondThin;endFill=1;endSize=24;html=1;rounded=0;entryX=1;entryY=0.5;entryDx=0;entryDy=0;exitX=0.5;exitY=0;exitDx=0;exitDy=0;edgeStyle=orthogonalEdgeStyle;" edge="1" parent="WIyWlLk6GJQsqaUBKTNV-1" source="1vg5YFvnHR8p3aQ_lJcd-64" target="1vg5YFvnHR8p3aQ_lJcd-133">
          <mxGeometry width="160" relative="1" as="geometry">
            <mxPoint x="990" y="1570" as="sourcePoint" />
            <mxPoint x="1150" y="1570" as="targetPoint" />
            <Array as="points">
              <mxPoint x="1100" y="1640" />
              <mxPoint x="960" y="1640" />
              <mxPoint x="960" y="1381" />
            </Array>
          </mxGeometry>
        </mxCell>
      </root>
    </mxGraphModel>
  </diagram>
</mxfile>
